<svg xmlns="http://www.w3.org/2000/svg" viewBox="0 0 403.9 197.5"><defs><style>.cls-1{fill:#fff;}</style></defs><g id="Layer_2" data-name="Layer 2"><g id="Layer_1-2" data-name="Layer 1"><path class="cls-1" d="M75.7,1.7,88.1,63.1h.2L100.8,1.7h26V88.6H110.7V19.2h-.2L95,88.6H81.4L65.9,19.2h-.2V88.6H49.6V1.7Z"/><path class="cls-1" d="M155.5,62.3a37,37,0,0,0,.4,6,13,13,0,0,0,1.6,4.7,8.92,8.92,0,0,0,3.2,3.2,11.44,11.44,0,0,0,10.2,0A8.66,8.66,0,0,0,174,73a13,13,0,0,0,1.6-4.7,37,37,0,0,0,.4-6V1.7h17.5V62.3A35.92,35.92,0,0,1,191.2,76a21.47,21.47,0,0,1-6.2,8.6,22.35,22.35,0,0,1-8.9,4.3A50,50,0,0,1,165.8,90a49.31,49.31,0,0,1-10.3-1,20.59,20.59,0,0,1-8.9-4,19.82,19.82,0,0,1-6.2-8.5,38,38,0,0,1-2.3-14.2V1.7h17.5V62.3Z"/><path class="cls-1" d="M220,64a30.34,30.34,0,0,0,.5,5.5,9,9,0,0,0,1.8,4.2,10,10,0,0,0,3.6,2.7,13.54,13.54,0,0,0,5.7,1,11.17,11.17,0,0,0,7.2-2.6c2.1-1.7,3.2-4.4,3.2-8.1a16,16,0,0,0-.8-5.1,9.59,9.59,0,0,0-2.6-3.8,18.09,18.09,0,0,0-4.8-3.1,76.89,76.89,0,0,0-7.4-2.9,56.74,56.74,0,0,1-10.1-4.3,26.11,26.11,0,0,1-7.1-5.4,20.08,20.08,0,0,1-4.2-7.2,30.09,30.09,0,0,1-1.3-9.4q0-12.9,7.2-19.2C215.7,2.1,222.3,0,230.6,0a41,41,0,0,1,10.8,1.3,23.2,23.2,0,0,1,8.5,4.1,18.58,18.58,0,0,1,5.6,7.3,26.53,26.53,0,0,1,2,10.7v2.4H240.7c0-4.1-.7-7.3-2.2-9.6s-3.9-3.3-7.3-3.3a11.91,11.91,0,0,0-4.9.9,8.13,8.13,0,0,0-3.1,2.3,7.45,7.45,0,0,0-1.6,3.2,15.81,15.81,0,0,0-.4,3.8,13.18,13.18,0,0,0,1.7,6.8c1.1,1.8,3.6,3.5,7.3,5.1l13.5,5.8a47,47,0,0,1,8.2,4.6,24.61,24.61,0,0,1,5.1,5.1,16.13,16.13,0,0,1,2.6,6,32.9,32.9,0,0,1,.7,7.3c0,9.2-2.7,15.9-8,20s-12.7,6.3-22.2,6.3c-9.9,0-17-2.1-21.2-6.5s-6.4-10.5-6.4-18.5V61.6H220V64Z"/><path class="cls-1" d="M269.1,1.7h17.5V88.6H269.1Z"/><path class="cls-1" d="M333.7,17.2c-1.5-2.9-4.2-4.3-8.2-4.3a8,8,0,0,0-5.4,1.8,12,12,0,0,0-3.3,5.7,47.77,47.77,0,0,0-1.7,10.3c-.3,4.3-.5,9.5-.5,15.6a138.67,138.67,0,0,0,.7,16,30.57,30.57,0,0,0,2.1,9.4,8.78,8.78,0,0,0,3.5,4.5,9.88,9.88,0,0,0,4.9,1.2,12.17,12.17,0,0,0,4.3-.8,7.53,7.53,0,0,0,3.5-3.2,20.77,20.77,0,0,0,2.3-6.7,58.29,58.29,0,0,0,.9-11.4h17.5a81.68,81.68,0,0,1-1.1,13.4,30.07,30.07,0,0,1-4.1,11.1,20.2,20.2,0,0,1-8.4,7.4q-5.4,2.7-14.1,2.7c-6.6,0-11.8-1.1-15.7-3.2a21.13,21.13,0,0,1-8.9-9.1,39.44,39.44,0,0,1-4-14.2,169.74,169.74,0,0,1-.9-18.3,170.48,170.48,0,0,1,.9-18.2,39.41,39.41,0,0,1,4-14.3,22.8,22.8,0,0,1,8.9-9.3C314.8,1.1,320,0,326.6,0c6.2,0,11.2,1,14.8,3a20.79,20.79,0,0,1,8.1,7.7,25.6,25.6,0,0,1,3.3,10.1,93.72,93.72,0,0,1,.7,10.2H336C335.9,24.7,335.2,20.1,333.7,17.2Z"/><path class="cls-1" d="M17.5,171.4a30.34,30.34,0,0,0,.5,5.5,9,9,0,0,0,1.8,4.2,10,10,0,0,0,3.6,2.7,13.54,13.54,0,0,0,5.7,1,11.17,11.17,0,0,0,7.2-2.6c2.1-1.7,3.2-4.4,3.2-8.1a16,16,0,0,0-.8-5.1,9.59,9.59,0,0,0-2.6-3.8,18.09,18.09,0,0,0-4.8-3.1,76.89,76.89,0,0,0-7.4-2.9,56.74,56.74,0,0,1-10.1-4.3,26.11,26.11,0,0,1-7.1-5.4,20.08,20.08,0,0,1-4.2-7.2,30.09,30.09,0,0,1-1.3-9.4q0-12.9,7.2-19.2c4.8-4.2,11.4-6.3,19.7-6.3a41,41,0,0,1,10.8,1.3,23.2,23.2,0,0,1,8.5,4.1,18.58,18.58,0,0,1,5.6,7.3,26.53,26.53,0,0,1,2,10.7v2.4H38.2c0-4.1-.7-7.3-2.2-9.6s-3.9-3.3-7.3-3.3a11.91,11.91,0,0,0-4.9.9,8.13,8.13,0,0,0-3.1,2.3,7.45,7.45,0,0,0-1.6,3.2,15.81,15.81,0,0,0-.4,3.8,13.18,13.18,0,0,0,1.7,6.8c1.1,1.8,3.6,3.5,7.3,5.1l13.5,5.8a47,47,0,0,1,8.2,4.6,24.61,24.61,0,0,1,5.1,5.1,16.13,16.13,0,0,1,2.6,6,32.9,32.9,0,0,1,.7,7.3c0,9.2-2.7,15.9-8,20s-12.7,6.3-22.2,6.3c-9.9,0-17-2.1-21.2-6.5S0,180.5,0,172.5V169H17.5Z"/><path class="cls-1" d="M117.4,123.4h-19V196H80.9V123.4h-19V109h55.5Z"/><path class="cls-1" d="M123.7,134.3a39.41,39.41,0,0,1,4-14.3,22.41,22.41,0,0,1,9-9.3c3.9-2.2,9.1-3.3,15.7-3.3s11.8,1.1,15.7,3.3A21.59,21.59,0,0,1,177,120a39.41,39.41,0,0,1,4,14.3,170.48,170.48,0,0,1,.9,18.2,171.08,171.08,0,0,1-.9,18.3,38.86,38.86,0,0,1-4,14.2,21.71,21.71,0,0,1-8.9,9.1c-3.9,2.1-9.1,3.2-15.7,3.2s-11.8-1.1-15.7-3.2a21.93,21.93,0,0,1-9-9.1,39.44,39.44,0,0,1-4-14.2,185.48,185.48,0,0,1,0-36.5Zm17,33.1a45.73,45.73,0,0,0,1.7,10,11.25,11.25,0,0,0,3.7,5.6,11.93,11.93,0,0,0,12.6,0,11.25,11.25,0,0,0,3.7-5.6,40.43,40.43,0,0,0,1.7-10c.3-4.1.4-9.1.4-14.9s-.1-10.8-.4-14.9a45.73,45.73,0,0,0-1.7-10,11.58,11.58,0,0,0-3.7-5.7,11.92,11.92,0,0,0-12.6,0,11.58,11.58,0,0,0-3.7,5.7,40.43,40.43,0,0,0-1.7,10c-.3,4.1-.4,9-.4,14.9S140.5,163.3,140.7,167.4Z"/><path class="cls-1" d="M225.5,109.1c7.3,0,13,1.8,17,5.5s6.1,9.3,6.1,16.9c0,5.8-1.2,10.6-3.5,14.3a16.2,16.2,0,0,1-11,7.1v.2c4.4.7,7.6,2.1,9.6,4.3s3.3,5.7,3.8,10.6c.2,1.6.3,3.4.4,5.3s.2,4,.2,6.4c.2,4.6.4,8.2.7,10.6.5,2.4,1.5,4.1,3.2,5v.7H233a8.71,8.71,0,0,1-1.7-4.2c-.2-1.6-.4-3.2-.5-4.9l-.5-16.7c-.2-3.4-1-6.1-2.6-8s-4.1-2.9-7.8-2.9h-9.4V196H193V109.1ZM217.9,147c4.2,0,7.5-1,9.7-3s3.4-5.3,3.4-10c0-8-4.1-12.1-12.2-12.1h-8.3V147Z"/><path class="cls-1" d="M260.7,109.1h17.5V196H260.7Z"/><path class="cls-1" d="M338.7,123.4h-31v20.5h29.2v14.4H307.7v23.4H340V196H290.2V109.1h48.6v14.3Z"/><path class="cls-1" d="M363.6,171.4a30.34,30.34,0,0,0,.5,5.5,9,9,0,0,0,1.8,4.2,10,10,0,0,0,3.6,2.7,13.54,13.54,0,0,0,5.7,1,11.17,11.17,0,0,0,7.2-2.6c2.2-1.7,3.2-4.4,3.2-8.1a16,16,0,0,0-.8-5.1,9.59,9.59,0,0,0-2.6-3.8,18.09,18.09,0,0,0-4.8-3.1,76.89,76.89,0,0,0-7.4-2.9,56.74,56.74,0,0,1-10.1-4.3,26.11,26.11,0,0,1-7.1-5.4,20.08,20.08,0,0,1-4.2-7.2,30.09,30.09,0,0,1-1.3-9.4q0-12.9,7.2-19.2c4.8-4.2,11.4-6.3,19.7-6.3a41,41,0,0,1,10.8,1.3,23.2,23.2,0,0,1,8.5,4.1,18.58,18.58,0,0,1,5.6,7.3,26.53,26.53,0,0,1,2,10.7v2.4H384.3c0-4.1-.7-7.3-2.2-9.6s-3.9-3.3-7.3-3.3a11.91,11.91,0,0,0-4.9.9,8.13,8.13,0,0,0-3.1,2.3,7.45,7.45,0,0,0-1.6,3.2,15.81,15.81,0,0,0-.4,3.8,13.18,13.18,0,0,0,1.7,6.8c1.1,1.8,3.6,3.5,7.3,5.1l13.5,5.8a47,47,0,0,1,8.2,4.6,24.61,24.61,0,0,1,5.1,5.1,16.13,16.13,0,0,1,2.6,6,32.9,32.9,0,0,1,.7,7.3c0,9.2-2.7,15.9-8,20s-12.7,6.3-22.2,6.3c-9.9,0-17-2.1-21.2-6.5s-6.4-10.5-6.4-18.5V169h17.5v2.4Z"/></g></g></svg>