<svg xmlns="http://www.w3.org/2000/svg" viewBox="0 0 421 421"><defs><style>.cls-1{fill:#fff;}</style></defs><g id="Layer_2" data-name="Layer 2"><g id="Layer_1-2" data-name="Layer 1"><g id="Layer_2-2" data-name="Layer 2"><g id="Layer_1-2-2" data-name="Layer 1-2"><path class="cls-1" d="M210.5,421C326.76,421,421,326.76,421,210.5S326.76,0,210.5,0,0,94.24,0,210.5,94.25,421,210.5,421"/><path d="M165.16,385.93A4.49,4.49,0,0,1,163.9,387a5.29,5.29,0,0,1-3.34.54,4.56,4.56,0,0,1-1.56-.81,4.49,4.49,0,0,1-1.08-1.26,4.11,4.11,0,0,1-.54-1.6,4.25,4.25,0,0,1,0-1.74,4.67,4.67,0,0,1,.78-1.56A4.57,4.57,0,0,1,161,379a4.43,4.43,0,0,1,4.39,2.19,5.07,5.07,0,0,1,.54,1.59,5.14,5.14,0,0,1,0,1.75,4.74,4.74,0,0,1-.81,1.56m32.4-4.78V381c-.57,0-2.13-.18-3.22-.33l-3.87-.57v.3a4.43,4.43,0,0,1,1.95,1.41c.6.78,1,1.83.66,5.23q-.21,2.28-.45,4.05a18.61,18.61,0,0,1-.48,3h0c-3-4.32-7.11-10.3-10.48-15.46h-.48a38.47,38.47,0,0,1-.36,3.9l-.48,3.61c-.21,1.71-.42,3.27-.54,3.93a16.27,16.27,0,0,1-.66,2.58,5,5,0,0,1-1,1.65,3.89,3.89,0,0,1-2,1.15v.3c.72,0,2.34.21,3.48.36l3.75.57v-.3a4.07,4.07,0,0,1-2.28-2.29,9.94,9.94,0,0,1-.45-4,14.46,14.46,0,0,1,.33-3.39c.33-1.59.3-2.16.54-3,3.28,4.69,6.61,9.34,9.49,14h.54l1.86.18,2.65.39V398a4.52,4.52,0,0,1-3-5.44c.33-2.52.6-4.71,1-6.81a5.79,5.79,0,0,1,1.66-3.49,3.77,3.77,0,0,1,1.68-.93m12,7.09h3c-.21.57-.51,1.26-.87,2l-2,4.3h0c-1-2.2-1.92-4.18-3-6.34h2.79m9-6.76v-.3h-6.91v.06a3.15,3.15,0,0,1,1.17.72,3,3,0,0,1,.78,2.08,9.6,9.6,0,0,1-.75,3.33h-6.21c-.39-.84-.75-1.68-1-2.46a6.1,6.1,0,0,1-.49-2,2.63,2.63,0,0,1,2-1.65v-.3h-8v.3a5.52,5.52,0,0,1,2.76,2.67,102,102,0,0,1,4.48,9.46c.78,1.75,1.53,3.52,2.28,5.32h.39c.27-.78.72-2,1.08-3l2.46-5.26A63.68,63.68,0,0,1,216,383.7a6.29,6.29,0,0,1,1.29-1.53,4.77,4.77,0,0,1,1.17-.75m9.76-.84v-.3l-4.33.36-3.93.18v.3a3.15,3.15,0,0,1,1.92,1.17,17,17,0,0,1,1.2,7.42,30.18,30.18,0,0,1,0,6,2.83,2.83,0,0,1-2.16,2.16v.3l4.17-.36,4.21-.21v-.27a3.4,3.4,0,0,1-2.4-1.17,14.17,14.17,0,0,1-1.18-6.67,40.93,40.93,0,0,1,0-5.86,3.28,3.28,0,0,1,.94-2.1,4.19,4.19,0,0,1,1.59-.87m2.46,4.18h.3a10.62,10.62,0,0,1,2.28-3.58,6.22,6.22,0,0,1,2.76-1.71,8.9,8.9,0,0,1,4.75,1.95,9,9,0,0,1,2.22,10.87,8.4,8.4,0,0,1-3.42,3.49,6.83,6.83,0,0,1-3.88-1.51,14.16,14.16,0,0,1-3.3-3.3h-.3c.63,2.16.87,3.76,1.35,5.14a13.83,13.83,0,0,0,5.8.15,9.43,9.43,0,0,0,6-3.58,9,9,0,0,0,1.68-6.93,8.15,8.15,0,0,0-3.75-5.65,9.36,9.36,0,0,0-6.67-1.29,15.36,15.36,0,0,0-6,2.16v3.76m24.89-9.46v-.27l-4.2,1.08c-1.17.3-3,.66-3.84.87v.3a3,3,0,0,1,2.1.84c.84.87,1.35,2.49,2.46,7.09a30.84,30.84,0,0,1,1.11,5.79,2.74,2.74,0,0,1-1.74,2.49v.3l4-1.08c1.35-.33,3-.69,4.12-.9v-.3a3.37,3.37,0,0,1-2.56-.72c-.93-.81-1.41-2.76-2.31-6.36a37.75,37.75,0,0,1-1.14-5.77,3.4,3.4,0,0,1,.54-2.22,4.41,4.41,0,0,1,1.44-1.14m14.3.84h.3a47.27,47.27,0,0,0-2.2-4.42,14.25,14.25,0,0,0-4.8.78,7.17,7.17,0,0,0-4.05,3,4.43,4.43,0,0,0-.42,3.69c.81,2.46,3,3,5.58,3.3a13,13,0,0,1,3.75.87,3,3,0,0,1,1.57,1.9,3.27,3.27,0,0,1-1.51,3.81,6.3,6.3,0,0,1-3.36-.84,11.87,11.87,0,0,1-3-2.16l-.27.15c.66,1.5,1.35,3.33,1.86,4.26a14.13,14.13,0,0,0,4.65-.72,6.52,6.52,0,0,0,3.61-2.58,4.71,4.71,0,0,0-1.86-6.67,13.5,13.5,0,0,0-4-1.11,10.59,10.59,0,0,1-3.69-1.11,2.3,2.3,0,0,1-.87-1.17,3.31,3.31,0,0,1,1.77-3.76,6.37,6.37,0,0,1,3.69.67,9.64,9.64,0,0,1,3.34,2.31m8.55-9.64a6.62,6.62,0,0,0-4,4.05,7.1,7.1,0,0,0,.33,4.27c.18.57.48,1.32.75,2l.27.57a23.84,23.84,0,0,1,1.71,5.07,4.93,4.93,0,0,1,0,2.53,4.07,4.07,0,0,1-.81,1.29l.18.27,3-1.41,3.39-1.42v-.27a4.18,4.18,0,0,1-2.61-.57,7.39,7.39,0,0,1-2.47-2.82,32.51,32.51,0,0,1-1.53-3,18.88,18.88,0,0,1-.87-2.31,5.27,5.27,0,0,1,0-3.67,5.48,5.48,0,0,1,2.67-2.49,5.21,5.21,0,0,1,3.58-.33,4.68,4.68,0,0,1,2.58,2.31,22.36,22.36,0,0,1,1.14,2.43l.69,1.6a24.59,24.59,0,0,1,1.38,3.51,3.7,3.7,0,0,1,0,2.28,4.27,4.27,0,0,1-1.2,1.59l.15.27,4-1.83,3.87-1.62v-.27a4.42,4.42,0,0,1-2.19-.27,3.77,3.77,0,0,1-1.8-1.77,36.89,36.89,0,0,1-1.75-3.64c-.57-1.26-1.08-2.61-1.41-3.3a6,6,0,0,0-3.57-3.45,7.59,7.59,0,0,0-5.26.51m29.61-15.35-.18-.24c-.57.36-1.74,1.14-2.55,1.63l-3.39,1.95v.27a3.16,3.16,0,0,1,2.52,0A7,7,0,0,1,307,357.4c.27.39.54.78.75,1.14,1.08,1.83,2.22,3.81,3.64,6.52h0c-1.69-1-3-2-4.87-3a80.13,80.13,0,0,1-6.73-4.89l-.27.18a32.75,32.75,0,0,0,.58,3.81l1,5.59a41.61,41.61,0,0,1,.63,4.71h0a27.43,27.43,0,0,1-1.78-2.49c-.84-1.26-2.07-3-3-4.47a10.42,10.42,0,0,1-1.59-3.55,2.46,2.46,0,0,1,.93-2.34l-.18-.24-3.48,2.16c-1,.6-2.76,1.59-3.37,1.92v.3a2.6,2.6,0,0,1,2.74.49,21,21,0,0,1,3.21,4c1.05,1.53,2,3,2.73,4.26l.42.72a4.5,4.5,0,0,1,.78,2.32,3.54,3.54,0,0,1-1.17,2.4l.18.24a21,21,0,0,1,2.05-1.32c.93-.57,2-1.11,2.49-1.41s.27-.24.24-.45c-.24-1.78-.72-4.33-1.26-7.36l-.93-5.17,5.19,3.49c2.31,1.59,4.54,3,6,3.93l.42-.18c.24-.15.75-.51,2.07-1.32L317,365.9v-.27a5.16,5.16,0,0,1-2.55.36,4.14,4.14,0,0,1-2.07-1.2,13.81,13.81,0,0,1-1.29-1.84c-.88-1.47-1.69-3-2.32-4.32a10.12,10.12,0,0,1-1.5-5.16,3.52,3.52,0,0,1,.87-2m11.59,6.31-1.2-6.73L312,348l2.61-2.07,3.93,2-1.05-4.29,2.61-2.08,1.3,7.09,5.91,2.61-2.58,2.05-3.66-1.87,1,4Zm18.38-32.85-.24-.18c-.39.42-1.44,1.56-2.22,2.34s-2.46,2.4-2.79,2.76l.18.21a4.4,4.4,0,0,1,2.31-.69c1,0,2.07.33,4.56,2.65,1.11,1,2.14,2,3,2.82a26.36,26.36,0,0,1,2,2.16h0c-5.32,0-12.49-.57-18.65-1l-.27.36c.87.78,1.89,1.71,3,2.67l2.59,2.55c1.23,1.21,2.34,2.32,2.82,2.83a15.05,15.05,0,0,1,1.62,2.1,5,5,0,0,1,.75,1.77,3.73,3.73,0,0,1-.33,2.28l.24.21c.48-.54,1.59-1.74,2.4-2.55s2.07-2,2.7-2.64l-.18-.24a4,4,0,0,1-3.18.42,9.85,9.85,0,0,1-3.48-2.07c-.69-.6-1.35-1.2-2.49-2.32a24,24,0,0,1-2.17-2.34c5.71.24,11.41.42,16.91,1a3.94,3.94,0,0,0,.45-.36l1.26-1.35c.63-.66,1.38-1.35,1.92-1.89l-.18-.21a5,5,0,0,1-2.22.75,4.88,4.88,0,0,1-3.84-1.74c-1.83-1.8-3.4-3.33-4.81-5a6,6,0,0,1-1.77-3.45,3.81,3.81,0,0,1,.3-1.89m12.85-5c.63-.78,1.42-1.74,1.93-2.31.3.54.66,1.2,1,1.92l2.1,4.3h0c-2.37-.57-4.48-1.08-6.76-1.71.51-.69,1.11-1.45,1.74-2.23m.24-11.14-.24-.18-1.77,2.26-2.46,3,.21.21a2.74,2.74,0,0,1,1.29-.48,3,3,0,0,1,2.07.66,11,11,0,0,1,2.17,2.67c-.55.72-1.3,1.62-2,2.58s-1.41,1.75-2,2.44c-.87-.24-1.74-.45-2.55-.72a6.84,6.84,0,0,1-1.86-.91,2.59,2.59,0,0,1,0-2.61l-.24-.15c-.84,1-1.89,2.43-2.53,3.18l-2.49,3,.24.21a5.56,5.56,0,0,1,3.82-.51c2.07.27,6.6,1.44,10.18,2.4,1.86.48,3.69,1,5.58,1.53l.21-.3c-.45-.72-1.11-1.8-1.59-2.7l-2.58-5.17a67.25,67.25,0,0,1-3-7.05,8.45,8.45,0,0,1-.39-2,5.31,5.31,0,0,1,0-1.38m5.11-8.4h-.27c-.45.72-1.56,2.52-2.34,3.66l-2.23,3.27.24.18a3,3,0,0,1,2.11-.81c1.2,0,2.7.93,6.6,3.51a28.93,28.93,0,0,1,4.81,3.49,2.77,2.77,0,0,1,.42,3h.27l2.22-3.54c.78-1.17,1.83-2.65,2.37-3.46l-.21-.18a3.41,3.41,0,0,1-2.37,1.21c-1.23,0-3-1-6-3a37,37,0,0,1-4.74-3.42,3.34,3.34,0,0,1-1.14-2,4.58,4.58,0,0,1,.3-1.8m4.89.63.21-.24a10.65,10.65,0,0,1-1.47-4,6.05,6.05,0,0,1,.3-3.21A8.87,8.87,0,0,1,365,291a9,9,0,0,1,10,4.8,8.31,8.31,0,0,1,.69,4.84,6.89,6.89,0,0,1-3.58,2.16,13.45,13.45,0,0,1-4.59.63v.33c2.1.81,3.51,1.56,4.89,2a13.56,13.56,0,0,0,3.64-4.53,9.68,9.68,0,0,0,.81-7,8.7,8.7,0,0,0-4.51-5.5,8.21,8.21,0,0,0-6.81-.57,9.46,9.46,0,0,0-5.08,4.54,15.46,15.46,0,0,0-1.83,6c.75.66,2.25,1.75,3,2.32m7.63-25.35H369l-1.68,4c-.48,1.11-1.23,2.67-1.65,3.6H366a3,3,0,0,1,1.92-1.14,17.67,17.67,0,0,1,7.12,2.34,30.91,30.91,0,0,1,5.31,2.64,3,3,0,0,1,.93,3h.27l1.62-3.88c.57-1.26,1.36-3,1.75-3.81h-.24a3.36,3.36,0,0,1-2.14,1.59c-1.23.27-3-.51-6.45-2a43.08,43.08,0,0,1-5.29-2.58,3.49,3.49,0,0,1-1.44-1.81,5.12,5.12,0,0,1,0-1.83m9.43-10.78v-.33c-1.86-.39-3.87-.9-4.8-1a14.08,14.08,0,0,0-2.35,4.32,7.29,7.29,0,0,0,0,5,4.34,4.34,0,0,0,2.68,2.58c2.43.87,4.23-.72,6-2.43a12.83,12.83,0,0,1,3-2.4,3,3,0,0,1,2.47,0,3.28,3.28,0,0,1,2.1,3.48,6,6,0,0,1-2.73,2.16,11.55,11.55,0,0,1-3.58,1.11v.33c1.59.39,3.49,1,4.54,1.11a14,14,0,0,0,1.29-4.53,6.61,6.61,0,0,0,.15-4.41,4.55,4.55,0,0,0-3-2.8,4.65,4.65,0,0,0-3.55.21,13.62,13.62,0,0,0-3.3,2.5,10.83,10.83,0,0,1-3,2.25,2,2,0,0,1-1.45,0,3.28,3.28,0,0,1-1.92-3.66,6.53,6.53,0,0,1,2.8-2.53,9.56,9.56,0,0,1,3.87-1.23m-2.4-12.67a6.47,6.47,0,0,0,.75,5.64,7.24,7.24,0,0,0,3.54,2.38l2,.57h.63a22.6,22.6,0,0,1,5.05,1.77,5,5,0,0,1,1.92,1.62,4.12,4.12,0,0,1,.54,1.44h.3c.15-.6.45-2,.75-3.24s.81-3,1-3.51h-.27a4.62,4.62,0,0,1-2.07,1.74,7.82,7.82,0,0,1-3.72.18,15.55,15.55,0,0,1-3.37-.66,21.14,21.14,0,0,1-2.37-.72,4.73,4.73,0,0,1-3.12-6,4.94,4.94,0,0,1,1.89-3,4.58,4.58,0,0,1,3.42-.6,12.33,12.33,0,0,1,2.62.57l1.68.42a29,29,0,0,1,3.63,1.08,3.68,3.68,0,0,1,1.8,1.38,4.2,4.2,0,0,1,.54,2h.3c.24-1.08.54-2.55,1-4.26s.79-3,1.09-4h-.27a4.46,4.46,0,0,1-1.57,1.6,3.73,3.73,0,0,1-2.52.33,37.19,37.19,0,0,1-3.93-.87l-3.46-.91a6,6,0,0,0-4.92.7,7.39,7.39,0,0,0-2.82,4.47m6-32.79h-.21c0,.66-.21,2.07-.33,3s-.45,3-.57,3.84h.3a3.43,3.43,0,0,1,1.62-1.95,7.75,7.75,0,0,1,3.31-.39H387c2.1.27,4.35.63,7.32,1.17h0c-1.8.72-3.54,1.24-5.49,1.87-3.33,1-6,1.83-8,2.25v.33a36.12,36.12,0,0,0,3.37,1.92l5,2.67a37.6,37.6,0,0,1,4.11,2.43h0a21.54,21.54,0,0,1-3-.15c-1.5,0-3.75-.33-5.28-.51a10.28,10.28,0,0,1-3.73-1,2.43,2.43,0,0,1-1.29-2.16h-.3c0,1-.3,2.82-.45,4.09s-.48,3.15-.57,3.84h.33a2.6,2.6,0,0,1,2.07-1.86,21.29,21.29,0,0,1,5.17,0,39.1,39.1,0,0,1,5,.51h.84a4.55,4.55,0,0,1,2.28.84,3.47,3.47,0,0,1,1.15,2.4h.3a8.89,8.89,0,0,1,.24-2.43,19.51,19.51,0,0,0,.42-2.82c.06-.58,0-.36-.18-.45-1.53-.94-3.85-2.14-6.58-3.61l-4.71-2,6-1.89c2.64-.87,5.26-1.62,6.7-2.19a.86.86,0,0,0,0-.45,13.14,13.14,0,0,1,.27-2.44,24.57,24.57,0,0,1,.45-3h-.3a4.84,4.84,0,0,1-1.29,2.19,4,4,0,0,1-2.23.9,10.58,10.58,0,0,1-2.25,0c-1.68-.21-3.39-.54-4.8-.84a10.15,10.15,0,0,1-5-2,3.57,3.57,0,0,1-1-1.92m9.67-20.48a4.9,4.9,0,0,1,1.44.87,4.25,4.25,0,0,1,1,1.35,4.62,4.62,0,0,1,.42,1.71,4,4,0,0,1-.27,1.71,4.26,4.26,0,0,1-2.22,2.44,5.05,5.05,0,0,1-1.71.42,4.75,4.75,0,0,1-1.71-.27,4.22,4.22,0,0,1-1.44-.9,3.7,3.7,0,0,1-1-1.36,4.38,4.38,0,0,1-.42-1.68,4.32,4.32,0,0,1,.27-1.74,4.35,4.35,0,0,1,2.22-2.4,4.22,4.22,0,0,1,1.71-.42,4.15,4.15,0,0,1,1.71.27m-7.18-13.45v-.33a10.91,10.91,0,0,1-3.63-2.2,6.13,6.13,0,0,1-1.74-2.7,8.79,8.79,0,0,1,12.64-7.3,8.49,8.49,0,0,1,3.58,3.34,7,7,0,0,1-1.45,3.93,14,14,0,0,1-3.12,3.12v.3c2.16-.69,3.75-1,5.14-1.47a14.12,14.12,0,0,0,0-5.79,9.67,9.67,0,0,0-3.73-6,9,9,0,0,0-7-1.5,8.41,8.41,0,0,0-5.71,3.84,9.41,9.41,0,0,0-1.11,6.7,15.38,15.38,0,0,0,2.31,5.83h3.75m-10-24.54h-.27c.24.81.84,2.83,1.2,4.18s.72,2.82,1,3.81h.27a3.23,3.23,0,0,1,.78-2.1c.87-.87,2.49-1.41,7-2.61a32.87,32.87,0,0,1,5.8-1.3,3,3,0,0,1,2.55,1.69h.27c-.33-1.05-.81-2.71-1.17-4s-.75-3-1-4.08h-.3a3.25,3.25,0,0,1-.66,2.58c-.78.93-2.7,1.47-6.28,2.46a35.09,35.09,0,0,1-5.73,1.26,2.94,2.94,0,0,1-2.13-.54,4.33,4.33,0,0,1-1.17-1.38m.45-14.29-.15-.3c-1.72.87-3.58,1.74-4.36,2.28a14.17,14.17,0,0,0,.93,4.81,7.06,7.06,0,0,0,3,4,4.46,4.46,0,0,0,3.69.33c2.43-.87,2.82-3.24,3-5.68a12.07,12.07,0,0,1,.78-3.75,3,3,0,0,1,1.86-1.62,3.25,3.25,0,0,1,3.85,1.38,6.46,6.46,0,0,1-.78,3.42,12.58,12.58,0,0,1-2,3l.15.3c1.47-.72,3.3-1.47,4.2-2a14.81,14.81,0,0,0-.84-4.66,6.63,6.63,0,0,0-2.67-3.51,4.68,4.68,0,0,0-6.42,1.65c-.07.12-.13.24-.19.36a13.36,13.36,0,0,0-1,4,10.12,10.12,0,0,1-1,3.73,2,2,0,0,1-1.14.9,3.27,3.27,0,0,1-3.79-1.65,6.32,6.32,0,0,1,.57-3.73,9.29,9.29,0,0,1,2.23-3.36m-9.76-8.26a6.53,6.53,0,0,0,4.14,3.87,7.07,7.07,0,0,0,4.26-.42l1.93-.84.57-.27a22.78,22.78,0,0,1,5-1.83,5.12,5.12,0,0,1,2.52,0,3.57,3.57,0,0,1,1.33.78l.27-.18c-.3-.54-1-1.86-1.48-3s-1.23-2.76-1.5-3.33h-.27a4.26,4.26,0,0,1-.51,2.64,7.94,7.94,0,0,1-2.76,2.52c-.87.51-2,1.14-3,1.62a23.86,23.86,0,0,1-2.29.93,5,5,0,0,1-3.66,0,5.27,5.27,0,0,1-2.55-2.61,5.12,5.12,0,0,1-.45-3.54,4.59,4.59,0,0,1,2.25-2.64,26.73,26.73,0,0,1,2.4-1.21l1.59-.75A36.8,36.8,0,0,1,376,128.4a4,4,0,0,1,2.28,0,4.12,4.12,0,0,1,1.62,1.17l.24-.18c-.48-1-1.17-2.31-1.92-3.9l-1.71-3.81h-.27a4.54,4.54,0,0,1-.21,2.22,3.8,3.8,0,0,1-1.71,1.83,34.91,34.91,0,0,1-3.61,1.83c-1.26.6-2.58,1.17-3.27,1.47a6,6,0,0,0-3.36,3.7,7.48,7.48,0,0,0,.66,5.25m-16.13-29.19-.24.18,1.68,2.5c.57.9,1.53,2.55,2,3.33h.27a3.51,3.51,0,0,1,0-2.55,7.88,7.88,0,0,1,2.26-2.41l1.14-.75c1.8-1.17,3.75-2.34,6.39-3.81h0c-1,1.71-1.95,3.21-3,4.92a74.74,74.74,0,0,1-4.71,6.85l.21.3a34.85,34.85,0,0,0,3.78-.69l5.56-1.14a37,37,0,0,1,4.68-.72h0a31.46,31.46,0,0,1-2.31,2.31c-1.23.87-3,2.13-4.42,3a10.74,10.74,0,0,1-3.48,1.66,2.51,2.51,0,0,1-2.37-.85l-.24.19c.54.81,1.59,2.34,2.25,3.39l2,3.33h.3a2.66,2.66,0,0,1,.39-2.76,22.23,22.23,0,0,1,4-3.3c1.5-1.12,3-2,4.2-2.83l.69-.45a4.51,4.51,0,0,1,2.31-.84,3.51,3.51,0,0,1,2.41,1.11l.24-.18c-.42-.54-.93-1.32-1.39-2l-1.47-2.46c-.15-.21-.24-.27-.42-.24-1.8.3-4.32.84-7.35,1.44l-5.14,1,3.36-5.25c1.51-2.35,3-4.6,3.76-6a.71.71,0,0,0-.18-.42l-1.35-2c-.33-.48-1.42-2.25-1.6-2.61h-.27a5,5,0,0,1,.39,2.52,3.65,3.65,0,0,1-1.14,2.1A10.32,10.32,0,0,1,360,106c-1.44.9-3,1.77-4.23,2.43a10.32,10.32,0,0,1-5.14,1.62,3.32,3.32,0,0,1-2-.81m-15.31-18-.21.21c.6.63,1.86,2,2.76,3l5.16,6,1.24,1.32c1.08-.57,2.49-1.59,4-2.44l-.15-.27a8.73,8.73,0,0,1-3.6,0,8,8,0,0,1-3-1.23,3.8,3.8,0,0,1-1-2,3,3,0,0,1,1.11-2.49,38.4,38.4,0,0,1,3.4-3l.24-.21a7.49,7.49,0,0,1,1,1q.57.66,1.08,1.38a3,3,0,0,1,.6,1.86,3.92,3.92,0,0,1-.36,1.47l.24.21,1.68-1.47c.6-.54,1.41-1.17,1.92-1.56v-.27a2.71,2.71,0,0,1-1.86.15,2.92,2.92,0,0,1-1.38-.75c-.33-.3-.75-.81-1.2-1.32l-1-1.14.3-.27c1.32-1.15,3.81-3.25,5.49-4.39a6.6,6.6,0,0,1,.93.9A7,7,0,0,1,352,89.91a9.94,9.94,0,0,1-.48,3.42l.24.18a30,30,0,0,0,3-3.33c-.33-.45-.81-1.06-1.47-1.81s-2.47-2.73-4.75-5.37c-.42-.48-2.25-2.55-2.73-3.21l-.24.18a8,8,0,0,1,.63,1.32,2.54,2.54,0,0,1,0,1.59,5,5,0,0,1-1.5,2c-.84.84-2,1.89-3.37,3l-.93.81c-.69.6-1.77,1.48-2.28,1.87a5.49,5.49,0,0,1-2.7,1.32,3.93,3.93,0,0,1-2.22-.78M328,74.5l.36-.42a69,69,0,0,1,5-5,6.37,6.37,0,0,1,1.14.87,4.69,4.69,0,0,1,1.5,3,3.82,3.82,0,0,1-1,3,5.59,5.59,0,0,1-3.36,2,5.73,5.73,0,0,1-.73-.57,22.64,22.64,0,0,1-2.79-3M317.91,77l-.18.24L320.88,80l3.88,3.57.24-.24a4.61,4.61,0,0,1-1.2-2,3,3,0,0,1,.72-2.8c.72-1,1.65-2,2.52-3l.42-.51,1.86,1.74a29,29,0,0,0-1,7.24,7.27,7.27,0,0,0,.51,2.73,5.07,5.07,0,0,0,1.44,2,7.45,7.45,0,0,0,2.44,1.51v-.24l-.39-.3a8.51,8.51,0,0,1-1.21-4.39,29,29,0,0,1,.49-6.76,5.4,5.4,0,0,0,6-1.17,3.34,3.34,0,0,0,.69-3.39,9.43,9.43,0,0,0-3-4.2l-3.39-3-3-2.64-.21.18a6.09,6.09,0,0,1,.78,1.23,2.73,2.73,0,0,1,.24,1.59,5.06,5.06,0,0,1-1.23,2.23c-.72.93-1.77,2.13-3,3.45l-.84,1c-.6.66-1.56,1.65-2,2.1a5.43,5.43,0,0,1-2.53,1.65,3.82,3.82,0,0,1-2.31-.51m-7.93-6a8.79,8.79,0,0,1,0-10.48,8,8,0,0,1,9-3.61,8.05,8.05,0,0,1,0,10.33A8.38,8.38,0,0,1,310.13,71m-.66.33a9.06,9.06,0,0,0,4.18,1.41,8.75,8.75,0,0,0,8.11-3.9,8.54,8.54,0,0,0,1.5-7,8.71,8.71,0,0,0-3.64-4.75,9.19,9.19,0,0,0-4.92-1.74,8.75,8.75,0,0,0-7.78,4,8.29,8.29,0,0,0-1.32,7,9.45,9.45,0,0,0,3.69,5.35M281.64,54.74V55c.6.3,1.89.9,2.7,1.35s2.58,1.44,3.42,1.87V58a3.43,3.43,0,0,1-1.23-2.23,7.35,7.35,0,0,1,.78-3.18c.21-.45.39-.87.6-1.23,1-1.89,2.11-3.87,3.67-6.49h0a54.66,54.66,0,0,1-.21,5.8,53.11,53.11,0,0,1-.51,8.32l.33.18a31,31,0,0,0,3-2.5l4.26-3.72a34.72,34.72,0,0,1,3.73-3h0a24.11,24.11,0,0,1-1.2,2.82c-.63,1.38-1.63,3.42-2.35,4.74a10.61,10.61,0,0,1-2.19,3.19,2.46,2.46,0,0,1-2.49.45v.27l3.63,1.83L301,65.13v-.27a2.59,2.59,0,0,1-1-2.58,22.63,22.63,0,0,1,1.83-4.84c.78-1.71,1.56-3.27,2.25-4.56l.39-.75A4.84,4.84,0,0,1,306,50.27a3.63,3.63,0,0,1,2.67-.21v-.27l-2.19-1.08L304,47.29h-.48c-1.41,1.12-3.33,3-5.68,4.9l-3.93,3.45.3-6.24c0-2.8.36-5.5.33-7.06l-.27-.3L292.06,41l-2.71-1.5-.15.24a4.9,4.9,0,0,1,1.6,2,3.93,3.93,0,0,1,0,2.4,14.71,14.71,0,0,1-.9,2.07c-.79,1.51-1.72,3-2.47,4.21a10,10,0,0,1-3.66,4,3.58,3.58,0,0,1-2.16.3m-26.37-9.43v.3l4.15,1.29,3.75,1.33v-.27A3.46,3.46,0,0,1,261.85,46a14.47,14.47,0,0,1,1.35-6.54v-.33L267,40.39l3.79,1.26-.39,1.26a34.45,34.45,0,0,1-1.29,3.48,4.17,4.17,0,0,1-1.39,1.72,3.64,3.64,0,0,1-2.19.51v.3l3.94,1.23,3.72,1.32.09-.42A2.94,2.94,0,0,1,272,49.67a4.15,4.15,0,0,1,0-2.1c0-.85.81-3,1.83-6,.57-1.74,1.05-3,1.47-4A4.06,4.06,0,0,1,276.41,36a3.58,3.58,0,0,1,2.22-.63v-.3l-3.78-1.17-3.6-1.29v.27a3.87,3.87,0,0,1,1.26,1.89,8.22,8.22,0,0,1-.78,4.45L271.16,41l-3.91-1.23-3.78-1.26.21-.63a22.77,22.77,0,0,1,1.8-4.6,3,3,0,0,1,2.73-1.32v-.27l-3.87-1.23c-1.35-.42-3-1.08-4-1.38v.27a3.27,3.27,0,0,1,1.8,2,14.14,14.14,0,0,1-1.41,6.61,39.91,39.91,0,0,1-2.07,5.49A3.31,3.31,0,0,1,257,45a3.93,3.93,0,0,1-1.8.18m-13.3-3v.27l4.23.9,4.21,1v-.27a3,3,0,0,1-1.86-1.77,4.05,4.05,0,0,1-.15-1.62,46.44,46.44,0,0,1,1.11-5.83c.27-1.17.63-2.85,1-4.11s.57-2.34.81-3l1.44.27a5.37,5.37,0,0,1,2.07,2.13A13.61,13.61,0,0,1,256,33h.3c.24-2.19.45-3.15.57-4.62a14.56,14.56,0,0,0-1.59-.48l-5.34-1.14-5.17-1.21a13.58,13.58,0,0,0-1.8-.33c-.54,1.39-.75,2.32-1.5,4.39h.3a14.05,14.05,0,0,1,2.31-2,5,5,0,0,1,2.79-1,10.9,10.9,0,0,1,1.36.36c-.18,1.2-.36,2-.63,3.39s-.61,3-.88,4.05A34.69,34.69,0,0,1,245.15,40a3.16,3.16,0,0,1-1.5,1.77,4.51,4.51,0,0,1-1.77.39m-13.21-1.86v.3c.84,0,3,.3,4.29.48l3.91.57v-.3a3,3,0,0,1-1.63-1.53,17.17,17.17,0,0,1,.24-7.48,27.3,27.3,0,0,1,1-5.82A3,3,0,0,1,239,24.8v-.15l-4.15-.48-4.17-.6v.3a3.23,3.23,0,0,1,2.13,1.59,14.05,14.05,0,0,1,0,6.76,40.87,40.87,0,0,1-1,5.8,3.43,3.43,0,0,1-1.32,1.89,4.65,4.65,0,0,1-1.74.54m-19.52-.39h.33c.3-.84.81-2,1.14-3l2.34-5.14c.42-1,.81-1.92,1.2-3,.72,1.86,1.54,4.14,2.2,6s1.29,3.58,1.86,5.35h.36c.27-.84.78-2,1.14-3l2.37-5.05a68.14,68.14,0,0,1,3-6.64A8.75,8.75,0,0,1,226.63,24a4.17,4.17,0,0,1,1.2-.72V23H225l-3.81-.18v.3a3.43,3.43,0,0,1,1.17.78,2.65,2.65,0,0,1,.69,2,16.61,16.61,0,0,1-1.68,6L219.48,36h0c-.57-1.83-1.32-3.93-2.16-6.21-.36-1.05-.75-2.28-1-3.3a5.39,5.39,0,0,1-.27-2c0-.81,1.11-1.35,2.13-1.62v-.3h-3.94l-3.51-.18v.33a4.4,4.4,0,0,1,2.16,2.52c.24.57.54,1.36.87,2.26a17.52,17.52,0,0,1-1.35,4.11l-1.86,4.17h0c-.57-1.92-1.32-4.05-2.13-6.3-.39-1.08-.75-2.19-1.05-3.22a6.66,6.66,0,0,1-.36-2,2.34,2.34,0,0,1,1.86-1.65v-.3h-3.91l-3.72-.24v.3a5.27,5.27,0,0,1,2.4,2.7c.9,1.81,2.56,6.16,3.79,9.58.63,1.77,1.26,3.55,1.83,5.35m-27.72-6v-.81c-.21-1.62-.39-3-.54-4.56a16.83,16.83,0,0,1-.15-3,6.68,6.68,0,0,1,1.53-.36A8.27,8.27,0,0,1,187.62,27a8.31,8.31,0,0,1,2.64,5.16A7.45,7.45,0,0,1,185.58,41a3.33,3.33,0,0,1-1.6,0,2.06,2.06,0,0,1-1.35-1.11,31,31,0,0,1-1.2-5.8m-4.62,8.53v.3c1.08-.18,2.64-.45,4-.63,1.95-.27,3.61-.42,5.2-.63a9,9,0,0,0,5.19-2.79,8.79,8.79,0,0,0,2.16-7.48,8,8,0,0,0-3.6-5.68,10,10,0,0,0-6.58-1.2l-5,.78c-1.5.21-2.76.39-4,.48V26a4.71,4.71,0,0,1,2.37.61,3.21,3.21,0,0,1,1.14,2,45.64,45.64,0,0,1,.87,4.92v.75a32.34,32.34,0,0,1,.42,5.38,3.05,3.05,0,0,1-.87,2,3.51,3.51,0,0,1-1.38.78m-15.74,4v.27l4.21-1,7.77-1.83,1.75-.48c0-1.26-.24-3-.36-4.77h-.15A10.25,10.25,0,0,1,172.39,42a8.89,8.89,0,0,1-2.4,2.13,4.2,4.2,0,0,1-2.28,0c-.75-.27-1.23-.81-1.68-2.13a42.26,42.26,0,0,1-1.2-4.41l-.45-1.78a22,22,0,0,1-.87-4.83,3,3,0,0,1,2.07-2.67v-.27l-4.42,1.14L157,30v.27a3.35,3.35,0,0,1,2.55.72,13.83,13.83,0,0,1,2.25,6l.39,2c.21.87.48,2.22.6,2.85a5.46,5.46,0,0,1,0,3A3.66,3.66,0,0,1,161,46.48m-17.14-3-.18-.51a62.12,62.12,0,0,1-2.23-6.67,10.38,10.38,0,0,1,1.3-.63,4.77,4.77,0,0,1,3.45,0A3.88,3.88,0,0,1,148.37,38a5.69,5.69,0,0,1,.21,3.9l-.84.36a21.44,21.44,0,0,1-3.84,1.14M141.61,53.6v.24l3.85-1.53,4.95-1.8v-.33a4.64,4.64,0,0,1-2.34,0,3,3,0,0,1-2.16-1.92c-.51-1.09-1-2.41-1.5-3.61l-.27-.33c.6-.24,1.62-.57,2.4-.84a30.85,30.85,0,0,0,6,4.21,7.11,7.11,0,0,0,2.71.78,4.82,4.82,0,0,0,2.4-.36,8.36,8.36,0,0,0,2.46-1.45l-.18-.27a.84.84,0,0,1-.42.21,8.24,8.24,0,0,1-4.44-.93A27.94,27.94,0,0,1,149.33,42,5.49,5.49,0,0,0,151,36.21a3.47,3.47,0,0,0-2.7-2.19,9.64,9.64,0,0,0-5.16.87L139,36.57l-3.69,1.33v.27a5.78,5.78,0,0,1,1.44,0,2.72,2.72,0,0,1,1.53.51,5.11,5.11,0,0,1,1.41,2.1c.48,1.08,1.05,2.55,1.71,4.23l.45,1.17c.31.87.76,2.17.94,2.8a5.21,5.21,0,0,1,.3,3,3.92,3.92,0,0,1-1.51,1.83m-9,4.36a8.76,8.76,0,0,1-9.25-4.93,7.94,7.94,0,0,1,1.08-9.52,8,8,0,0,1,9,5,8.39,8.39,0,0,1-.87,9.49m0,.72a9.08,9.08,0,0,0,3.24-3,8.74,8.74,0,0,0,.45-9,8.5,8.5,0,0,0-5.41-4.65,8.61,8.61,0,0,0-6,.66,9.34,9.34,0,0,0-3.91,3.51,8.72,8.72,0,0,0-.18,8.71,8.24,8.24,0,0,0,5.47,4.51,9.39,9.39,0,0,0,6.46-.75M109.75,73.12l.27-.24c-.27-.84-.57-2.07-.87-3l-1.05-5.59c-.24-1-.51-2-.84-3,1.68,1.05,3.7,2.37,5.38,3.48s3.18,2,4.71,3.15l.27-.24c-.27-.84-.57-2.07-.87-3l-1.23-5.52a61.62,61.62,0,0,1-1.41-7.36,9.22,9.22,0,0,1,0-2.1,3.14,3.14,0,0,1,.54-1.29l-.21-.36c-.39.33-1.5,1.14-2.25,1.65l-3,2.19v.24a3.1,3.1,0,0,1,1.42,0,2.84,2.84,0,0,1,1.8,1.2,17.9,17.9,0,0,1,2.31,5.86l1,4.44h0c-1.56-1.14-3.42-2.34-5.44-3.66-1-.63-2-1.35-3-2a5.76,5.76,0,0,1-1.41-1.42c-.42-.69,0-1.77.72-2.58l-.18-.24L103.24,56l-3,2,.18.24a4.48,4.48,0,0,1,3.24.72c.54.3,1.23.75,2,1.26a19.2,19.2,0,0,1,1.41,4.11l1.2,4.69h0c-1.62-1.21-3.48-2.44-5.49-3.76A30,30,0,0,1,100,63.39,7.59,7.59,0,0,1,98.55,62,2.35,2.35,0,0,1,99,59.61l-.18-.24-3.18,2.31c-1.08.78-2.55,1.77-3,2l.21.24a5.24,5.24,0,0,1,3.54.72c1.8.9,5.74,3.36,8.77,5.35,1.56,1,3,2.07,4.68,3.18M85.64,93.42l.24.18c.6-.63,2-1.95,3-3,1.51-1.48,3.82-3.64,5.74-5.5l1.29-1.29c-.63-1-1.74-2.4-2.67-3.84l-.15.21a8.94,8.94,0,0,1,0,3.57,8.26,8.26,0,0,1-1.08,3,3.86,3.86,0,0,1-1.92,1.11,3,3,0,0,1-2.53-1c-1.08-1-2.25-2.16-3.27-3.21l-.21-.24a11.25,11.25,0,0,1,.93-1,14.54,14.54,0,0,1,1.35-1.14,3,3,0,0,1,1.8-.69,4.85,4.85,0,0,1,1.51.27l.21-.24c-.39-.36-1-1-1.57-1.59s-1.26-1.36-1.65-1.87l-.27.18a3,3,0,0,1,.27,1.84A3.33,3.33,0,0,1,86,80.57c-.3.36-.78.81-1.26,1.29L83.6,82.94l-.27-.3a64.61,64.61,0,0,1-4.66-5.26,5,5,0,0,1,.85-1,7.19,7.19,0,0,1,3.87-1.62,9.86,9.86,0,0,1,3.42.33l.18-.24c-1.74-1.44-2.28-2.1-3.48-3a21.09,21.09,0,0,0-1.71,1.56l-5.17,5c-.45.45-2.43,2.38-3,3l.18.24A5.72,5.72,0,0,1,75.1,81a2.54,2.54,0,0,1,1.59,0,5,5,0,0,1,2.13,1.38c.88.81,2,1.92,3.25,3.21l.87.9c.63.66,1.56,1.68,2,2.19a5.2,5.2,0,0,1,1.44,2.65,3.63,3.63,0,0,1-.66,2.25m-13.6,16.18.24.18c.51-.66,1.8-2.34,2.67-3.42s1.89-2.25,2.55-3l-.21-.21a3.18,3.18,0,0,1-2.16.57c-1.23,0-2.61-1.14-5.61-3.57l-.27-.21c.78-1,1.65-2.11,2.49-3l2.52-3,1,.84a28.07,28.07,0,0,1,2.79,2.43,3.45,3.45,0,0,1,.85,4.12l.27.18,2.52-3.25,2.55-3-.21-.54a3,3,0,0,1-1.74.66,4.47,4.47,0,0,1-2-.63,57.68,57.68,0,0,1-5-3.87c-1.44-1.17-2.49-2-3.24-2.77A4.45,4.45,0,0,1,71,86.66a3.47,3.47,0,0,1,.21-2.31l-.3-.27c-.63.84-1.62,2.1-2.43,3l-2.47,3,.21.21a3.6,3.6,0,0,1,2.19-.51c.85.15,1.54.39,3.88,2.28l1.44,1.17c-.87,1.14-1.68,2.13-2.49,3l-2.52,3-.55-.15a27.22,27.22,0,0,1-3.66-3.3,3,3,0,0,1-.24-3L64,92.64c-.69.87-1.65,2.16-2.52,3.21s-2.07,2.46-2.7,3.21l.21.21a3.49,3.49,0,0,1,2.49-1c1.23,0,2.79,1.32,5.67,3.67a42.81,42.81,0,0,1,4.42,3.87,3.48,3.48,0,0,1,.93,2.13,4.92,4.92,0,0,1-.45,1.74m-7.45,11.42h.24c.45-.73,1.59-2.53,2.34-3.67s1.87-2.73,2.44-3.57l-.24-.18a3,3,0,0,1-2.29,1.11,4.22,4.22,0,0,1-1.59-.42,51.09,51.09,0,0,1-5-3c-1-.66-2.46-1.6-3.52-2.35s-2-1.38-2.67-1.86c0-.24.48-.81.75-1.26a5.06,5.06,0,0,1,2.7-1.17,12.66,12.66,0,0,1,3-.18l.15-.3c-2-1-2.79-1.5-4.15-2.13-.33.42-.66.9-1,1.47s-2,3-3,4.47-2.4,3.58-3,4.42a12.34,12.34,0,0,0-.93,1.56c1.11,1,1.89,1.53,3.57,3l.24-.24a12.37,12.37,0,0,1-1.08-3,5.28,5.28,0,0,1,0-3c.33-.52.66-.94.81-1.15,1.08.6,1.8,1.06,3,1.78l3.49,2.25a40.7,40.7,0,0,1,4.74,3.42,3.34,3.34,0,0,1,1.14,2,4.56,4.56,0,0,1-.27,1.8M52.07,145h.27c.36-.84,1.11-2.52,1.71-3.79.87-1.89,2.31-4.8,3.42-7.23.21-.42.61-1.32.73-1.65-1-.76-2.56-1.72-3.94-2.71l-.18.27a9.25,9.25,0,0,1,1.47,3.28,8.42,8.42,0,0,1,.15,3.24,4.14,4.14,0,0,1-1.41,1.77,3,3,0,0,1-2.73,0c-1.35-.48-2.85-1.2-4.21-1.83l-1.62-.75a25.66,25.66,0,0,1-4.35-2.34,3,3,0,0,1-.75-3.31h-.3c-.42,1-1.29,3-1.86,4.15s-1.41,3-1.84,3.78h.25A3.22,3.22,0,0,1,39,136.3a13.42,13.42,0,0,1,6,2l1.77.84c.85.39,2.08,1,2.62,1.32a5.78,5.78,0,0,1,2.31,2,4.06,4.06,0,0,1,.18,2.34m-5.47,15.28h.3c.27-.84.88-2.61,1.36-3.9.69-2,1.83-5,2.73-7.54.15-.45.45-1.38.54-1.71-1.05-.66-2.7-1.47-4.18-2.31l-.15.27a9.69,9.69,0,0,1,1.78,3,9,9,0,0,1,.45,3.21,4,4,0,0,1-1.23,1.9,2.87,2.87,0,0,1-2.71.24c-1.41-.36-3-.94-4.38-1.42l-1.68-.6a25.13,25.13,0,0,1-4.54-1.92,3,3,0,0,1-1.08-3.21h-.3c-.36,1-1,3-1.47,4.29s-1.14,3-1.47,4h.27a3.19,3.19,0,0,1,2-1.74A13.19,13.19,0,0,1,39,154.08l1.83.66,2.73,1a5.33,5.33,0,0,1,2.46,1.74,3.51,3.51,0,0,1,.39,2.31m-2.61,10h.27c.21-.81.72-2.85,1.11-4.2s.81-2.8,1.11-3.76h-.27a3,3,0,0,1-1.74,1.42,17.58,17.58,0,0,1-7.38-1.33,29.58,29.58,0,0,1-5.65-1.83A2.82,2.82,0,0,1,30,157.38h-.3c-.27,1.08-.69,2.73-1.05,4.05s-.93,3-1.2,4h.3a3.1,3.1,0,0,1,2.31-1.2,14.06,14.06,0,0,1,6.69,1.08,38.74,38.74,0,0,1,5.59,1.8A3.6,3.6,0,0,1,44,168.73a4.88,4.88,0,0,1,.3,1.77m-3.24,15.68h.27c.15-.87.48-2.71.75-4.06S43,178,43.18,177h-.33A4.36,4.36,0,0,1,41.74,179a3,3,0,0,1-2.76.81c-1.44-.18-3-.51-4.48-.78h-.21a9.34,9.34,0,0,1,.24-1.47,17.08,17.08,0,0,1,.45-1.74A3,3,0,0,1,36,174.17a4,4,0,0,1,1.42-.64v-.33l-2.2-.42c-.81-.15-1.8-.39-2.43-.57v.3a2.65,2.65,0,0,1,1.26,1.36,3,3,0,0,1,.24,1.56,13.59,13.59,0,0,1-.3,1.77l-.33,1.62h-.51a62.71,62.71,0,0,1-6.88-1.68,4.57,4.57,0,0,1,.19-1.53,8.22,8.22,0,0,1,5.28-5.35V170c-2.25-.18-3-.42-4.59-.45a18.31,18.31,0,0,0-.51,2.31c-.61,2.86-1,5.11-1.45,7.27a36.24,36.24,0,0,1-.87,4.2h.27a7.84,7.84,0,0,1,.66-1.29,2.8,2.8,0,0,1,1.24-1,5,5,0,0,1,2.55,0c1.17.18,2.73.45,4.5.81l1.23.24,2.86.69a5.44,5.44,0,0,1,2.67,1.35,4,4,0,0,1,.75,2.23M29.31,207.2a4.9,4.9,0,0,1-1.35-1,3.94,3.94,0,0,1-.9-1.42,4.46,4.46,0,0,1-.3-1.74,4.29,4.29,0,0,1,.42-1.68,4.51,4.51,0,0,1,1-1.38,4.9,4.9,0,0,1,1.44-.87,4.15,4.15,0,0,1,1.71-.3,4.59,4.59,0,0,1,1.71.39,4.71,4.71,0,0,1,1.35,1,4,4,0,0,1,.9,1.41,4,4,0,0,1,.27,1.74,3.73,3.73,0,0,1-.39,1.68,4.44,4.44,0,0,1-1,1.39A4.65,4.65,0,0,1,31,207.59a5,5,0,0,1-1.71-.39m-.24,29a8.15,8.15,0,0,1-3-.48,4.47,4.47,0,0,1-2-1.5A7.4,7.4,0,0,1,23.3,228,4.36,4.36,0,0,1,25,226a8.07,8.07,0,0,1,2.8-1.14q1.8-.39,3.63-.6a32.65,32.65,0,0,1,3.69-.24,8.12,8.12,0,0,1,3,.48,4.34,4.34,0,0,1,2,1.59,6.59,6.59,0,0,1,1,3,6.49,6.49,0,0,1-.27,3.24,4.19,4.19,0,0,1-1.8,1.92,8.5,8.5,0,0,1-2.77,1.14,32.46,32.46,0,0,1-3.66.6,32,32,0,0,1-3.66.24m6.24-4.2a7.68,7.68,0,0,0,2-.57,2.4,2.4,0,0,0,1-.87,2.61,2.61,0,0,0-.3-2.52,2.43,2.43,0,0,0-1.21-.6,7.18,7.18,0,0,0-2.07,0,14.25,14.25,0,0,0-3,.24c-1.17.24-2.16.27-3,.42a8.31,8.31,0,0,0-1.95.6,1.87,1.87,0,0,0-1.27,2.16,2.12,2.12,0,0,0,.48,1.2,2.34,2.34,0,0,0,1.24.63,9.93,9.93,0,0,0,2,0,14.25,14.25,0,0,0,3-.24l3-.45m-6.9,12a1.73,1.73,0,0,0-.54,1.8,1.62,1.62,0,0,0,.57,1,2.13,2.13,0,0,0,1.26.45,9.22,9.22,0,0,0,2.1,0,15.31,15.31,0,0,0,3-.51,25.84,25.84,0,0,0,3-.72,6.68,6.68,0,0,0,1.8-.78,1.54,1.54,0,0,0,.75-.87,2,2,0,0,0,0-1,3.19,3.19,0,0,0-.33-.84,1.45,1.45,0,0,0-.75-.54,3.78,3.78,0,0,0-1.41-.21,13,13,0,0,0-2.32.24l-.66-3.48a13.69,13.69,0,0,1,2.71-.27,6,6,0,0,1,2.37.39,4,4,0,0,1,1.77,1.38,6.43,6.43,0,0,1,1.08,2.7,6.83,6.83,0,0,1,0,3.24,4.37,4.37,0,0,1-1.47,2.11,8.35,8.35,0,0,1-2.7,1.35,31.64,31.64,0,0,1-3.58.87q-1.81.35-3.66.51a8,8,0,0,1-3-.27,4.39,4.39,0,0,1-1.77-1.32,6.94,6.94,0,0,1-1.27-3,6.09,6.09,0,0,1,0-3,4.08,4.08,0,0,1,1.24-1.92,5.3,5.3,0,0,1,1.92-1.08c.72-.21,1.38-.39,2-.51l.66,3.51a6.7,6.7,0,0,0-2.67,1m16.27,7,.78,3-3.72,1.05-.78-3Zm-.84,15a6.44,6.44,0,0,0,1-.42,1.9,1.9,0,0,0,.69-.63,1.5,1.5,0,0,0,.3-.84,3.29,3.29,0,0,0,0-1.17,2.54,2.54,0,0,0-1-1.23,2,2,0,0,0-1.77,0,4.1,4.1,0,0,0-.93.48,2,2,0,0,0-.57.75,4.35,4.35,0,0,0-.3,1.11v1.59a11.74,11.74,0,0,1-.18,2.22,6.17,6.17,0,0,1-.6,1.72A4.6,4.6,0,0,1,39.43,271a7.55,7.55,0,0,1-1.74.84,4.9,4.9,0,0,1-4.15-.18,6,6,0,0,1-2.46-3.43,7.67,7.67,0,0,1-.42-2.13,5,5,0,0,1,.27-1.92A3.92,3.92,0,0,1,32,262.69a5.72,5.72,0,0,1,1.92-1.05h.48l1,3.24a3.62,3.62,0,0,0-1.71,1,1.71,1.71,0,0,0-.18,1.62,2.82,2.82,0,0,0,.45.88,2.34,2.34,0,0,0,.63.45,1.75,1.75,0,0,0,.72,0h.75a2.71,2.71,0,0,0,1.21-.76,3.06,3.06,0,0,0,.51-1.74l.3-3a7,7,0,0,1,.36-1.86,4.64,4.64,0,0,1,.57-1.74,3,3,0,0,1,1-.87,5.3,5.3,0,0,1,1.38-.6,4.87,4.87,0,0,1,4.35.27,7.39,7.39,0,0,1,2.59,3.9,6.06,6.06,0,0,1,0,4.47,5.14,5.14,0,0,1-3.19,2.41l-.66.21-1.11-3.37Zm-7,9.58,2.37,5.83,3.84-1.56-2.25-5.47,2.7-1.11,2.22,5.47,4.39-1.81-2.49-6,2.7-1.08,3.69,9.22-16.27,6.66-3.73-9ZM41.17,293l-1.5-3.21,15.91-7.48,1.47,3Zm11.68,5.76a3.05,3.05,0,0,0-1.47-1.41,2.72,2.72,0,0,0-2.13.42,2.17,2.17,0,0,0-1.2,2.82,2,2,0,0,0,.3.52l.84,1.47L53.6,300Zm-7.42,2.47a4.74,4.74,0,0,1-.72-3.55,4.41,4.41,0,0,1,2.34-2.76,5.23,5.23,0,0,1,3-.78,3.34,3.34,0,0,1,2.34,1.2h0a3.3,3.3,0,0,1-.21-2.1,3.85,3.85,0,0,1,1.5-1.74l.9-.57,1.08-.69a18,18,0,0,0,1.8-1.18,1.4,1.4,0,0,0,.58-1.08h0l2,3a1.55,1.55,0,0,1-.57.72q-.39.32-.81.6l-3,1.74a2.75,2.75,0,0,0-1.17,1.26,1.9,1.9,0,0,0,.27,1.65l.93,1.65,6.49-3.66,1.74,3-15.31,8.65ZM61.56,317.4a8.29,8.29,0,0,1-2.85,1,4.73,4.73,0,0,1-2.59-.45,6.39,6.39,0,0,1-2.31-2.28,6.72,6.72,0,0,1-1.23-3,4.49,4.49,0,0,1,.57-2.56,7.63,7.63,0,0,1,2-2.28,36.46,36.46,0,0,1,3-2.22,31.7,31.7,0,0,1,3.18-1.89,7.42,7.42,0,0,1,2.85-.93,4,4,0,0,1,2.52.45A6.93,6.93,0,0,1,69,305.48a6.72,6.72,0,0,1,1.23,3A4.35,4.35,0,0,1,69.7,311a8.08,8.08,0,0,1-2,2.28,28.34,28.34,0,0,1-3,2.22,28.32,28.32,0,0,1-3.18,1.89m3.66-6.57a9.4,9.4,0,0,0,1.47-1.42,2.42,2.42,0,0,0,.54-1.26,2.21,2.21,0,0,0-.42-1.26,2.06,2.06,0,0,0-1-.84,2.39,2.39,0,0,0-1.35,0,7.43,7.43,0,0,0-1.86.84c-.72.39-1.56.93-2.55,1.59s-1.8,1.23-2.44,1.74a10.6,10.6,0,0,0-1.5,1.42,2.54,2.54,0,0,0-.54,1.26,2.29,2.29,0,0,0,.42,1.26,2.13,2.13,0,0,0,1,.84,2.2,2.2,0,0,0,1.39,0,9.15,9.15,0,0,0,1.86-.84c.72-.39,1.56-.93,2.55-1.59s1.8-1.23,2.46-1.74m-3.6,10.42,2.37,3,11.53-9L77.71,318l-11.53,9,2.38,3-2.29,1.78L59.34,323Zm21.44,10.39a8.6,8.6,0,0,0,.75-.85,2.09,2.09,0,0,0,.39-.84,2.27,2.27,0,0,0,0-.9,3,3,0,0,0-.63-1,2.38,2.38,0,0,0-1.38-.72,1.93,1.93,0,0,0-1.65.63,3,3,0,0,0-.66.81,2,2,0,0,0-.21.9,3.16,3.16,0,0,0,.21,1.14,13.75,13.75,0,0,0,.57,1.51,12.79,12.79,0,0,1,.75,2.1,5.44,5.44,0,0,1,0,1.8,3.87,3.87,0,0,1-.48,1.59,6.84,6.84,0,0,1-1.23,1.5,5,5,0,0,1-3.85,1.56A5.94,5.94,0,0,1,72,338.81a9.53,9.53,0,0,1-1.29-1.8,4.09,4.09,0,0,1-.54-1.83,3.81,3.81,0,0,1,.3-1.83,5.74,5.74,0,0,1,1.32-1.77l.36-.34,2.31,2.53a3.59,3.59,0,0,0-1.14,1.62,1.64,1.64,0,0,0,.51,1.56,3.25,3.25,0,0,0,.78.6,1.47,1.47,0,0,0,.78,0,1.13,1.13,0,0,0,.69-.21,3.59,3.59,0,0,0,.63-.45,2.44,2.44,0,0,0,.75-1.17,2.92,2.92,0,0,0-.24-1.77l-1-2.83a9.41,9.41,0,0,1-.45-1.83,4,4,0,0,1,0-1.47,3.18,3.18,0,0,1,.54-1.2,5.51,5.51,0,0,1,1-1.11A4.79,4.79,0,0,1,81.41,324a7.38,7.38,0,0,1,4,2.46,6,6,0,0,1,1.92,4A5.07,5.07,0,0,1,85.43,334l-.51.48-2.4-2.61Zm.84,14.14a1.71,1.71,0,0,0,.6,1.77,1.83,1.83,0,0,0,1,.51,2.67,2.67,0,0,0,1.29-.39,9.61,9.61,0,0,0,1.68-1.29,29.44,29.44,0,0,0,2.26-2.25,29,29,0,0,0,2.1-2.44,6,6,0,0,0,1-1.68,1.71,1.71,0,0,0,0-1.14,2.31,2.31,0,0,0-.57-.87,3,3,0,0,0-.75-.48,1.57,1.57,0,0,0-1,0,3.71,3.71,0,0,0-1.26.66,13.13,13.13,0,0,0-1.69,1.56L86,337.31a19.6,19.6,0,0,1,2-1.83,5.94,5.94,0,0,1,2.14-1.05,3.75,3.75,0,0,1,2.25,0A6.5,6.5,0,0,1,94.92,336a6.37,6.37,0,0,1,1.86,2.64,4.21,4.21,0,0,1,0,2.58,8.09,8.09,0,0,1-1.38,2.65,29.29,29.29,0,0,1-2.4,2.82,30.25,30.25,0,0,1-2.64,2.55,8.08,8.08,0,0,1-2.59,1.56,4.46,4.46,0,0,1-2.61,0,6.31,6.31,0,0,1-2.76-1.68,6,6,0,0,1-1.77-2.52,4.1,4.1,0,0,1,0-2.25,5.35,5.35,0,0,1,.9-1.95,13.52,13.52,0,0,1,1.32-1.6l2.58,2.44a6.49,6.49,0,0,0-1.59,2.34m9.34,12.22-2.76-2.22,11-13.7,2.76,2.26Zm16.72-3.21a6.73,6.73,0,0,0,.57-1,2.21,2.21,0,0,0,.22-.9,1.86,1.86,0,0,0-.28-.88,2.94,2.94,0,0,0-.81-.84,2.3,2.3,0,0,0-1.5-.45,2.08,2.08,0,0,0-1.5,1,2.63,2.63,0,0,0-.45.9,2,2,0,0,0,0,1,4.24,4.24,0,0,0,.39,1.08c.21.36.51.81.87,1.32a12,12,0,0,1,1.14,1.92,5.36,5.36,0,0,1,.51,1.74,3.83,3.83,0,0,1,0,1.65,6.17,6.17,0,0,1-.93,1.71,4.86,4.86,0,0,1-3.45,2.29,6,6,0,0,1-4-1.32,8.48,8.48,0,0,1-1.6-1.51,4.28,4.28,0,0,1-.9-1.68,3.9,3.9,0,0,1,0-1.86,5.07,5.07,0,0,1,1-2l.3-.39,2.74,2a3.75,3.75,0,0,0-.78,1.83,1.59,1.59,0,0,0,.78,1.41,2.31,2.31,0,0,0,.9.45,1.71,1.71,0,0,0,.78,0,1.53,1.53,0,0,0,.63-.33,3.25,3.25,0,0,0,.54-.57,2.61,2.61,0,0,0,.51-1.29,3,3,0,0,0-.57-1.71l-1.53-2.58a8,8,0,0,1-.78-1.71,5.09,5.09,0,0,1-.21-1.45,3.63,3.63,0,0,1,.3-1.29,6.67,6.67,0,0,1,.75-1.29,4.91,4.91,0,0,1,3.69-2.31,7.26,7.26,0,0,1,4.39,1.65,6.05,6.05,0,0,1,2.7,3.58,5.15,5.15,0,0,1-1.17,3.78l-.42.57-3-2.07Zm11.72,7.83c.21-.39.39-.75.54-1.11a3.3,3.3,0,0,0,.21-1,1.93,1.93,0,0,0-.24-.87,2,2,0,0,0-.75-.72,2.2,2.2,0,0,0-1-.33,1.93,1.93,0,0,0-.87.24,2.62,2.62,0,0,0-.75.66,7,7,0,0,0-.69,1l-6.24,10.54-3-1.8L115,358.48a6.57,6.57,0,0,1,1.83-2.13,4.53,4.53,0,0,1,1.95-.87,4.41,4.41,0,0,1,2,.18,9.84,9.84,0,0,1,1.93.87,12.75,12.75,0,0,1,1.71,1.23,4.72,4.72,0,0,1,1.14,1.62,4.41,4.41,0,0,1,.21,2.1,7.82,7.82,0,0,1-1.08,2.74l-6.25,10.54-3-1.81Zm10.51,19.16,3-12.31h0l-7.57,10.18-4.74-2.22,7.47-16,3,1.38-6,12.74h0L136.06,364l2.52,1.17-3,14.05h0l6-12.7,3,1.38-7.45,15.91Z"/><path d="M133.36,151.25,141,188.73h.18l7.66-37.48h15.86v53.12H154.8V161.94h0l-9.61,42.43h-8.35l-9.43-42.43h0v42.43h-10V151.25Z"/><path d="M182.15,188.31a24.84,24.84,0,0,0,.27,3.66,9.14,9.14,0,0,0,1,3,5.31,5.31,0,0,0,2,1.92,7.06,7.06,0,0,0,6.21,0,5.27,5.27,0,0,0,1.89-1.92,8.23,8.23,0,0,0,1-3,22.38,22.38,0,0,0,.27-3.66V151.25H205.4v37.06a21.63,21.63,0,0,1-1.42,8.35,13.43,13.43,0,0,1-3.81,5.25,12.88,12.88,0,0,1-5.43,2.61,28.54,28.54,0,0,1-6.31.66,32.89,32.89,0,0,1-6.34-.6,12.85,12.85,0,0,1-5.43-2.4,12.31,12.31,0,0,1-3.79-5.19,22.33,22.33,0,0,1-1.41-8.68V151.25h10.69Z"/><path d="M221.58,189.33a19.22,19.22,0,0,0,.27,3.39,5.77,5.77,0,0,0,1.14,2.56,5.25,5.25,0,0,0,2.19,1.65,8.89,8.89,0,0,0,3.46.6,6.78,6.78,0,0,0,4.41-1.62,6,6,0,0,0,2-4.93,8.5,8.5,0,0,0-.48-3,6.37,6.37,0,0,0-1.59-2.34,11.9,11.9,0,0,0-3-1.9,44.87,44.87,0,0,0-4.51-1.77,39.45,39.45,0,0,1-6.24-2.67,16.67,16.67,0,0,1-4.36-3.33,11.55,11.55,0,0,1-2.55-4.39,18.73,18.73,0,0,1-.84-5.76,14.76,14.76,0,0,1,4.42-11.74,17.53,17.53,0,0,1,12-3.88,25.57,25.57,0,0,1,6.57.78,13.68,13.68,0,0,1,5.23,2.53,11.63,11.63,0,0,1,3.54,4.47,15.67,15.67,0,0,1,1.23,6.52V166H234.22a10.43,10.43,0,0,0-1.35-5.83,4.92,4.92,0,0,0-4.47-2.07,7.4,7.4,0,0,0-3,.54,4.72,4.72,0,0,0-2.85,3.33,10.07,10.07,0,0,0-.27,2.32,7.82,7.82,0,0,0,1,4.14,9.3,9.3,0,0,0,4.48,3l8.25,3.58a26.53,26.53,0,0,1,5,2.79,14.71,14.71,0,0,1,3,3,10.68,10.68,0,0,1,1.59,3.7,19.68,19.68,0,0,1,.6,4.71,14.51,14.51,0,0,1-4.89,12.22,21.52,21.52,0,0,1-13.57,3.85c-6,0-10.36-1.33-13-3.94a15.4,15.4,0,0,1-3.9-11.32v-2.16h10.72Z"/><path d="M251.55,151.25h10.72v53.12H251.55Z"/><path d="M291,160.71a5.24,5.24,0,0,0-5.05-2.64,5.06,5.06,0,0,0-3.3,1.08,7.08,7.08,0,0,0-2,3.51,29.4,29.4,0,0,0-1,6.31c-.18,2.61-.3,5.8-.3,9.58a93.48,93.48,0,0,0,.42,9.76,21.43,21.43,0,0,0,1.26,5.76,5.2,5.2,0,0,0,2.16,2.74,6.15,6.15,0,0,0,3,.72,7.66,7.66,0,0,0,2.64-.48,4.56,4.56,0,0,0,2.14-2,12.66,12.66,0,0,0,1.41-4.09,36.94,36.94,0,0,0,.51-7h10.72a48.94,48.94,0,0,1-.66,8.2,18.77,18.77,0,0,1-2.49,6.76,12.44,12.44,0,0,1-5.14,4.53,19.1,19.1,0,0,1-8.59,1.65,20.18,20.18,0,0,1-9.61-1.92,13.12,13.12,0,0,1-5.46-5.58,25,25,0,0,1-2.46-8.71,113.61,113.61,0,0,1,0-22.28,24.94,24.94,0,0,1,2.46-8.74,13.72,13.72,0,0,1,5.46-5.71,19.52,19.52,0,0,1,9.61-2,18.48,18.48,0,0,1,9,1.86,12.93,12.93,0,0,1,5,4.72,16.76,16.76,0,0,1,2,6.18,51.81,51.81,0,0,1,.39,6.22H292.39A19.91,19.91,0,0,0,291,160.71Z"/><path d="M97.8,254.94a20.43,20.43,0,0,0,.27,3.31,6.06,6.06,0,0,0,1.14,2.58,5.36,5.36,0,0,0,2.2,1.62,8.84,8.84,0,0,0,3.45.6,6.9,6.9,0,0,0,4.41-1.59,6,6,0,0,0,2-5,9,9,0,0,0-.48-3,6.39,6.39,0,0,0-1.6-2.34,11.87,11.87,0,0,0-3-1.89,45.65,45.65,0,0,0-4.5-1.77,39.49,39.49,0,0,1-6.19-2.59,16.9,16.9,0,0,1-4.35-3.3,11.9,11.9,0,0,1-2.5-4.38,18.81,18.81,0,0,1-.81-5.77,14.79,14.79,0,0,1,4.39-11.74,17.47,17.47,0,0,1,12-3.87,26.09,26.09,0,0,1,6.58.78,13.48,13.48,0,0,1,5.22,2.52,11.82,11.82,0,0,1,3.42,4.47,15.67,15.67,0,0,1,1.23,6.52v1.47H110.44a10.43,10.43,0,0,0-1.35-5.83,4.85,4.85,0,0,0-4.44-2,7.47,7.47,0,0,0-3,.51,5.2,5.2,0,0,0-1.9,1.38,4.93,4.93,0,0,0-1,2,9.93,9.93,0,0,0-.27,2.31,7.79,7.79,0,0,0,1,4.14,9.61,9.61,0,0,0,4.48,3l8.26,3.57a25,25,0,0,1,5,2.76,13.8,13.8,0,0,1,3,3.15,10.83,10.83,0,0,1,1.6,3.67,21,21,0,0,1,.45,4.47,14.53,14.53,0,0,1-4.9,12.22,21.25,21.25,0,0,1-13.57,3.85c-6,0-10.36-1.32-13-3.94a15.37,15.37,0,0,1-3.82-11.26v-2.16H97.8Z"/><path d="M158.88,225.63H147.14V270H136.57V225.63H125v-8.76h33.93Z"/><path d="M162.72,232.3a24.49,24.49,0,0,1,2.44-8.74,13.7,13.7,0,0,1,5.46-5.7,23.58,23.58,0,0,1,19.22,0,13.74,13.74,0,0,1,5.35,5.7,25.37,25.37,0,0,1,2.46,8.74,115.18,115.18,0,0,1,0,22.28,25.21,25.21,0,0,1-2.46,8.71,13.23,13.23,0,0,1-5.47,5.59,20.43,20.43,0,0,1-9.61,1.92,20.43,20.43,0,0,1-9.61-1.92,13.15,13.15,0,0,1-5.34-5.59,24.54,24.54,0,0,1-2.44-8.71A109.14,109.14,0,0,1,162.72,232.3Zm10.39,20.24a26.13,26.13,0,0,0,1.06,6,6.75,6.75,0,0,0,2.22,3.42,7.37,7.37,0,0,0,7.68,0,6.81,6.81,0,0,0,2.11-3.33,26.66,26.66,0,0,0,1-6c0-2.52.24-5.56.24-9s0-6.57-.24-9a26.67,26.67,0,0,0-1-6.39,6.67,6.67,0,0,0-2.23-3.46,7.41,7.41,0,0,0-7.68,0,6.57,6.57,0,0,0-2.1,3.46,26.59,26.59,0,0,0-1.06,6c0,2.49-.24,5.5-.24,9S173,250,173.11,252.54Z"/><path d="M224.91,216.87a15,15,0,0,1,10.42,3.36,13.33,13.33,0,0,1,3.73,10.33,16,16,0,0,1-2.16,8.74,10.06,10.06,0,0,1-6.7,4.35h0a9.81,9.81,0,0,1,6,2.58,11.18,11.18,0,0,1,2.32,6.49,17.76,17.76,0,0,0,.21,3.24c.21,1.17,0,2.47.15,3.91a63.14,63.14,0,0,0,.45,6.45,4.14,4.14,0,0,0,1.92,3v.45H229.54a5.46,5.46,0,0,1-1-2.59c0-1-.24-1.95-.3-3l-.3-10.18a8.49,8.49,0,0,0-1.56-4.77,5.66,5.66,0,0,0-4.75-1.8h-5.73v22.49H205.12V216.87Zm-4.62,23.36a8.85,8.85,0,0,0,6-1.83,7.82,7.82,0,0,0,2.07-6,6.57,6.57,0,0,0-7.45-7.39h-5.07v15.23Z"/><path d="M246.41,216.87h10.72V270H246.41Z"/><path d="M294.28,225.63H275.15v12.5H293v8.79H275.15v14.33h19.7v8.8H264.43V216.87h29.85Z"/><path d="M309.29,254.94a17.62,17.62,0,0,0,.3,3.4,6.47,6.47,0,0,0,1.12,2.58,5.51,5.51,0,0,0,2.19,1.62,9,9,0,0,0,3.45.6,7,7,0,0,0,4.44-1.59,6,6,0,0,0,2-5,9,9,0,0,0-.48-3,5.74,5.74,0,0,0-1.6-2.34,11,11,0,0,0-3-1.89,40.39,40.39,0,0,0-4.5-1.77,37.56,37.56,0,0,1-6-2.59,16.68,16.68,0,0,1-4.35-3.3,11.82,11.82,0,0,1-2.52-4.47,18.52,18.52,0,0,1-.82-5.77,15,15,0,0,1,4.39-11.74,17.6,17.6,0,0,1,12-3.87,26,26,0,0,1,6.58.78,13.35,13.35,0,0,1,5.19,2.52,11.72,11.72,0,0,1,3.42,4.47,15.22,15.22,0,0,1,1.24,6.52v1.47H322a10.78,10.78,0,0,0-1.33-5.83,4.93,4.93,0,0,0-4.47-2,7.14,7.14,0,0,0-3,.51,4.64,4.64,0,0,0-1.89,1.38,4.87,4.87,0,0,0-1,2,12.75,12.75,0,0,0-.24,2.31,7.71,7.71,0,0,0,1,4.14,9.6,9.6,0,0,0,4.47,3l8.26,3.57a24.48,24.48,0,0,1,5,2.76,14.06,14.06,0,0,1,3,3.15,10.46,10.46,0,0,1,1.59,3.67,21,21,0,0,1,.45,4.47A14.59,14.59,0,0,1,329,266.89a21.25,21.25,0,0,1-13.57,3.85c-6,0-10.39-1.32-13-3.94a15.5,15.5,0,0,1-3.91-11.32v-2.16h10.75Z"/></g></g></g></g></svg>