<?xml version="1.0" encoding="utf-8"?>
<!-- Generator: Adobe Illustrator 24.1.1, SVG Export Plug-In . SVG Version: 6.00 Build 0)  -->
<svg version="1.1" id="Layer_1" xmlns="http://www.w3.org/2000/svg" xmlns:xlink="http://www.w3.org/1999/xlink" x="0px" y="0px"
	 viewBox="0 0 405.3 198.6" style="enable-background:new 0 0 405.3 198.6;" xml:space="preserve">
<style type="text/css">
	.st0{fill:#FFFFFF;}
</style>
<g>
	<path class="st0" d="M76,2l12.4,61.4h0.2L101.1,2h26v86.9H111V19.5h-0.2L95.3,88.9H81.7L66.2,19.5H66v69.4H49.9V2C49.9,2,76,2,76,2
		z"/>
	<path class="st0" d="M155.8,62.6c0,2.2,0.1,4.2,0.4,6c0.3,1.8,0.8,3.4,1.6,4.7s1.8,2.4,3.2,3.2c1.3,0.8,3,1.2,5.1,1.2
		s3.8-0.4,5.1-1.2c1.3-0.8,2.3-1.8,3.1-3.2c0.8-1.3,1.3-2.9,1.6-4.7c0.3-1.8,0.4-3.8,0.4-6V2h17.5v60.6c0,5.5-0.8,10.1-2.3,13.7
		c-1.5,3.6-3.6,6.5-6.2,8.6s-5.6,3.5-8.9,4.3c-3.3,0.7-6.8,1.1-10.3,1.1c-3.6,0-7-0.3-10.3-1c-3.3-0.6-6.3-2-8.9-4
		c-2.6-2-4.7-4.8-6.2-8.5s-2.3-8.4-2.3-14.2V2h17.5v60.6L155.8,62.6L155.8,62.6z"/>
	<path class="st0" d="M220.3,64.3c0,2,0.2,3.9,0.5,5.5c0.3,1.7,0.9,3.1,1.8,4.2c0.9,1.1,2.1,2,3.6,2.7s3.4,1,5.7,1
		c2.7,0,5.1-0.9,7.2-2.6c2.1-1.7,3.2-4.4,3.2-8.1c0-1.9-0.3-3.6-0.8-5.1c-0.5-1.4-1.4-2.7-2.6-3.8s-2.8-2.2-4.8-3.1
		c-2-0.9-4.4-1.9-7.4-2.9c-3.9-1.3-7.3-2.7-10.1-4.3c-2.8-1.5-5.2-3.3-7.1-5.4c-1.9-2.1-3.3-4.5-4.2-7.2c-0.9-2.7-1.3-5.9-1.3-9.4
		c0-8.6,2.4-15,7.2-19.2c4.8-4.2,11.4-6.3,19.7-6.3c3.9,0,7.5,0.4,10.8,1.3s6.1,2.2,8.5,4.1s4.3,4.3,5.6,7.3c1.3,3,2,6.5,2,10.7v2.4
		H241c0-4.1-0.7-7.3-2.2-9.6c-1.5-2.2-3.9-3.3-7.3-3.3c-1.9,0-3.6,0.3-4.9,0.9s-2.3,1.3-3.1,2.3c-0.8,0.9-1.3,2-1.6,3.2
		c-0.3,1.2-0.4,2.5-0.4,3.8c0,2.7,0.6,4.9,1.7,6.8c1.1,1.8,3.6,3.5,7.3,5.1l13.5,5.8c3.3,1.5,6,3,8.2,4.6c2.1,1.6,3.8,3.3,5.1,5.1
		c1.3,1.8,2.1,3.8,2.6,6c0.5,2.2,0.7,4.6,0.7,7.3c0,9.2-2.7,15.9-8,20c-5.3,4.2-12.7,6.3-22.2,6.3c-9.9,0-17-2.1-21.2-6.5
		c-4.3-4.3-6.4-10.5-6.4-18.5v-3.5h17.5L220.3,64.3L220.3,64.3z"/>
	<path class="st0" d="M269.4,2h17.5v86.9h-17.5V2z"/>
	<path class="st0" d="M334,17.5c-1.5-2.9-4.2-4.3-8.2-4.3c-2.2,0-4,0.6-5.4,1.8c-1.4,1.2-2.5,3.1-3.3,5.7s-1.4,6.1-1.7,10.3
		c-0.3,4.3-0.5,9.5-0.5,15.6c0,6.6,0.2,11.9,0.7,16c0.4,4.1,1.1,7.2,2.1,9.4c0.9,2.2,2.1,3.7,3.5,4.5s3.1,1.2,4.9,1.2
		c1.5,0,3-0.3,4.3-0.8s2.5-1.6,3.5-3.2c1-1.6,1.7-3.8,2.3-6.7c0.6-2.9,0.9-6.7,0.9-11.4h17.5c0,4.7-0.4,9.2-1.1,13.4
		s-2.1,7.9-4.1,11.1c-2,3.2-4.8,5.6-8.4,7.4c-3.6,1.8-8.3,2.7-14.1,2.7c-6.6,0-11.8-1.1-15.7-3.2c-3.9-2.1-6.9-5.2-8.9-9.1
		c-2.1-4-3.4-8.7-4-14.2s-0.9-11.6-0.9-18.3c0-6.6,0.3-12.6,0.9-18.2c0.6-5.6,1.9-10.3,4-14.3s5.1-7.1,8.9-9.3
		c3.9-2.2,9.1-3.3,15.7-3.3c6.2,0,11.2,1,14.8,3c3.6,2,6.3,4.6,8.1,7.7c1.8,3.1,2.9,6.5,3.3,10.1s0.7,7,0.7,10.2h-17.5
		C336.2,25,335.5,20.4,334,17.5z"/>
</g>
<g>
	<g>
		<path class="st0" d="M17.8,171.7c0,2,0.2,3.9,0.5,5.5c0.3,1.7,0.9,3.1,1.8,4.2s2.1,2,3.6,2.7s3.4,1,5.7,1c2.7,0,5.1-0.9,7.2-2.6
			s3.2-4.4,3.2-8.1c0-1.9-0.3-3.6-0.8-5.1c-0.5-1.4-1.4-2.7-2.6-3.8c-1.2-1.1-2.8-2.2-4.8-3.1s-4.4-1.9-7.4-2.9
			c-3.9-1.3-7.3-2.7-10.1-4.3c-2.8-1.5-5.2-3.3-7.1-5.4c-1.9-2.1-3.3-4.5-4.2-7.2c-0.9-2.7-1.3-5.9-1.3-9.4c0-8.6,2.4-15,7.2-19.2
			c4.8-4.2,11.4-6.3,19.7-6.3c3.9,0,7.5,0.4,10.8,1.3c3.3,0.9,6.1,2.2,8.5,4.1c2.4,1.9,4.3,4.3,5.6,7.3s2,6.5,2,10.7v2.4H38.5
			c0-4.1-0.7-7.3-2.2-9.6c-1.5-2.2-3.9-3.3-7.3-3.3c-1.9,0-3.6,0.3-4.9,0.9c-1.3,0.6-2.3,1.3-3.1,2.3c-0.8,0.9-1.3,2-1.6,3.2
			c-0.3,1.2-0.4,2.5-0.4,3.8c0,2.7,0.6,4.9,1.7,6.8c1.1,1.8,3.6,3.5,7.3,5.1l13.5,5.8c3.3,1.5,6,3,8.2,4.6c2.1,1.6,3.8,3.3,5.1,5.1
			c1.3,1.8,2.1,3.8,2.6,6s0.7,4.6,0.7,7.3c0,9.2-2.7,15.9-8,20c-5.3,4.2-12.7,6.3-22.2,6.3c-9.9,0-17-2.1-21.2-6.5
			c-4.3-4.3-6.4-10.5-6.4-18.5v-3.5h17.5C17.8,169.3,17.8,171.7,17.8,171.7z"/>
		<path class="st0" d="M117.7,123.7h-19v72.6H81.2v-72.6h-19v-14.4h55.5V123.7z"/>
		<path class="st0" d="M124,134.6c0.6-5.6,1.9-10.3,4-14.3s5.1-7.1,9-9.3s9.1-3.3,15.7-3.3s11.8,1.1,15.7,3.3s6.9,5.3,8.9,9.3
			c2.1,4,3.4,8.7,4,14.3c0.6,5.6,0.9,11.6,0.9,18.2c0,6.7-0.3,12.7-0.9,18.3c-0.6,5.5-1.9,10.3-4,14.2c-2.1,4-5.1,7-8.9,9.1
			c-3.9,2.1-9.1,3.2-15.7,3.2c-6.6,0-11.8-1.1-15.7-3.2c-3.9-2.1-6.9-5.2-9-9.1c-2.1-4-3.4-8.7-4-14.2s-0.9-11.6-0.9-18.3
			C123.1,146.2,123.4,140.2,124,134.6z M141,167.7c0.3,4.1,0.9,7.4,1.7,10c0.9,2.6,2.1,4.4,3.7,5.6c1.6,1.2,3.7,1.8,6.3,1.8
			s4.7-0.6,6.3-1.8c1.6-1.2,2.8-3,3.7-5.6s1.4-5.9,1.7-10c0.3-4.1,0.4-9.1,0.4-14.9s-0.1-10.8-0.4-14.9c-0.3-4.1-0.9-7.4-1.7-10
			c-0.9-2.6-2.1-4.5-3.7-5.7c-1.6-1.2-3.7-1.8-6.3-1.8s-4.7,0.6-6.3,1.8s-2.8,3.1-3.7,5.7c-0.9,2.6-1.4,5.9-1.7,10s-0.4,9-0.4,14.9
			C140.6,158.7,140.8,163.6,141,167.7z"/>
		<path class="st0" d="M225.8,109.4c7.3,0,13,1.8,17,5.5c4.1,3.7,6.1,9.3,6.1,16.9c0,5.8-1.2,10.6-3.5,14.3c-2.4,3.7-6,6.1-11,7.1
			v0.2c4.4,0.7,7.6,2.1,9.6,4.3c2,2.2,3.3,5.7,3.8,10.6c0.2,1.6,0.3,3.4,0.4,5.3s0.2,4,0.2,6.4c0.2,4.6,0.4,8.2,0.7,10.6
			c0.5,2.4,1.5,4.1,3.2,5v0.7h-19c-0.9-1.2-1.5-2.6-1.7-4.2s-0.4-3.2-0.5-4.9l-0.5-16.7c-0.2-3.4-1-6.1-2.6-8
			c-1.5-1.9-4.1-2.9-7.8-2.9h-9.4v36.7h-17.5v-86.9H225.8z M218.2,147.3c4.2,0,7.5-1,9.7-3c2.3-2,3.4-5.3,3.4-10
			c0-8-4.1-12.1-12.2-12.1h-8.3v25.1H218.2z"/>
		<path class="st0" d="M261,109.4h17.5v86.9H261V109.4z"/>
		<path class="st0" d="M339,123.7h-31v20.5h29.2v14.4H308V182h32.3v14.3h-49.8v-86.9h48.6v14.3L339,123.7L339,123.7z"/>
		<path class="st0" d="M363.9,171.7c0,2,0.2,3.9,0.5,5.5c0.3,1.7,0.9,3.1,1.8,4.2s2.1,2,3.6,2.7s3.4,1,5.7,1c2.7,0,5.1-0.9,7.2-2.6
			c2.2-1.7,3.2-4.4,3.2-8.1c0-1.9-0.3-3.6-0.8-5.1c-0.5-1.4-1.4-2.7-2.6-3.8c-1.2-1.1-2.8-2.2-4.8-3.1s-4.4-1.9-7.4-2.9
			c-3.9-1.3-7.3-2.7-10.1-4.3c-2.8-1.5-5.2-3.3-7.1-5.4c-1.9-2.1-3.3-4.5-4.2-7.2c-0.9-2.7-1.3-5.9-1.3-9.4c0-8.6,2.4-15,7.2-19.2
			c4.8-4.2,11.4-6.3,19.7-6.3c3.9,0,7.5,0.4,10.8,1.3c3.3,0.9,6.1,2.2,8.5,4.1c2.4,1.9,4.3,4.3,5.6,7.3c1.3,3,2,6.5,2,10.7v2.4
			h-16.8c0-4.1-0.7-7.3-2.2-9.6c-1.5-2.2-3.9-3.3-7.3-3.3c-1.9,0-3.6,0.3-4.9,0.9c-1.3,0.6-2.3,1.3-3.1,2.3c-0.8,0.9-1.3,2-1.6,3.2
			c-0.3,1.2-0.4,2.5-0.4,3.8c0,2.7,0.6,4.9,1.7,6.8c1.1,1.8,3.6,3.5,7.3,5.1l13.5,5.8c3.3,1.5,6,3,8.2,4.6c2.1,1.6,3.8,3.3,5.1,5.1
			c1.3,1.8,2.1,3.8,2.6,6s0.7,4.6,0.7,7.3c0,9.2-2.7,15.9-8,20c-5.3,4.2-12.7,6.3-22.2,6.3c-9.9,0-17-2.1-21.2-6.5
			c-4.3-4.3-6.4-10.5-6.4-18.5v-3.5h17.5L363.9,171.7L363.9,171.7z"/>
	</g>
</g>
</svg>
