<svg xmlns="http://www.w3.org/2000/svg" xmlns:xlink="http://www.w3.org/1999/xlink" viewBox="0 0 256.22 421.08"><defs><style>.cls-1{fill:none;}.cls-2{clip-path:url(#clip-path);}.cls-3{fill:#fff;}</style><clipPath id="clip-path" transform="translate(0 0)"><rect class="cls-1" width="256.22" height="256.22"/></clipPath></defs><g id="Layer_2" data-name="Layer 2"><g id="Layer_1-2" data-name="Layer 1"><g class="cls-2"><path class="cls-3" d="M128.11,256.22A128.11,128.11,0,1,0,0,128.11,128.11,128.11,0,0,0,128.11,256.22" transform="translate(0 0)"/><path d="M100.59,234.87a2.46,2.46,0,0,1-.78.66,2.61,2.61,0,0,1-1,.33,2.72,2.72,0,0,1-1.06-.08,2.58,2.58,0,0,1-1-.48,2.62,2.62,0,0,1-.67-.78,2.66,2.66,0,0,1-.24-2,2.7,2.7,0,0,1,1.26-1.61,2.79,2.79,0,0,1,1-.32,2.55,2.55,0,0,1,1.06.08,2.58,2.58,0,0,1,1,.48,2.72,2.72,0,0,1,.67.77,2.92,2.92,0,0,1,.32,1,2.55,2.55,0,0,1-.08,1.06,2.58,2.58,0,0,1-.48,1m19.72-2.9v-.18c-.35,0-1.3-.13-2-.21s-2.06-.31-2.36-.34l0,.17a2.76,2.76,0,0,1,1.19.86c.36.49.61,1.13.41,3.19-.09.92-.18,1.75-.27,2.47-.07.47-.17,1.19-.3,1.79h0c-1.88-2.63-4.34-6.28-6.38-9.42h-.28c0,.72-.13,1.55-.23,2.37l-.29,2.18c-.13,1-.25,2-.33,2.41a9.53,9.53,0,0,1-.4,1.57,3.31,3.31,0,0,1-.6,1,2.4,2.4,0,0,1-1.22.69v.17c.43,0,1.43.15,2.13.24s1.73.26,2.27.33l0-.18a2.46,2.46,0,0,1-1.38-1.38,6.11,6.11,0,0,1-.28-2.45c0-.56.08-1.1.21-2.06a16.84,16.84,0,0,1,.32-1.91c2,2.85,4,5.68,5.77,8.54a1.07,1.07,0,0,0,.33.08c.26,0,.63.06,1.14.12s1.15.16,1.61.24l0-.18a2.72,2.72,0,0,1-1.77-3.29c.2-1.55.37-2.87.64-4.15a3.64,3.64,0,0,1,1-2.13,2.24,2.24,0,0,1,1-.56m7.24,4.31c.62,0,1.38,0,1.85,0-.14.35-.33.77-.54,1.21l-1.23,2.63h0c-.62-1.34-1.16-2.54-1.74-3.86.53,0,1.11,0,1.71,0m5.41-4.11V232c-.45,0-1.23,0-1.74,0-.71,0-1.75,0-2.37,0l0,.17a1.88,1.88,0,0,1,.72.45,1.72,1.72,0,0,1,.47,1.25,6,6,0,0,1-.45,2h-2l-1.92,0c-.22-.52-.44-1-.62-1.5a4.16,4.16,0,0,1-.28-1.23,1.6,1.6,0,0,1,1.23-1v-.17c-.81,0-1.88,0-2.48,0l-2.36,0,0,.2a3.37,3.37,0,0,1,1.68,1.61c.67,1.09,1.83,3.7,2.73,5.76.47,1.07.93,2.14,1.39,3.24l.22,0c.17-.47.45-1.21.68-1.78l1.49-3.19a39.76,39.76,0,0,1,2.17-4.16,4.67,4.67,0,0,1,.79-.94,2.86,2.86,0,0,1,.72-.45m5.93-.52,0-.18-2.63.22c-.74.05-1.79.09-2.4.11V232a1.9,1.9,0,0,1,1.16.72c.41.62.54,1.65.73,4.51a17.77,17.77,0,0,1,.07,3.6,1.71,1.71,0,0,1-1.31,1.32l0,.17,2.54-.21c.85-.05,2-.08,2.56-.12v-.18a2,2,0,0,1-1.46-.7c-.47-.59-.57-1.8-.72-4.06a24.32,24.32,0,0,1-.08-3.57,2,2,0,0,1,.56-1.28,2.59,2.59,0,0,1,1-.53m1.49,2.55h.2A6.4,6.4,0,0,1,142,232a3.74,3.74,0,0,1,1.67-1,5.46,5.46,0,0,1,2.9,1.19,5.2,5.2,0,0,1,1.84,3.31,5.28,5.28,0,0,1-.49,3.31,5.14,5.14,0,0,1-2.09,2.12,4.18,4.18,0,0,1-2.36-.93,8.87,8.87,0,0,1-2-2l-.18.06c.38,1.32.53,2.29.82,3.14a8.36,8.36,0,0,0,3.53.09,5.79,5.79,0,0,0,3.68-2.18,5.45,5.45,0,0,0,1-4.21,5,5,0,0,0-2.25-3.52,5.71,5.71,0,0,0-4.05-.79,9.41,9.41,0,0,0-3.59,1.32c0,.6,0,1.73,0,2.29m15.08-5.69-.05-.16c-.5.13-1.74.46-2.56.66s-1.73.39-2.34.52l0,.18a1.9,1.9,0,0,1,1.27.51c.51.54.81,1.53,1.49,4.32a18,18,0,0,1,.69,3.53,1.69,1.69,0,0,1-1.06,1.52l0,.17c.66-.17,1.67-.45,2.47-.64s1.92-.42,2.5-.56l0-.18a2,2,0,0,1-1.55-.44c-.57-.5-.87-1.67-1.41-3.87a25.91,25.91,0,0,1-.7-3.5,2,2,0,0,1,.34-1.36,2.63,2.63,0,0,1,.86-.7m8.7.52.18-.09a28.88,28.88,0,0,0-1.32-2.67,8.24,8.24,0,0,0-2.94.48,4.3,4.3,0,0,0-2.45,1.77,2.62,2.62,0,0,0-.26,2.24c.48,1.5,1.93,1.77,3.4,2a7.13,7.13,0,0,1,2.28.54,1.79,1.79,0,0,1,.95,1.15,2,2,0,0,1-.91,2.31,3.79,3.79,0,0,1-2.05-.51,7.18,7.18,0,0,1-1.86-1.31L159,235c.4.91.82,2,1.13,2.59a8.47,8.47,0,0,0,2.84-.44,4,4,0,0,0,2.19-1.56,2.87,2.87,0,0,0-1.13-4.07,8.71,8.71,0,0,0-2.44-.67,6.61,6.61,0,0,1-2.25-.67,1.29,1.29,0,0,1-.53-.72,2,2,0,0,1,1.07-2.28,3.85,3.85,0,0,1,2.25.4,6,6,0,0,1,2,1.41m5.21-5.87a3.93,3.93,0,0,0-2.42,2.47,4.21,4.21,0,0,0,.19,2.59c.12.35.3.8.47,1.18l.16.36a14.83,14.83,0,0,1,1,3.08,3.12,3.12,0,0,1-.06,1.54,2.36,2.36,0,0,1-.49.78l.1.17c.34-.17,1.14-.55,1.82-.85s1.71-.7,2.07-.86l-.06-.17a2.67,2.67,0,0,1-1.6-.35,4.69,4.69,0,0,1-1.49-1.72c-.3-.54-.66-1.24-.93-1.86a12.17,12.17,0,0,1-.54-1.4,3.14,3.14,0,0,1,.07-2.25,3.24,3.24,0,0,1,1.63-1.5,3.12,3.12,0,0,1,2.16-.21,2.82,2.82,0,0,1,1.57,1.4c.24.44.46.93.7,1.48l.43,1a20.74,20.74,0,0,1,.84,2.13,2.27,2.27,0,0,1,0,1.39,2.44,2.44,0,0,1-.73,1l.1.15c.6-.28,1.43-.67,2.41-1.1.81-.36,1.71-.73,2.35-1l-.06-.17a2.84,2.84,0,0,1-1.34-.16,2.38,2.38,0,0,1-1.1-1.07c-.25-.39-.78-1.6-1.06-2.23s-.66-1.57-.84-2a3.58,3.58,0,0,0-2.19-2.1,4.56,4.56,0,0,0-3.2.31m18-9.33-.1-.15c-.35.21-1.08.69-1.56,1s-1.57.89-2,1.18l.07.16a2,2,0,0,1,1.54.06,4.29,4.29,0,0,1,1.43,1.41c.16.24.32.47.45.69.67,1.12,1.36,2.32,2.22,4l-.06,0c-1-.6-1.92-1.23-3-1.93-1.75-1.21-3.15-2.19-4.09-3l-.18.11a19.3,19.3,0,0,0,.36,2.32l.61,3.39a21.35,21.35,0,0,1,.37,2.87l-.05,0a15.44,15.44,0,0,1-1.08-1.51c-.51-.76-1.26-1.92-1.74-2.72a6.83,6.83,0,0,1-1-2.15,1.5,1.5,0,0,1,.56-1.44l-.11-.14c-.51.31-1.45.92-2.11,1.31s-1.69,1-2,1.19l.09.17a1.61,1.61,0,0,1,1.67.29,13,13,0,0,1,1.94,2.47c.65.94,1.21,1.83,1.67,2.6l.26.44a2.85,2.85,0,0,1,.48,1.41,2.17,2.17,0,0,1-.72,1.45l.1.14c.35-.24.81-.54,1.25-.8s1.22-.68,1.51-.85.18-.15.16-.27c-.15-1.09-.45-2.64-.77-4.49l-.56-3.14,3.15,2.13c1.41,1,2.76,1.91,3.58,2.38a.58.58,0,0,0,.25-.1c.16-.1.47-.31,1.27-.81.3-.19,1.4-.81,1.62-.93l-.07-.16a3,3,0,0,1-1.54.21,2.43,2.43,0,0,1-1.26-.73,6.6,6.6,0,0,1-.79-1.12c-.54-.89-1-1.83-1.41-2.61a6.26,6.26,0,0,1-.92-3.16,2.19,2.19,0,0,1,.53-1.21m7.05,3.83-.71-4.09-4-1.78,1.58-1.25,2.41,1.24-.65-2.63,1.59-1.25.79,4.32,3.8,1.66-1.58,1.24L195.44,214l.59,2.43Zm11.19-20-.14-.12c-.25.26-.88,1-1.35,1.44s-1.5,1.45-1.71,1.67l.12.13a2.71,2.71,0,0,1,1.4-.42c.61,0,1.27.19,2.78,1.6.68.63,1.29,1.21,1.8,1.72.35.33.85.85,1.25,1.31l0,0c-3.23-.1-7.62-.35-11.36-.64l-.16.23c.54.48,1.15,1.05,1.74,1.62l1.57,1.55c.75.74,1.43,1.42,1.71,1.73a8.63,8.63,0,0,1,1,1.27,3,3,0,0,1,.45,1.09,2.31,2.31,0,0,1-.2,1.39l.14.11c.3-.32,1-1,1.47-1.55s1.27-1.22,1.65-1.6l-.12-.14a2.51,2.51,0,0,1-1.94.25,6.09,6.09,0,0,1-2.12-1.26c-.41-.37-.82-.73-1.51-1.42a16.58,16.58,0,0,1-1.32-1.41c3.48.15,6.95.26,10.28.59a1,1,0,0,0,.28-.21c.18-.18.42-.47.78-.83s.83-.82,1.16-1.14l-.11-.14a3,3,0,0,1-1.35.47,3.05,3.05,0,0,1-2.34-1.06c-1.11-1.1-2.07-2-2.92-3a3.58,3.58,0,0,1-1.07-2.09,2.11,2.11,0,0,1,.17-1.15m7.82-3c.38-.48.86-1.07,1.18-1.42.18.33.4.73.61,1.18l1.29,2.6,0,0c-1.43-.35-2.71-.67-4.1-1,.3-.43.67-.89,1-1.35m.15-6.8-.14-.1c-.27.36-.76,1-1.08,1.37-.44.55-1.12,1.35-1.51,1.82l.13.13a1.86,1.86,0,0,1,.79-.29,1.75,1.75,0,0,1,1.27.41,6.12,6.12,0,0,1,1.31,1.62c-.32.43-.78,1-1.25,1.57s-.86,1.06-1.22,1.49c-.53-.15-1.06-.29-1.55-.45a3.91,3.91,0,0,1-1.14-.54,1.6,1.6,0,0,1,0-1.59l-.15-.1c-.51.63-1.16,1.48-1.53,1.94L206,197l.14.13a3.39,3.39,0,0,1,2.31-.31c1.27.16,4,.88,6.21,1.46,1.13.29,2.25.6,3.39.93l.13-.18c-.27-.43-.67-1.11-1-1.64l-1.57-3.16a37.14,37.14,0,0,1-1.89-4.29,3.9,3.9,0,0,1-.25-1.2,3,3,0,0,1,.09-.85m3.1-5.1-.16-.09c-.27.43-.95,1.53-1.41,2.23s-1,1.47-1.36,2l.14.11a1.83,1.83,0,0,1,1.27-.49c.75,0,1.65.56,4,2.13a18.24,18.24,0,0,1,2.91,2.12,1.69,1.69,0,0,1,.26,1.84l.16.09c.36-.57.91-1.46,1.36-2.15s1.12-1.62,1.45-2.12l-.14-.11a2.05,2.05,0,0,1-1.44.74c-.75,0-1.77-.63-3.66-1.88a22,22,0,0,1-2.9-2.09,2.06,2.06,0,0,1-.69-1.22,2.91,2.91,0,0,1,.17-1.09m3,.38.13-.15a6.26,6.26,0,0,1-.89-2.42,3.82,3.82,0,0,1,.18-2,5.43,5.43,0,0,1,2.71-1.59,5.29,5.29,0,0,1,6.51,5.88,4.28,4.28,0,0,1-2.17,1.31,8.73,8.73,0,0,1-2.8.39l-.06.18c1.28.5,2.13,1,3,1.25a8.56,8.56,0,0,0,2.22-2.75A5.84,5.84,0,0,0,229,179a5.45,5.45,0,0,0-2.73-3.36,5.09,5.09,0,0,0-4.17-.34,5.77,5.77,0,0,0-3.07,2.75,9.2,9.2,0,0,0-1.12,3.65c.45.4,1.38,1,1.8,1.41m4.65-15.42-.17-.06c-.19.47-.68,1.67-1,2.43s-.74,1.63-1,2.18l.15.09a1.92,1.92,0,0,1,1.18-.7c.74-.08,1.71.28,4.33,1.43a18.48,18.48,0,0,1,3.23,1.6,1.71,1.71,0,0,1,.56,1.77l.17.06c.26-.62.66-1.6,1-2.35s.83-1.78,1.07-2.33l-.16-.08a2,2,0,0,1-1.29,1c-.74.15-1.86-.33-3.93-1.24a24.24,24.24,0,0,1-3.21-1.57,2,2,0,0,1-.88-1.09,2.69,2.69,0,0,1,0-1.11m5.73-6.57,0-.2c-1.14-.24-2.35-.55-2.93-.58a8.45,8.45,0,0,0-1.41,2.62,4.28,4.28,0,0,0-.09,3,2.66,2.66,0,0,0,1.62,1.58c1.48.53,2.58-.45,3.66-1.48a7.84,7.84,0,0,1,1.82-1.47,1.8,1.8,0,0,1,1.49-.06,2,2,0,0,1,1.29,2.13,3.77,3.77,0,0,1-1.67,1.32,7.27,7.27,0,0,1-2.17.68l0,.19c1,.23,2.11.58,2.75.68A8.73,8.73,0,0,0,235.8,167a4,4,0,0,0,.1-2.69,2.77,2.77,0,0,0-1.76-1.71,2.81,2.81,0,0,0-2.15.13,8.84,8.84,0,0,0-2,1.52,6.37,6.37,0,0,1-1.91,1.38,1.27,1.27,0,0,1-.88,0,2,2,0,0,1-1.16-2.24,3.84,3.84,0,0,1,1.69-1.53,5.65,5.65,0,0,1,2.35-.75m-1.46-7.7a4,4,0,0,0,.46,3.42,4.24,4.24,0,0,0,2.16,1.44c.36.12.82.26,1.23.36l.37.09a14.43,14.43,0,0,1,3.08,1.07,3,3,0,0,1,1.17,1,2.26,2.26,0,0,1,.32.87l.19,0c.08-.37.27-1.23.45-2s.5-1.77.59-2.15l-.17-.06a2.67,2.67,0,0,1-1.25,1,4.71,4.71,0,0,1-2.27.13c-.61-.1-1.4-.24-2.05-.41-.49-.13-1-.27-1.44-.44a3.15,3.15,0,0,1-1.72-1.43,3.22,3.22,0,0,1-.19-2.21,3.14,3.14,0,0,1,1.16-1.84,2.79,2.79,0,0,1,2.08-.37c.49.07,1,.21,1.59.35l1,.26a20.27,20.27,0,0,1,2.21.65,2.36,2.36,0,0,1,1.1.85,2.64,2.64,0,0,1,.32,1.18h.18c.14-.64.34-1.53.61-2.58.21-.86.47-1.79.66-2.46l-.17-.06a2.73,2.73,0,0,1-1,1,2.38,2.38,0,0,1-1.52.2c-.46,0-1.74-.36-2.41-.53s-1.65-.44-2.1-.56a3.6,3.6,0,0,0-3,.43,4.62,4.62,0,0,0-1.72,2.73m3.7-20h-.18c-.05.4-.11,1.27-.19,1.84s-.27,1.77-.34,2.34l.17,0a2,2,0,0,1,1-1.18,4.37,4.37,0,0,1,2-.24c.28,0,.57,0,.82.08,1.29.16,2.66.37,4.47.7v.07c-1.09.43-2.15.75-3.35,1.12-2,.63-3.66,1.12-4.86,1.38l0,.2a18.83,18.83,0,0,0,2,1.15l3,1.64a23.27,23.27,0,0,1,2.49,1.48v.06a17.2,17.2,0,0,1-1.86-.09c-.92-.07-2.29-.2-3.21-.32a6.47,6.47,0,0,1-2.29-.58,1.52,1.52,0,0,1-.78-1.32h-.18c-.07.59-.17,1.71-.27,2.47s-.29,1.93-.34,2.34l.19,0a1.59,1.59,0,0,1,1.26-1.13,12.84,12.84,0,0,1,3.14,0c1.14.07,2.19.18,3.08.3l.5.06a3,3,0,0,1,1.41.5,2.24,2.24,0,0,1,.69,1.47h.17c0-.42.08-1,.15-1.47.08-.66.22-1.38.26-1.72,0-.17,0-.23-.11-.29-.94-.56-2.35-1.28-4-2.17l-2.81-1.51,3.62-1.16c1.63-.51,3.21-1,4.09-1.33a.79.79,0,0,0,.08-.27c0-.17,0-.55.14-1.49,0-.35.24-1.6.28-1.85l-.17,0a3,3,0,0,1-.79,1.34,2.33,2.33,0,0,1-1.35.53,6.35,6.35,0,0,1-1.37-.06c-1-.14-2.08-.33-2.93-.52a6.26,6.26,0,0,1-3.05-1.23,2.24,2.24,0,0,1-.62-1.17M238.19,121a2.75,2.75,0,0,1,.87.53,2.64,2.64,0,0,1,.6.83,2.53,2.53,0,0,1,.26,1,2.82,2.82,0,0,1-.17,1,2.68,2.68,0,0,1-1.36,1.47,2.57,2.57,0,0,1-1,.26,2.63,2.63,0,0,1-1.05-.17,2.75,2.75,0,0,1-.87-.53,2.64,2.64,0,0,1-.6-.83,2.53,2.53,0,0,1-.26-1,2.63,2.63,0,0,1,.17-1,2.75,2.75,0,0,1,.53-.87,2.64,2.64,0,0,1,.83-.6,2.53,2.53,0,0,1,1-.26,2.63,2.63,0,0,1,1.05.17m-4.38-8.2v-.19a6.34,6.34,0,0,1-2.21-1.34,3.89,3.89,0,0,1-1.08-1.64,5.58,5.58,0,0,1,1.12-2.93,5.57,5.57,0,0,1,6.58-1.52,5.11,5.11,0,0,1,2.18,2,4.26,4.26,0,0,1-.88,2.38,8.42,8.42,0,0,1-1.94,2l.07.18c1.31-.42,2.27-.58,3.11-.89a8.34,8.34,0,0,0,0-3.53,5.76,5.76,0,0,0-2.28-3.63,5.39,5.39,0,0,0-4.23-.91,5,5,0,0,0-3.46,2.33,5.71,5.71,0,0,0-.69,4.07,9.1,9.1,0,0,0,1.41,3.55c.6,0,1.73,0,2.28,0m-6.08-14.92-.17.06c.15.49.51,1.72.73,2.53s.44,1.73.58,2.33l.18,0a1.82,1.82,0,0,1,.48-1.28c.52-.53,1.51-.86,4.27-1.6a17.71,17.71,0,0,1,3.52-.78,1.71,1.71,0,0,1,1.55,1l.17-.07c-.19-.64-.49-1.65-.71-2.44s-.47-1.91-.62-2.49l-.18,0a2,2,0,0,1-.4,1.57c-.48.58-1.65.91-3.84,1.5a22.62,22.62,0,0,1-3.48.78,2.06,2.06,0,0,1-1.37-.29,2.71,2.71,0,0,1-.71-.85m.27-8.71-.09-.17a27.33,27.33,0,0,0-2.64,1.39,8.43,8.43,0,0,0,.55,2.92,4.31,4.31,0,0,0,1.83,2.41,2.67,2.67,0,0,0,2.25.2c1.49-.52,1.72-2,1.92-3.45a7.56,7.56,0,0,1,.48-2.29,1.78,1.78,0,0,1,1.13-1,2,2,0,0,1,2.34.85,3.8,3.8,0,0,1-.47,2.07A7.16,7.16,0,0,1,234,94l.1.17c.89-.43,2-.88,2.56-1.2a8.48,8.48,0,0,0-.52-2.82A4,4,0,0,0,234.57,88a2.77,2.77,0,0,0-2.45-.21,2.81,2.81,0,0,0-1.59,1.44,9,9,0,0,0-.61,2.46A6.38,6.38,0,0,1,229.3,94a1.31,1.31,0,0,1-.69.55,2,2,0,0,1-2.31-1,3.83,3.83,0,0,1,.35-2.25A5.71,5.71,0,0,1,228,89.17m-6-5a3.94,3.94,0,0,0,2.53,2.36,4.23,4.23,0,0,0,2.58-.26c.35-.13.79-.32,1.17-.5l.36-.16a13.55,13.55,0,0,1,3-1.12,2.9,2.9,0,0,1,1.53,0,2.37,2.37,0,0,1,.81.47l.16-.11c-.18-.33-.58-1.12-.9-1.8s-.74-1.69-.91-2l-.17.06a2.71,2.71,0,0,1-.3,1.61,4.75,4.75,0,0,1-1.68,1.53,18.86,18.86,0,0,1-1.85,1,11,11,0,0,1-1.39.57,3.16,3.16,0,0,1-2.23,0,3.26,3.26,0,0,1-1.55-1.6,3.09,3.09,0,0,1-.27-2.16,2.8,2.8,0,0,1,1.37-1.6c.43-.25.92-.48,1.46-.74l1-.45a19.09,19.09,0,0,1,2.12-.9,2.36,2.36,0,0,1,1.39,0,2.66,2.66,0,0,1,1,.71l.15-.1c-.29-.59-.71-1.41-1.17-2.38-.37-.8-.76-1.7-1-2.33l-.17.06a2.75,2.75,0,0,1-.13,1.36,2.36,2.36,0,0,1-1,1.12,23.48,23.48,0,0,1-2.2,1.11c-.76.36-1.56.7-2,.9a3.55,3.55,0,0,0-2,2.24,4.53,4.53,0,0,0,.39,3.19m-9.82-17.76-.14.11c.21.34.72,1,1,1.53s.93,1.54,1.24,2l.15-.08a2,2,0,0,1,0-1.54,4.52,4.52,0,0,1,1.38-1.47l.68-.46c1.1-.7,2.28-1.42,3.9-2.32l0,0c-.57,1-1.18,2-1.86,3-1.16,1.79-2.1,3.21-2.86,4.17l.11.17a16.63,16.63,0,0,0,2.31-.42l3.39-.69a23.55,23.55,0,0,1,2.85-.44l0,0a15.46,15.46,0,0,1-1.48,1.12c-.75.53-1.89,1.31-2.68,1.8a6.51,6.51,0,0,1-2.12,1,1.49,1.49,0,0,1-1.45-.52l-.15.11c.33.5,1,1.43,1.37,2.08s1,1.66,1.24,2l.17-.08a1.61,1.61,0,0,1,.25-1.69,13.14,13.14,0,0,1,2.42-2c.92-.67,1.8-1.25,2.56-1.73l.43-.27a2.9,2.9,0,0,1,1.39-.52,2.17,2.17,0,0,1,1.47.69L228,72c-.25-.34-.56-.8-.83-1.23s-.71-1.2-.89-1.49c-.09-.14-.15-.17-.27-.15-1.08.17-2.63.51-4.47.88l-3.13.64,2-3.2c.92-1.44,1.84-2.81,2.29-3.64a.63.63,0,0,0-.11-.25c-.1-.15-.32-.46-.84-1.24-.19-.31-.84-1.38-1-1.61l-.16.08a2.93,2.93,0,0,1,.25,1.54,2.35,2.35,0,0,1-.7,1.28,7,7,0,0,1-1.09.81c-.88.56-1.81,1.08-2.58,1.49a6.34,6.34,0,0,1-3.14,1,2.21,2.21,0,0,1-1.22-.5m-9.32-10.91-.12.13c.37.39,1.12,1.24,1.68,1.88.83,1,2.08,2.43,3.14,3.65.2.23.61.67.76.82.64-.35,1.52-1,2.41-1.49l-.1-.17a5.34,5.34,0,0,1-2.18,0,5.17,5.17,0,0,1-1.79-.75,2.38,2.38,0,0,1-.61-1.2,1.76,1.76,0,0,1,.68-1.5c.61-.63,1.38-1.3,2.05-1.89l.15-.13a7.09,7.09,0,0,1,.59.61,6.89,6.89,0,0,1,.66.85,1.92,1.92,0,0,1,.36,1.12,2.42,2.42,0,0,1-.21.9l.14.13c.24-.23.62-.56,1-.9s.86-.72,1.18-1l-.11-.16a1.73,1.73,0,0,1-1.12.1,1.9,1.9,0,0,1-.84-.46c-.2-.18-.46-.49-.74-.8l-.61-.71.18-.15a42.45,42.45,0,0,1,3.34-2.68,4.8,4.8,0,0,1,.58.55,4.34,4.34,0,0,1,.85,2.4,6,6,0,0,1-.3,2.08l.15.12c.92-1,1.35-1.33,1.93-2-.21-.28-.5-.64-.9-1.09-.57-.66-1.5-1.68-2.89-3.29-.26-.29-1.36-1.55-1.67-2l-.14.11a4.18,4.18,0,0,1,.38.8,1.67,1.67,0,0,1,0,1,3,3,0,0,1-.92,1.26c-.51.5-1.23,1.14-2.05,1.86l-.57.5c-.42.37-1.07.9-1.39,1.13a3.24,3.24,0,0,1-1.65.8,2.31,2.31,0,0,1-1.35-.47m-3.16-10.12.21-.25c.72-.79,2.06-2.25,3-3.06a4.82,4.82,0,0,1,.71.53,2.87,2.87,0,0,1,.9,1.89,2.39,2.39,0,0,1-.63,1.79,3.45,3.45,0,0,1-2.06,1.2c-.13-.1-.29-.22-.43-.35a14.28,14.28,0,0,1-1.69-1.75M193.5,47l-.1.14c.41.35,1.28,1.09,1.9,1.65s1.91,1.76,2.36,2.17l.15-.15a2.77,2.77,0,0,1-.73-1.22,1.84,1.84,0,0,1,.43-1.7c.45-.59,1-1.24,1.54-1.83l.27-.3c.29.26.76.72,1.13,1.05a18.3,18.3,0,0,0-.62,4.4,4.38,4.38,0,0,0,.33,1.68,3.12,3.12,0,0,0,.88,1.2,5,5,0,0,0,1.47.92l.08-.16-.23-.17a5.3,5.3,0,0,1-.73-2.67,17.2,17.2,0,0,1,.3-4.11,3.34,3.34,0,0,0,3.61-.72,2.07,2.07,0,0,0,.43-2.07,5.81,5.81,0,0,0-1.92-2.56c-.71-.63-1.66-1.42-2.06-1.78s-1.39-1.26-1.75-1.62l-.13.12a4,4,0,0,1,.48.75,1.78,1.78,0,0,1,.15,1,3.23,3.23,0,0,1-.75,1.36c-.45.56-1.08,1.29-1.81,2.1l-.51.57c-.37.42-.95,1-1.23,1.3a3.38,3.38,0,0,1-1.54,1,2.28,2.28,0,0,1-1.4-.3m-4.83-3.59a5.31,5.31,0,0,1-.06-6.37A4.84,4.84,0,0,1,194,34.82c1.48,1.65,1.56,4,0,6.28a5.11,5.11,0,0,1-5.33,2.28m-.4.2a5.42,5.42,0,0,0,2.55.86,5.29,5.29,0,0,0,4.93-2.38,5.07,5.07,0,0,0-1.23-7.31,5.57,5.57,0,0,0-3-1.07,5.28,5.28,0,0,0-4.72,2.44,5,5,0,0,0-.81,4.24,5.69,5.69,0,0,0,2.28,3.22M171.44,33.31l-.07.16c.36.19,1.15.56,1.65.83s1.57.87,2.07,1.14l.1-.15a2.06,2.06,0,0,1-.75-1.35,4.28,4.28,0,0,1,.48-1.95c.12-.26.24-.52.35-.74.61-1.16,1.28-2.36,2.24-3.94l.05,0c0,1.18-.05,2.28-.12,3.54-.12,2.12-.24,3.82-.42,5l.19.1a19.75,19.75,0,0,0,1.8-1.51l2.59-2.28a22.43,22.43,0,0,1,2.26-1.8l0,0a18.32,18.32,0,0,1-.73,1.72c-.39.83-1,2.07-1.43,2.89A6.66,6.66,0,0,1,180.41,37a1.53,1.53,0,0,1-1.52.27l-.07.16c.53.28,1.54.77,2.22,1.12s1.7.95,2.07,1.15l.11-.17a1.59,1.59,0,0,1-.62-1.58A12.9,12.9,0,0,1,183.71,35c.46-1,.94-2,1.36-2.77l.24-.46a2.82,2.82,0,0,1,1-1.13,2.19,2.19,0,0,1,1.61-.14l.07-.16c-.38-.17-.88-.41-1.33-.65s-1.21-.69-1.52-.85c-.14-.08-.21-.08-.31,0-.85.69-2,1.74-3.44,3L179,33.92l.19-3.8c.09-1.7.21-3.35.19-4.29a.52.52,0,0,0-.22-.17c-.16-.08-.51-.23-1.35-.66-.31-.17-1.42-.78-1.63-.92l-.1.16a2.87,2.87,0,0,1,1,1.2,2.36,2.36,0,0,1,0,1.46,6.83,6.83,0,0,1-.54,1.26c-.49.91-1,1.82-1.51,2.56a6.25,6.25,0,0,1-2.23,2.42,2.17,2.17,0,0,1-1.31.17m-16.13-5.8,0,.18c.49.14,1.72.52,2.52.78s1.69.59,2.27.8l.07-.17a1.91,1.91,0,0,1-.79-1.09c-.17-.74.09-1.74.82-4l.07-.2c.75.23,1.56.5,2.31.75s1.56.51,2.31.77l-.25.76a21.65,21.65,0,0,1-.78,2.12,2.58,2.58,0,0,1-.83,1,2.28,2.28,0,0,1-1.34.32l-.05.18,2.39.75c.61.2,1.59.55,2.28.79l.11-.16a1.87,1.87,0,0,1-.75-.85,2.51,2.51,0,0,1-.07-1.29,36.4,36.4,0,0,1,1.12-3.71c.35-1.06.62-1.85.88-2.43a2.65,2.65,0,0,1,.66-1,2.1,2.1,0,0,1,1.36-.37l0-.19c-.62-.18-1.55-.47-2.29-.71s-1.61-.57-2.21-.78L165,20a2.12,2.12,0,0,1,.76,1.13c.11.51.12,1-.46,2.71L165,24.93l-2.31-.75c-.75-.25-1.51-.5-2.3-.78l.13-.38a14.75,14.75,0,0,1,1.09-2.8,1.79,1.79,0,0,1,1.66-.79l0-.18c-.65-.2-1.58-.47-2.37-.73s-1.84-.66-2.41-.84l-.08.16a2,2,0,0,1,1.1,1.2c.22.72-.15,1.87-.86,4a24.54,24.54,0,0,1-1.26,3.34,2,2,0,0,1-1,1,2.62,2.62,0,0,1-1.1.13m-8.1-1.77,0,.18c.5.1,1.77.35,2.59.54s1.95.47,2.55.62l.05-.17a1.92,1.92,0,0,1-1.13-1.07,2.88,2.88,0,0,1-.08-1,27.3,27.3,0,0,1,.66-3.53c.17-.73.4-1.74.59-2.51.24-1,.36-1.43.5-1.92.16,0,.56.09.87.16A3.12,3.12,0,0,1,155,18.34a7.62,7.62,0,0,1,.75,1.71H156c.14-1.33.27-1.91.34-2.81a9,9,0,0,0-1.07-.29c-.52-.12-2.21-.47-3.17-.69s-2.54-.61-3.14-.74a8.62,8.62,0,0,0-1.09-.2c-.33.84-.46,1.41-.91,2.68l.18.07a7.56,7.56,0,0,1,1.41-1.22,3.07,3.07,0,0,1,1.7-.61c.35.08.65.16.81.21-.11.73-.21,1.25-.38,2.07-.12.59-.37,1.78-.53,2.46a24.43,24.43,0,0,1-.93,3.45,2,2,0,0,1-.91,1.07,2.63,2.63,0,0,1-1.08.23m-8-1.13v.18l2.62.29,2.37.35,0-.17a1.84,1.84,0,0,1-1-.93c-.29-.69-.22-1.72.14-4.56a18.15,18.15,0,0,1,.63-3.55,1.7,1.7,0,0,1,1.53-1V15L143,14.72c-.85-.11-1.94-.3-2.54-.37l0,.17a2,2,0,0,1,1.29,1c.36.66.22,1.87-.07,4.12a25.56,25.56,0,0,1-.6,3.52,2,2,0,0,1-.8,1.15,2.7,2.7,0,0,1-1.06.33m-11.89-.23h.21c.18-.5.49-1.23.7-1.79l1.42-3.14c.26-.57.5-1.17.73-1.82.43,1.14.93,2.52,1.34,3.67s.79,2.17,1.13,3.26H133c.18-.5.49-1.23.7-1.79l1.42-3.14a35.92,35.92,0,0,1,2-4,4,4,0,0,1,.81-1,2.44,2.44,0,0,1,.73-.45V14c-.31,0-1.14,0-1.7,0l-2.33-.1,0,.18a1.79,1.79,0,0,1,.72.47,1.71,1.71,0,0,1,.43,1.24,10.28,10.28,0,0,1-1,3.69L133.58,22h-.06c-.35-1.12-.81-2.4-1.31-3.78-.23-.65-.46-1.39-.64-2A3.57,3.57,0,0,1,131.4,15c.06-.49.68-.83,1.3-1v-.18l-2.38,0c-.81,0-1.89-.09-2.14-.09v.19a2.72,2.72,0,0,1,1.31,1.54c.15.35.32.82.53,1.37a11.29,11.29,0,0,1-.83,2.51l-1.13,2.53H128c-.35-1.17-.81-2.46-1.3-3.84-.24-.65-.47-1.33-.65-2a4.39,4.39,0,0,1-.22-1.2,1.44,1.44,0,0,1,1.13-1V13.6l-2.38,0c-.81,0-1.89-.08-2.14-.09v.19a3.18,3.18,0,0,1,1.46,1.65c.56,1.1,1.55,3.74,2.3,5.82.38,1.08.77,2.17,1.11,3.26m-16.86-3.69-.06-.49c-.15-1-.25-1.85-.33-2.79a8.79,8.79,0,0,1-.1-1.86,4.58,4.58,0,0,1,.92-.22,5,5,0,0,1,3.34,1.13,5.1,5.1,0,0,1,1.59,3.14c.38,2.72-.84,4.71-2.84,5.35a2.17,2.17,0,0,1-1-.06,1.2,1.2,0,0,1-.82-.67,17.53,17.53,0,0,1-.73-3.53m-2.82,5.19,0,.18c.67-.11,1.62-.27,2.43-.39,1.21-.17,2.21-.25,3.17-.38A5.4,5.4,0,0,0,117.72,19a4.83,4.83,0,0,0-2.2-3.44,6,6,0,0,0-4.06-.71c-.88.13-2.21.36-3,.48s-1.68.24-2.44.3v.18a2.67,2.67,0,0,1,1.44.37,1.91,1.91,0,0,1,.7,1.23,30.37,30.37,0,0,1,.53,3l.06.46a18.29,18.29,0,0,1,.27,3.27,1.7,1.7,0,0,1-.53,1.22,2.39,2.39,0,0,1-.85.48M98,28.31l.06.17c.52-.14,1.62-.43,2.44-.62,1.23-.31,3.16-.74,4.74-1.13.29-.07.86-.22,1-.29,0-.76-.14-1.87-.21-2.9h-.19a5.87,5.87,0,0,1-1,2,5.57,5.57,0,0,1-1.47,1.3,2.43,2.43,0,0,1-1.39,0c-.46-.16-.75-.48-1-1.29s-.52-1.82-.73-2.69l-.26-1.07a14.42,14.42,0,0,1-.55-2.95c0-.61.33-1.16,1.27-1.62l0-.17-2.69.7c-.83.2-1.91.42-2.5.56l0,.17a2.06,2.06,0,0,1,1.56.45c.55.48.85,1.62,1.36,3.71l.28,1.15c.13.54.3,1.36.36,1.75a3.25,3.25,0,0,1,0,1.83,2.39,2.39,0,0,1-1,1M87.59,26.48l-.11-.3c-.38-1-1.06-2.86-1.36-4.06a5,5,0,0,1,.8-.39,2.88,2.88,0,0,1,2.1.07,2.43,2.43,0,0,1,1.3,1.38,3.53,3.53,0,0,1,.12,2.38,4.86,4.86,0,0,1-.51.23,14.16,14.16,0,0,1-2.34.69m-1.38,6.23.08.16c.5-.21,1.55-.64,2.33-.94s2.44-.88,3-1.1l0-.2a2.74,2.74,0,0,1-1.43.09,1.84,1.84,0,0,1-1.31-1.16c-.32-.67-.64-1.47-.92-2.21L87.78,27c.36-.14,1-.34,1.45-.52A18.05,18.05,0,0,0,92.86,29a4.34,4.34,0,0,0,1.64.48A3.13,3.13,0,0,0,96,29.28a5,5,0,0,0,1.49-.89l-.11-.15a1.46,1.46,0,0,1-.25.13,5.21,5.21,0,0,1-2.7-.58,16.41,16.41,0,0,1-3.52-2.16,3.32,3.32,0,0,0,1-3.53,2.09,2.09,0,0,0-1.65-1.33,5.72,5.72,0,0,0-3.15.52c-.9.35-2,.82-2.54,1-.36.13-1.75.65-2.24.8l0,.17a5.43,5.43,0,0,1,.88-.08,1.78,1.78,0,0,1,.93.31,3.19,3.19,0,0,1,.86,1.3c.29.65.65,1.55,1,2.57l.27.71c.2.52.47,1.32.58,1.69a3.31,3.31,0,0,1,.18,1.83,2.4,2.4,0,0,1-.91,1.1m-5.4,2.65a5.34,5.34,0,0,1-5.63-3,4.84,4.84,0,0,1,.66-5.78c2.16-.52,4.29.56,5.51,3a5.13,5.13,0,0,1-.54,5.78m0,.44A5.48,5.48,0,0,0,83,28.5a5.08,5.08,0,0,0-7-2.42,5.67,5.67,0,0,0-2.37,2.13,5.33,5.33,0,0,0-.12,5.31,5,5,0,0,0,3.33,2.74,5.72,5.72,0,0,0,3.93-.46M66.87,44.47l.16-.13c-.15-.51-.35-1.27-.52-1.85l-.76-3.36c-.14-.61-.31-1.23-.52-1.89,1,.65,2.26,1.45,3.29,2.12s1.94,1.25,2.86,1.92l.17-.14c-.16-.51-.35-1.27-.53-1.85l-.76-3.35a41.3,41.3,0,0,1-.87-4.42,4.35,4.35,0,0,1,.06-1.27,2.25,2.25,0,0,1,.32-.8l-.12-.13c-.25.19-.91.68-1.38,1s-1.46,1-1.91,1.33l.09.15a2,2,0,0,1,.86-.06,1.71,1.71,0,0,1,1.09.74A10.19,10.19,0,0,1,69.8,36l.63,2.7-.05,0c-1-.68-2.09-1.42-3.32-2.22-.58-.38-1.21-.83-1.73-1.22a3.48,3.48,0,0,1-.86-.86c-.25-.42,0-1.08.44-1.58l-.11-.13c-.6.42-1.49,1.09-1.93,1.4L61.1,35.37l.11.16a2.73,2.73,0,0,1,2,.43c.34.19.75.46,1.25.78a10.57,10.57,0,0,1,.85,2.5l.63,2.7,0,0c-1-.72-2.13-1.47-3.36-2.27-.58-.38-1.17-.78-1.69-1.17a4.38,4.38,0,0,1-.9-.83,1.43,1.43,0,0,1,.29-1.48l-.11-.14-1.93,1.4c-.66.47-1.56,1.07-1.76,1.22l.11.16a3.21,3.21,0,0,1,2.16.43c1.1.54,3.49,2.05,5.34,3.26,1,.62,1.92,1.26,2.85,1.92M52.12,56.8l.14.11,1.79-1.76c.92-.89,2.33-2.21,3.5-3.33l.78-.79c-.38-.63-1-1.47-1.61-2.35l-.16.12A5.74,5.74,0,0,1,56.68,51,5.41,5.41,0,0,1,56,52.8a2.24,2.24,0,0,1-1.16.66,1.72,1.72,0,0,1-1.54-.6c-.66-.57-1.36-1.31-2-2l-.13-.14a5,5,0,0,1,.57-.62,9.28,9.28,0,0,1,.82-.71,2,2,0,0,1,1.1-.41,2.72,2.72,0,0,1,.91.17l.13-.15c-.24-.23-.6-.59-1-1s-.76-.83-1-1.13l-.16.11a1.72,1.72,0,0,1,.16,1.12,2,2,0,0,1-.42.86,9.12,9.12,0,0,1-.77.78l-.67.65-.16-.18a42,42,0,0,1-2.84-3.2,3.9,3.9,0,0,1,.52-.6,4.27,4.27,0,0,1,2.35-1,6.13,6.13,0,0,1,2.09.2l.12-.16c-1.07-.87-1.4-1.28-2.13-1.82a14,14,0,0,0-1,1c-.63.6-1.61,1.58-3.14,3.06-.28.26-1.49,1.43-1.86,1.75l.11.14a4.21,4.21,0,0,1,.78-.42,1.74,1.74,0,0,1,1-.08A3.23,3.23,0,0,1,48,50c.53.49,1.21,1.17,2,2l.53.55c.39.4.95,1,1.2,1.33a3.21,3.21,0,0,1,.88,1.61,2.34,2.34,0,0,1-.41,1.37m-8.28,10,.15.1c.3-.41,1.1-1.42,1.62-2.08s1.16-1.38,1.55-1.84L47,62.85a1.94,1.94,0,0,1-1.3.35c-.75-.1-1.6-.69-3.43-2.17l-.17-.14c.48-.61,1-1.28,1.52-1.89s1-1.28,1.54-1.88l.62.49a19.38,19.38,0,0,1,1.71,1.49,2.44,2.44,0,0,1,.68,1.14A2.27,2.27,0,0,1,48,61.61l.16.1,1.54-2c.41-.5,1.08-1.28,1.55-1.85l-.12-.15a1.9,1.9,0,0,1-1,.4,2.59,2.59,0,0,1-1.23-.4,35.21,35.21,0,0,1-3.08-2.36c-.87-.7-1.51-1.24-2-1.68a2.47,2.47,0,0,1-.67-1,2.13,2.13,0,0,1,.13-1.4l-.17-.1c-.38.52-1,1.29-1.47,1.89s-1.1,1.31-1.51,1.79l.13.13a2.19,2.19,0,0,1,1.33-.32c.52.09.94.24,2.37,1.4l.87.7c-.53.69-1,1.29-1.51,1.9s-1,1.24-1.54,1.88l-.32-.25a14.65,14.65,0,0,1-2.23-2,1.78,1.78,0,0,1-.15-1.83l-.15-.1c-.42.54-1,1.31-1.53,2s-1.26,1.5-1.64,2l.13.12a2,2,0,0,1,1.5-.59c.75,0,1.71.8,3.47,2.22a25,25,0,0,1,2.68,2.36,2.08,2.08,0,0,1,.56,1.29,2.71,2.71,0,0,1-.27,1.07m-4.53,6.94.15.09c.27-.44,1-1.53,1.42-2.23s1.13-1.66,1.48-2.17l-.14-.11a2,2,0,0,1-1.4.68,2.56,2.56,0,0,1-1-.27,27,27,0,0,1-3.08-1.87c-.63-.41-1.49-1-2.15-1.43-.84-.57-1.21-.83-1.62-1.14.08-.15.29-.49.46-.75a3,3,0,0,1,1.65-.73,8.1,8.1,0,0,1,1.87-.1l.08-.18c-1.21-.6-1.7-.92-2.52-1.3a10.2,10.2,0,0,0-.65.9c-.29.44-1.21,1.89-1.76,2.72s-1.46,2.16-1.8,2.68-.41.65-.57,1c.68.6,1.16.93,2.19,1.8l.13-.15a7,7,0,0,1-.64-1.75,3.08,3.08,0,0,1,0-1.8c.2-.3.38-.56.49-.69.64.36,1.09.63,1.8,1.08l2.12,1.36a25.35,25.35,0,0,1,2.9,2.09,2.05,2.05,0,0,1,.68,1.23,2.69,2.69,0,0,1-.16,1.09M31.81,88.4l.17.06c.21-.49.68-1.53,1-2.29.54-1.15,1.41-2.93,2.09-4.4.13-.27.36-.81.44-1-.61-.47-1.56-1.06-2.4-1.66l-.11.16a5.92,5.92,0,0,1,.9,2,5.48,5.48,0,0,1,.09,2,2.41,2.41,0,0,1-.87,1.09,1.72,1.72,0,0,1-1.65,0c-.82-.3-1.74-.73-2.56-1.11l-1-.46a15.22,15.22,0,0,1-2.65-1.43,1.86,1.86,0,0,1-.46-2l-.17-.07c-.27.62-.79,1.79-1.14,2.53s-.87,1.76-1.12,2.31l.15.08a2,2,0,0,1,1.32-.93c.72-.13,1.81.35,3.75,1.25l1.07.51c.5.23,1.25.62,1.59.81A3.27,3.27,0,0,1,31.7,87a2.31,2.31,0,0,1,.11,1.43M28.5,97.69l.17,0c.17-.52.54-1.59.82-2.38.43-1.2,1.12-3.06,1.66-4.58.1-.29.28-.84.34-1-.65-.41-1.65-.91-2.55-1.42l-.09.17a5.85,5.85,0,0,1,1.09,1.91,5.6,5.6,0,0,1,.28,1.94,2.5,2.5,0,0,1-.77,1.16,1.71,1.71,0,0,1-1.64.14c-.85-.22-1.81-.56-2.66-.86l-1-.37a14.32,14.32,0,0,1-2.77-1.16,1.86,1.86,0,0,1-.65-2l-.17,0c-.22.64-.62,1.85-.9,2.63s-.7,1.83-.9,2.4l.17.07a2,2,0,0,1,1.22-1.06c.7-.2,1.83.17,3.85.9l1.11.39c.53.19,1.31.5,1.67.66a3.27,3.27,0,0,1,1.5,1,2.35,2.35,0,0,1,.25,1.41m-1.61,6.08.18,0c.12-.49.44-1.74.66-2.55s.51-1.71.69-2.3l-.17-.06a1.91,1.91,0,0,1-1.06.86c-.73.18-1.74,0-4.5-.8a18.69,18.69,0,0,1-3.42-1.12,1.7,1.7,0,0,1-.81-1.67l-.18,0c-.17.66-.42,1.67-.64,2.47s-.56,1.88-.73,2.46l.17.06A2,2,0,0,1,18.22,100c.71-.25,1.89.06,4.07.66a21.53,21.53,0,0,1,3.39,1.11,2,2,0,0,1,1,1,2.61,2.61,0,0,1,.18,1.09M25,113.22l.17,0c.1-.53.3-1.65.46-2.48s.56-2.53.68-3.13l-.2-.06a2.77,2.77,0,0,1-.69,1.26,1.83,1.83,0,0,1-1.69.48c-.86-.1-1.83-.29-2.71-.47l-.12,0a7.75,7.75,0,0,1,.14-.91,8.1,8.1,0,0,1,.27-1,1.85,1.85,0,0,1,.67-1,2.26,2.26,0,0,1,.84-.38l0-.2-1.34-.25c-.48-.1-1.09-.25-1.47-.36l-.07.18a1.82,1.82,0,0,1,.77.83,2,2,0,0,1,.14,1c0,.27-.1.66-.18,1.08l-.2,1-.31-.06a43,43,0,0,1-4.18-1,6.05,6.05,0,0,1,.11-.94,5,5,0,0,1,3.21-3.24v-.19c-1.37-.11-1.88-.24-2.79-.28-.1.35-.19.81-.31,1.41-.36,1.75-.61,3.12-.87,4.43-.08.38-.41,2-.54,2.55l.16.05a4.22,4.22,0,0,1,.41-.79,1.7,1.7,0,0,1,.75-.61,3,3,0,0,1,1.56,0c.71.1,1.65.27,2.73.49l.74.15c.55.11,1.31.29,1.74.41a3.23,3.23,0,0,1,1.64.82,2.32,2.32,0,0,1,.45,1.36m-7.14,12.85a2.61,2.61,0,0,1-.83-.59,2.77,2.77,0,0,1-.54-.87,2.64,2.64,0,0,1-.18-1,2.59,2.59,0,0,1,.24-1,2.64,2.64,0,0,1,.6-.83,2.84,2.84,0,0,1,.86-.54A2.64,2.64,0,0,1,19,121a2.6,2.6,0,0,1,1,.24,2.94,2.94,0,0,1,.83.6,2.84,2.84,0,0,1,.54.86,2.64,2.64,0,0,1,.18,1,2.79,2.79,0,0,1-.25,1,2.73,2.73,0,0,1-.59.83,2.77,2.77,0,0,1-.87.54,2.62,2.62,0,0,1-1,.18,2.79,2.79,0,0,1-1-.25m-.15,17.66a5,5,0,0,1-1.81-.29,2.82,2.82,0,0,1-1.27-1A4.08,4.08,0,0,1,14,140.6a3.91,3.91,0,0,1,.19-2,2.81,2.81,0,0,1,1-1.22,4.83,4.83,0,0,1,1.69-.69,18.48,18.48,0,0,1,2.21-.37,21,21,0,0,1,2.25-.15,5.23,5.23,0,0,1,1.8.29,2.64,2.64,0,0,1,1.24,1,4.08,4.08,0,0,1,.61,1.87,4.16,4.16,0,0,1-.16,2,2.65,2.65,0,0,1-1,1.22,5,5,0,0,1-1.68.7c-.67.15-1.41.27-2.22.37a20.52,20.52,0,0,1-2.24.14m3.81-2.55a4.74,4.74,0,0,0,1.19-.35,1.34,1.34,0,0,0,.64-.53,1.31,1.31,0,0,0,.13-.79,1.29,1.29,0,0,0-.31-.74,1.33,1.33,0,0,0-.73-.37,5.19,5.19,0,0,0-1.25-.07c-.51,0-1.12.08-1.83.16s-1.32.17-1.81.26a5.26,5.26,0,0,0-1.2.35,1.34,1.34,0,0,0-.64.53,1.31,1.31,0,0,0-.13.79,1.23,1.23,0,0,0,.31.74,1.33,1.33,0,0,0,.74.37,5.19,5.19,0,0,0,1.25.07c.5,0,1.1-.08,1.82-.16s1.32-.17,1.82-.26m-4.21,7.37a1,1,0,0,0-.33,1.09,1,1,0,0,0,.34.62,1.48,1.48,0,0,0,.77.27,7.26,7.26,0,0,0,1.29,0c.52-.07,1.16-.16,1.9-.31a17.52,17.52,0,0,0,1.92-.45,4.27,4.27,0,0,0,1.09-.46,1.08,1.08,0,0,0,.46-.54,1.28,1.28,0,0,0,0-.62,1.23,1.23,0,0,0-.2-.5.89.89,0,0,0-.46-.35,2.73,2.73,0,0,0-.86-.13,8.66,8.66,0,0,0-1.4.16l-.4-2.12a8.7,8.7,0,0,1,1.64-.17,3.89,3.89,0,0,1,1.44.23,2.54,2.54,0,0,1,1.09.85,3.88,3.88,0,0,1,.65,1.64,4.15,4.15,0,0,1,0,2,2.74,2.74,0,0,1-.9,1.3,5,5,0,0,1-1.63.81,20.15,20.15,0,0,1-2.19.53,20,20,0,0,1-2.22.31,4.78,4.78,0,0,1-1.82-.16,2.71,2.71,0,0,1-1.34-.86,4,4,0,0,1-.77-1.82,3.8,3.8,0,0,1,0-1.86,2.49,2.49,0,0,1,.75-1.16,3.29,3.29,0,0,1,1.14-.64,11.68,11.68,0,0,1,1.22-.32l.4,2.13a3.85,3.85,0,0,0-1.62.59m9.91,4.25.47,1.92-2.28.55-.46-1.92Zm-.52,9.09a4.59,4.59,0,0,0,.63-.27,1.27,1.27,0,0,0,.42-.37,1.15,1.15,0,0,0,.18-.53,1.87,1.87,0,0,0-.1-.7,1.4,1.4,0,0,0-.59-.75,1.25,1.25,0,0,0-1.07-.07,2,2,0,0,0-.56.29,1.43,1.43,0,0,0-.35.45,2.11,2.11,0,0,0-.18.68c0,.27,0,.59-.06,1a7.68,7.68,0,0,1-.11,1.35,3.28,3.28,0,0,1-.36,1,2.28,2.28,0,0,1-.69.76,3.68,3.68,0,0,1-1.05.52,3,3,0,0,1-2.53-.11,3.58,3.58,0,0,1-1.49-2.07,5.48,5.48,0,0,1-.25-1.31,2.6,2.6,0,0,1,.16-1.16,2.33,2.33,0,0,1,.64-.93,3,3,0,0,1,1.17-.64l.28-.1.64,2a2.19,2.19,0,0,0-1,.62,1,1,0,0,0-.12,1,1.52,1.52,0,0,0,.29.54.92.92,0,0,0,.38.28.82.82,0,0,0,.44.06,1.8,1.8,0,0,0,.45-.09,1.52,1.52,0,0,0,.73-.45,1.94,1.94,0,0,0,.32-1L23,160a5.26,5.26,0,0,1,.22-1.13,2.88,2.88,0,0,1,.41-.78,2.1,2.1,0,0,1,.61-.54,4,4,0,0,1,.83-.36,2.94,2.94,0,0,1,2.64.17,4.38,4.38,0,0,1,1.58,2.37,3.57,3.57,0,0,1,.05,2.73,3,3,0,0,1-1.92,1.45L27,164,26.38,162Zm-4.24,5.83,1.45,3.54,2.33-1L24.85,167l1.64-.67,1.36,3.33,2.67-1.09L29,164.86l1.64-.67L33,169.87l-9.9,4-2.27-5.53Zm2.61,10.44-.92-1.95,9.69-4.55.92,2Zm7.12,3.52a1.74,1.74,0,0,0-.91-.86,1.59,1.59,0,0,0-1.28.24,1.32,1.32,0,0,0-.55,2l.5.88,2.68-1.52Zm-4.53,1.5a3,3,0,0,1-.43-2.17,2.67,2.67,0,0,1,1.43-1.67,3.18,3.18,0,0,1,1.75-.49,2,2,0,0,1,1.43.74h0a1.88,1.88,0,0,1-.12-1.29,2.23,2.23,0,0,1,.9-1l.54-.36.68-.41c.48-.3.85-.54,1.09-.72a.88.88,0,0,0,.34-.65l.08,0,1.15,2a1.06,1.06,0,0,1-.35.44c-.15.12-.32.24-.49.35L33.9,179a1.65,1.65,0,0,0-.71.76,1.17,1.17,0,0,0,.16,1l.57,1,3.94-2.24,1.07,1.88-9.32,5.28Zm9.83,9.87a4.92,4.92,0,0,1-1.74.57,2.76,2.76,0,0,1-1.57-.28A3.87,3.87,0,0,1,32.74,192a3.94,3.94,0,0,1-.73-1.84,2.7,2.7,0,0,1,.34-1.55,5,5,0,0,1,1.18-1.4,22.19,22.19,0,0,1,1.8-1.34,20.11,20.11,0,0,1,1.93-1.16,4.65,4.65,0,0,1,1.73-.56,2.59,2.59,0,0,1,1.55.28,5,5,0,0,1,2.16,3.21,2.7,2.7,0,0,1-.32,1.55,5.11,5.11,0,0,1-1.18,1.38,18.94,18.94,0,0,1-1.81,1.35,20.89,20.89,0,0,1-1.92,1.16m2.22-4a5.82,5.82,0,0,0,.9-.86,1.35,1.35,0,0,0,.32-.75,1.48,1.48,0,0,0-.86-1.29,1.43,1.43,0,0,0-.82,0,5.32,5.32,0,0,0-1.14.51c-.44.26-1,.58-1.56,1s-1.09.75-1.48,1.06a4.78,4.78,0,0,0-.91.86,1.33,1.33,0,0,0-.33.76,1.27,1.27,0,0,0,.25.76,1.24,1.24,0,0,0,.61.52,1.47,1.47,0,0,0,.83,0,5.48,5.48,0,0,0,1.14-.52c.44-.24,1-.57,1.55-1s1.1-.76,1.5-1.07m-2.19,6.34L39,197.21l7-5.53,1.33,1.7-7,5.52,1.45,1.84-1.39,1.1-4.23-5.38Zm13,6.33a3.53,3.53,0,0,0,.46-.51,1.26,1.26,0,0,0,.23-.52,1.08,1.08,0,0,0-.06-.55,1.76,1.76,0,0,0-.38-.59,1.38,1.38,0,0,0-.84-.44,1.21,1.21,0,0,0-1,.38,1.92,1.92,0,0,0-.4.49,1.32,1.32,0,0,0-.13.56,2.33,2.33,0,0,0,.12.69,8.61,8.61,0,0,0,.35.91,8,8,0,0,1,.46,1.27,3.55,3.55,0,0,1,.1,1.1,2.43,2.43,0,0,1-.3,1,3.81,3.81,0,0,1-.75.91,3,3,0,0,1-2.34,1,3.61,3.61,0,0,1-2.22-1.27,5.44,5.44,0,0,1-.78-1.08,2.77,2.77,0,0,1-.33-1.12,2.43,2.43,0,0,1,.19-1.12,3.19,3.19,0,0,1,.81-1.06l.22-.21L45.35,203a2.13,2.13,0,0,0-.68,1,1,1,0,0,0,.3.94,1.63,1.63,0,0,0,.48.37.93.93,0,0,0,.47.1.9.9,0,0,0,.42-.13,1.89,1.89,0,0,0,.38-.27,1.58,1.58,0,0,0,.47-.72A1.89,1.89,0,0,0,47,203.2l-.59-1.71a6.06,6.06,0,0,1-.27-1.13,2.81,2.81,0,0,1,0-.88,2.05,2.05,0,0,1,.33-.74,4.53,4.53,0,0,1,.6-.67,3,3,0,0,1,2.48-.95,4.39,4.39,0,0,1,2.42,1.5,3.58,3.58,0,0,1,1.18,2.46,3.09,3.09,0,0,1-1.15,2.12l-.32.3-1.46-1.59Zm.51,8.61a1.06,1.06,0,0,0,.37,1.08,1,1,0,0,0,.64.3,1.35,1.35,0,0,0,.78-.23,6.19,6.19,0,0,0,1-.78c.39-.36.84-.81,1.36-1.37a15.89,15.89,0,0,0,1.28-1.49,4.06,4.06,0,0,0,.61-1,1.08,1.08,0,0,0,.07-.71,1.3,1.3,0,0,0-.34-.52,1.42,1.42,0,0,0-.46-.29.88.88,0,0,0-.58,0,2.48,2.48,0,0,0-.77.4,8.28,8.28,0,0,0-1,1l-1.57-1.48a9,9,0,0,1,1.23-1.11,3.53,3.53,0,0,1,1.3-.65,2.41,2.41,0,0,1,1.38,0,3.8,3.8,0,0,1,1.48.95A4,4,0,0,1,59,206a2.66,2.66,0,0,1,0,1.58,4.9,4.9,0,0,1-.84,1.61,20.66,20.66,0,0,1-1.46,1.72,21,21,0,0,1-1.61,1.56,5.15,5.15,0,0,1-1.57.94,2.78,2.78,0,0,1-1.59.08,3.92,3.92,0,0,1-1.69-1,3.71,3.71,0,0,1-1.07-1.52,2.53,2.53,0,0,1-.08-1.38,3.49,3.49,0,0,1,.55-1.19c.27-.36.54-.68.8-1L52,208.88a4,4,0,0,0-1,1.43m5.68,7.44-1.68-1.36,6.73-8.32,1.68,1.36Zm10.18-2a4.14,4.14,0,0,0,.35-.59,1.12,1.12,0,0,0,.12-.55,1,1,0,0,0-.16-.52,1.67,1.67,0,0,0-.49-.51,1.33,1.33,0,0,0-.91-.27,1.22,1.22,0,0,0-.91.57,1.88,1.88,0,0,0-.29.56,1.36,1.36,0,0,0,0,.57,2.31,2.31,0,0,0,.26.66,6.65,6.65,0,0,0,.52.82,7.82,7.82,0,0,1,.69,1.16,3.14,3.14,0,0,1,.32,1.06,2.38,2.38,0,0,1-.11,1,3.59,3.59,0,0,1-.55,1,3,3,0,0,1-2.11,1.39,3.59,3.59,0,0,1-2.42-.8,5.43,5.43,0,0,1-1-.92,2.79,2.79,0,0,1-.55-1,2.39,2.39,0,0,1,0-1.13,3.12,3.12,0,0,1,.57-1.2l.18-.24,1.67,1.21a2.21,2.21,0,0,0-.48,1.11,1,1,0,0,0,.49.87,1.52,1.52,0,0,0,.54.27,1,1,0,0,0,.48,0,1.06,1.06,0,0,0,.39-.21,2,2,0,0,0,.31-.34,1.53,1.53,0,0,0,.33-.8,2,2,0,0,0-.36-1l-.92-1.56a4.71,4.71,0,0,1-.48-1,2.54,2.54,0,0,1-.13-.88,1.93,1.93,0,0,1,.18-.78,3.91,3.91,0,0,1,.45-.78,2.91,2.91,0,0,1,2.25-1.41,4.33,4.33,0,0,1,2.67,1,3.6,3.6,0,0,1,1.64,2.18,3.09,3.09,0,0,1-.71,2.31l-.26.35L66.73,216ZM74,220.56a4.13,4.13,0,0,0,.33-.67,1.51,1.51,0,0,0,.13-.6,1,1,0,0,0-.13-.53,1.28,1.28,0,0,0-.47-.45,1.22,1.22,0,0,0-.61-.19,1,1,0,0,0-.53.14,1.7,1.7,0,0,0-.46.4,5,5,0,0,0-.43.61l-3.8,6.43-1.86-1.1L70,218.17a4.18,4.18,0,0,1,1.1-1.3,2.59,2.59,0,0,1,2.41-.42,5.77,5.77,0,0,1,1.16.54,6.56,6.56,0,0,1,1,.75,2.58,2.58,0,0,1,.69,1,2.54,2.54,0,0,1,.13,1.28,4.64,4.64,0,0,1-.65,1.66l-3.8,6.42L70.24,227Zm6.28,11.66,1.82-7.49h0l-4.6,6.18-2.89-1.35,4.54-9.69,1.79.83-3.62,7.75h0l5.35-6.93,1.52.71-1.9,8.54,0,0L86,223.05l1.8.84-4.54,9.69Z" transform="translate(0 0)"/></g><polygon points="81.16 92.04 85.78 114.87 85.87 114.87 90.53 92.04 100.18 92.04 100.18 124.38 94.2 124.38 94.2 98.56 94.11 98.56 88.36 124.38 83.29 124.38 77.54 98.56 77.45 98.56 77.45 124.38 71.47 124.38 71.47 92.04 81.16 92.04"/><g class="cls-2"><path d="M110.87,114.59a15.53,15.53,0,0,0,.15,2.25,5.29,5.29,0,0,0,.59,1.76,3.18,3.18,0,0,0,1.18,1.18,3.71,3.71,0,0,0,1.88.43,3.64,3.64,0,0,0,1.9-.43,3.2,3.2,0,0,0,1.16-1.18,5.29,5.29,0,0,0,.59-1.76,15.53,15.53,0,0,0,.15-2.25V92H125v22.55a13.12,13.12,0,0,1-.85,5.1,8.23,8.23,0,0,1-2.31,3.19,7.78,7.78,0,0,1-3.31,1.59,18,18,0,0,1-3.85.4,20.19,20.19,0,0,1-3.85-.36,7.73,7.73,0,0,1-3.3-1.47,7.49,7.49,0,0,1-2.31-3.15,13.65,13.65,0,0,1-.86-5.3V92h6.52Z" transform="translate(0 0)"/><path d="M134.84,115.23a10.1,10.1,0,0,0,.19,2.06,3.48,3.48,0,0,0,.68,1.56,3.32,3.32,0,0,0,1.33,1,5.37,5.37,0,0,0,2.11.36,4.12,4.12,0,0,0,2.69-1,3.63,3.63,0,0,0,1.2-3,5.24,5.24,0,0,0-.3-1.87,3.54,3.54,0,0,0-1-1.43,7.12,7.12,0,0,0-1.78-1.16,27.77,27.77,0,0,0-2.75-1.06,23.11,23.11,0,0,1-3.76-1.59,10,10,0,0,1-2.64-2,7.34,7.34,0,0,1-1.57-2.67,11.32,11.32,0,0,1-.49-3.51q0-4.8,2.67-7.16a10.69,10.69,0,0,1,7.33-2.35,16.28,16.28,0,0,1,4,.47A8.53,8.53,0,0,1,146,93.42,7.15,7.15,0,0,1,148,96.14a9.52,9.52,0,0,1,.75,4V101h-6.25a6.56,6.56,0,0,0-.81-3.56A3,3,0,0,0,139,96.21a4.38,4.38,0,0,0-1.81.32,2.83,2.83,0,0,0-1.75,2,6.55,6.55,0,0,0-.15,1.41,4.7,4.7,0,0,0,.63,2.51,5.65,5.65,0,0,0,2.72,1.88l5,2.17a16,16,0,0,1,3,1.7,8.64,8.64,0,0,1,1.88,1.9,6.31,6.31,0,0,1,1,2.24,12.73,12.73,0,0,1,.27,2.72c0,3.41-1,5.9-3,7.45s-4.74,2.33-8.27,2.33q-5.52,0-7.9-2.4c-1.58-1.6-2.38-3.89-2.38-6.88v-1.31h6.52Z" transform="translate(0 0)"/><rect x="153.1" y="92.04" width="6.52" height="32.33"/><path d="M177.12,97.82a3.13,3.13,0,0,0-3.06-1.61,3,3,0,0,0-2,.66A4.27,4.27,0,0,0,170.8,99a18.43,18.43,0,0,0-.63,3.85q-.18,2.39-.18,5.82a58.55,58.55,0,0,0,.24,5.93,13.53,13.53,0,0,0,.77,3.51,3.21,3.21,0,0,0,1.32,1.68,3.75,3.75,0,0,0,1.83.43,4.51,4.51,0,0,0,1.61-.29,2.73,2.73,0,0,0,1.29-1.18,7.7,7.7,0,0,0,.86-2.49,22.86,22.86,0,0,0,.32-4.24h6.52a29.27,29.27,0,0,1-.41,5,11.12,11.12,0,0,1-1.52,4.12,7.58,7.58,0,0,1-3.12,2.77,11.89,11.89,0,0,1-5.23,1,12.35,12.35,0,0,1-5.84-1.17,8,8,0,0,1-3.33-3.4,15.07,15.07,0,0,1-1.5-5.3,67.77,67.77,0,0,1,0-13.56,15.06,15.06,0,0,1,1.5-5.32,8.37,8.37,0,0,1,3.33-3.47,11.73,11.73,0,0,1,5.84-1.24,11.32,11.32,0,0,1,5.5,1.13,7.61,7.61,0,0,1,3,2.88,9.9,9.9,0,0,1,1.25,3.75,32.38,32.38,0,0,1,.25,3.79H178a11.69,11.69,0,0,0-.84-5.14" transform="translate(0 0)"/><path d="M59.51,155.16a10,10,0,0,0,.19,2.06,3.48,3.48,0,0,0,.68,1.56,3.23,3.23,0,0,0,1.33,1,5.37,5.37,0,0,0,2.11.36,4.16,4.16,0,0,0,2.69-1,3.65,3.65,0,0,0,1.2-3,5.3,5.3,0,0,0-.3-1.88,3.61,3.61,0,0,0-1-1.43,7.11,7.11,0,0,0-1.78-1.15,27.57,27.57,0,0,0-2.75-1.07,24.05,24.05,0,0,1-3.76-1.58,10.19,10.19,0,0,1-2.64-2,7.34,7.34,0,0,1-1.57-2.67,11.32,11.32,0,0,1-.49-3.51q0-4.8,2.67-7.15a10.69,10.69,0,0,1,7.33-2.36,15.8,15.8,0,0,1,4,.48,8.23,8.23,0,0,1,3.17,1.54,7.11,7.11,0,0,1,2.08,2.71,9.6,9.6,0,0,1,.75,4v.9H67.21a6.5,6.5,0,0,0-.81-3.55,3,3,0,0,0-2.72-1.25,4.55,4.55,0,0,0-1.81.32,3,3,0,0,0-1.16.84,2.94,2.94,0,0,0-.59,1.2,6.46,6.46,0,0,0-.15,1.4,4.68,4.68,0,0,0,.63,2.51,5.65,5.65,0,0,0,2.72,1.88l5,2.18a15.5,15.5,0,0,1,3,1.7,8.23,8.23,0,0,1,1.88,1.9,6.23,6.23,0,0,1,1,2.24A12.59,12.59,0,0,1,74.5,155q0,5.11-3,7.45t-8.27,2.33q-5.52,0-7.9-2.4c-1.58-1.6-2.38-3.9-2.38-6.89v-1.31h6.52Z" transform="translate(0 0)"/><polygon points="96.69 137.32 89.63 137.32 89.63 164.31 83.11 164.31 83.11 137.32 76.04 137.32 76.04 131.98 96.69 131.98 96.69 137.32"/><path d="M99,141.37a15.06,15.06,0,0,1,1.5-5.32,8.35,8.35,0,0,1,3.33-3.46,14.27,14.27,0,0,1,11.68,0,8.35,8.35,0,0,1,3.33,3.46,14.85,14.85,0,0,1,1.49,5.32,67.87,67.87,0,0,1,0,13.57,14.81,14.81,0,0,1-1.49,5.29,8,8,0,0,1-3.33,3.4,15,15,0,0,1-11.68,0,8,8,0,0,1-3.33-3.4,15,15,0,0,1-1.5-5.29,69.92,69.92,0,0,1,0-13.57m6.35,12.32a15,15,0,0,0,.63,3.71,4.18,4.18,0,0,0,1.36,2.09,4.5,4.5,0,0,0,4.66,0,4.18,4.18,0,0,0,1.36-2.09,15,15,0,0,0,.63-3.71c.11-1.53.16-3.37.16-5.55s0-4-.16-5.52a15.36,15.36,0,0,0-.63-3.72,4.16,4.16,0,0,0-1.36-2.1,4.44,4.44,0,0,0-4.66,0,4.16,4.16,0,0,0-1.36,2.1,15.36,15.36,0,0,0-.63,3.72c-.11,1.51-.16,3.35-.16,5.52s.05,4,.16,5.55" transform="translate(0 0)"/><path d="M136.88,132a9.09,9.09,0,0,1,6.34,2.05q2.26,2.07,2.27,6.28a9.73,9.73,0,0,1-1.32,5.32,6.07,6.07,0,0,1-4.07,2.65v.09a6,6,0,0,1,3.58,1.58,6.76,6.76,0,0,1,1.4,3.94c.06.61.1,1.26.14,2s.05,1.5.09,2.38c.06,1.72.15,3,.27,3.94a2.55,2.55,0,0,0,1.17,1.86v.27h-7.06a3.37,3.37,0,0,1-.63-1.57c-.09-.58-.15-1.19-.19-1.83l-.18-6.2a5.07,5.07,0,0,0-.95-3,3.5,3.5,0,0,0-2.9-1.09h-3.48v13.68h-6.52V132Zm-2.81,14.12a5.41,5.41,0,0,0,3.63-1.1,4.8,4.8,0,0,0,1.27-3.74q0-4.48-4.53-4.48h-3.08v9.32Z" transform="translate(0 0)"/><rect x="149.97" y="131.98" width="6.52" height="32.33"/><polygon points="179 137.32 167.45 137.32 167.45 144.93 178.32 144.93 178.32 150.27 167.45 150.27 167.45 158.97 179.45 158.97 179.45 164.31 160.93 164.31 160.93 131.98 179 131.98 179 137.32"/><path d="M188.23,155.16a10,10,0,0,0,.19,2.06,3.48,3.48,0,0,0,.68,1.56,3.23,3.23,0,0,0,1.33,1,5.37,5.37,0,0,0,2.11.36,4.16,4.16,0,0,0,2.69-1,3.65,3.65,0,0,0,1.2-3,5.54,5.54,0,0,0-.29-1.88,3.74,3.74,0,0,0-1-1.43,7,7,0,0,0-1.79-1.15,26.37,26.37,0,0,0-2.74-1.07,23.51,23.51,0,0,1-3.75-1.58,10.07,10.07,0,0,1-2.65-2,7.18,7.18,0,0,1-1.56-2.67,11,11,0,0,1-.5-3.51q0-4.8,2.67-7.15a10.71,10.71,0,0,1,7.33-2.36,15.8,15.8,0,0,1,4,.48,8.23,8.23,0,0,1,3.17,1.54,7.24,7.24,0,0,1,2.09,2.71,9.77,9.77,0,0,1,.74,4v.9h-6.25a6.5,6.5,0,0,0-.81-3.55,3,3,0,0,0-2.72-1.25,4.55,4.55,0,0,0-1.81.32,3,3,0,0,0-1.16.84,2.8,2.8,0,0,0-.58,1.2,5.89,5.89,0,0,0-.16,1.4,4.68,4.68,0,0,0,.63,2.51,5.65,5.65,0,0,0,2.72,1.88l5,2.18a15.31,15.31,0,0,1,3,1.7,8.23,8.23,0,0,1,1.88,1.9,6.23,6.23,0,0,1,1,2.24,12.59,12.59,0,0,1,.27,2.72q0,5.11-3,7.45c-2,1.55-4.73,2.33-8.27,2.33s-6.31-.8-7.9-2.4-2.38-3.9-2.38-6.89v-1.31h6.52Z" transform="translate(0 0)"/></g><path d="M11.33,416.33v.42c0,1.34.38,2.2,1.9,2.2A1.65,1.65,0,0,0,15,417.19c0-1.3-.66-1.78-2.56-2.44-2.56-.88-3.74-1.94-3.74-4.32,0-2.78,1.7-4.2,4.42-4.2,2.56,0,4.42,1.1,4.42,3.84v.4H14.73c0-1.34-.46-2.12-1.56-2.12A1.47,1.47,0,0,0,11.53,410c0,.88.26,1.42,1.48,1.94l2.22,1c2.16.94,2.72,2,2.72,3.78,0,3-1.84,4.38-5,4.38s-4.54-1.52-4.54-4.16v-.58Z" transform="translate(0 0)"/><path d="M22.09,406.51v10c0,1.42.34,2.48,1.68,2.48s1.68-1.06,1.68-2.48v-10h2.88v10c0,3.64-2.22,4.6-4.56,4.6s-4.56-.78-4.56-4.6v-10Z" transform="translate(0 0)"/><path d="M30.15,406.51h5c2.92,0,3.92,2.14,3.92,4.28,0,3-1.82,4.3-4.54,4.3H33v5.7H30.15ZM33,413h1.28c1.14,0,1.92-.68,1.92-2.14s-.56-2.2-2-2.2H33Z" transform="translate(0 0)"/><path d="M40.49,406.51h5c2.92,0,3.92,2.14,3.92,4.28,0,3-1.82,4.3-4.54,4.3H43.37v5.7H40.49ZM43.37,413h1.28c1.14,0,1.92-.68,1.92-2.14s-.56-2.2-2-2.2h-1.2Z" transform="translate(0 0)"/><path d="M55.49,406.23c4.32,0,4.86,3.08,4.86,7.42s-.54,7.42-4.86,7.42-4.86-3.08-4.86-7.42S51.17,406.23,55.49,406.23Zm0,12.72c1.7,0,2-1.46,2-5.3s-.28-5.3-2-5.3-2,1.48-2,5.3S53.79,419,55.49,419Z" transform="translate(0 0)"/><path d="M62,406.51h5.32c2.36,0,3.8,1.24,3.8,3.68,0,1.9-.76,3.18-2.38,3.52v0c2,.26,2.26,1.34,2.3,4.36,0,1.5.1,2.28.64,2.56v.12H68.57a2.78,2.78,0,0,1-.36-1.5l-.08-2.74c0-1.12-.54-1.8-1.7-1.8H64.89v6H62Zm2.88,6.24h1.2a1.88,1.88,0,0,0,2.16-2.14,1.77,1.77,0,0,0-2-2H64.89Z" transform="translate(0 0)"/><path d="M81.47,406.51v2.36H78.35v11.92H75.47V408.87H72.35v-2.36Z" transform="translate(0 0)"/><path d="M82.81,420.79V406.51h2.88v14.28Z" transform="translate(0 0)"/><path d="M91,406.51l3.48,9.78h0v-9.78h2.64v14.28H93.89l-3.52-10h0v10H87.69V406.51Z" transform="translate(0 0)"/><path d="M105.39,410.75c0-1.06-.48-2.4-1.64-2.4-1.4,0-2,1.44-2,5s.32,5.6,2,5.6a2.1,2.1,0,0,0,1.78-2.28v-1.46h-1.9v-2.12h4.66v7.7h-2.12v-1.32h0a3.21,3.21,0,0,1-3,1.6c-3.54,0-4.24-2.64-4.24-7.58s1.12-7.26,4.8-7.26c3.16,0,4.44,1.62,4.44,4.52Z" transform="translate(0 0)"/><path d="M115,406.51h4.28l2,10.08h0l2.06-10.08h4.26v14.28h-2.64v-11.4h0l-2.54,11.4h-2.24l-2.54-11.4h0v11.4H115Z" transform="translate(0 0)"/><path d="M132.47,406.51v10c0,1.42.34,2.48,1.68,2.48s1.68-1.06,1.68-2.48v-10h2.88v10c0,3.64-2.22,4.6-4.56,4.6s-4.56-.78-4.56-4.6v-10Z" transform="translate(0 0)"/><path d="M142.87,416.33v.42c0,1.34.38,2.2,1.9,2.2a1.65,1.65,0,0,0,1.72-1.76c0-1.3-.66-1.78-2.56-2.44-2.56-.88-3.74-1.94-3.74-4.32,0-2.78,1.7-4.2,4.42-4.2,2.56,0,4.42,1.1,4.42,3.84v.4h-2.76c0-1.34-.46-2.12-1.56-2.12a1.47,1.47,0,0,0-1.64,1.66c0,.88.26,1.42,1.48,1.94l2.22,1c2.16.94,2.72,2,2.72,3.78,0,3-1.84,4.38-5,4.38s-4.54-1.52-4.54-4.16v-.58Z" transform="translate(0 0)"/><path d="M150.93,420.79V406.51h2.88v14.28Z" transform="translate(0 0)"/><path d="M161.93,411.33c0-2.08-.42-3-1.72-3-1.46,0-1.8,1.46-1.8,5.5,0,4.32.6,5.1,1.84,5.1,1,0,1.8-.54,1.8-3.62h2.88c0,3.08-.76,5.74-4.54,5.74-4.32,0-4.86-3.08-4.86-7.42s.54-7.42,4.86-7.42c4.12,0,4.42,3,4.42,5.1Z" transform="translate(0 0)"/><path d="M169.25,406.51h3.56l3.78,14.28h-3l-.66-3h-3.8l-.66,3h-3Zm.38,8.9h2.8L171.05,409h0Z" transform="translate(0 0)"/><path d="M177.73,420.79V406.51h2.88v11.92h5.1v2.36Z" transform="translate(0 0)"/><path d="M200.15,406.51v2.36H197v11.92h-2.88V408.87H191v-2.36Z" transform="translate(0 0)"/><path d="M203.13,406.51h3.56l3.78,14.28h-3l-.66-3H203l-.66,3h-3Zm.38,8.9h2.8L204.93,409h0Z" transform="translate(0 0)"/><path d="M211.61,420.79V406.51h2.88v11.92h5.1v2.36Z" transform="translate(0 0)"/><path d="M228.87,406.51v2.36h-5.1v3.36h4.8v2.36h-4.8v3.84h5.3v2.36h-8.19V406.51Z" transform="translate(0 0)"/><path d="M233.77,406.51l3.48,9.78h0v-9.78h2.64v14.28h-3.28l-3.52-10h0v10h-2.65V406.51Z" transform="translate(0 0)"/><path d="M250.31,406.51v2.36h-3.12v11.92h-2.88V408.87h-3.13v-2.36Z" transform="translate(0 0)"/><path d="M30.34,326.93a7,7,0,0,0,2.24-4.32c.26-1.41.52-4.53.52-12.39,0-2.45-.05-6.67-.1-8.75,0-2.92-.11-4.74-.31-7.29-.58-.06-1.67-.11-2.92-.11a10.75,10.75,0,0,0-5.26,3.39,25.1,25.1,0,0,0-3.86,5.2l-.67-.1c.57-4.63.57-6.66,1-9.79,1.15-.1,2.24-.16,3.85-.16,2.14,0,7.76.11,11.2.11s9.43-.11,11.25-.11c1.51,0,2.71.06,3.85.16.47,3.13.47,5.16,1,9.79l-.67.1a27,27,0,0,0-3.86-5.2c-2-2-3.49-3-5.26-3.39-1.09,0-2.5.05-3.07.11-.1,1.77-.16,3.33-.21,6.87,0,2.76,0,6.35,0,9a96.15,96.15,0,0,0,.47,12.5,9,9,0,0,0,1,3.28c.78,1.3,2.29,2.24,4.64,2.76l-.06.62c-2.13-.05-6.56-.15-9.11-.15-2.92,0-7.4.1-9.17.15l0-.62A9.46,9.46,0,0,0,30.34,326.93Z" transform="translate(0 0)"/><path d="M52.68,326.93a14.11,14.11,0,0,0,2.71-3.28,132.81,132.81,0,0,0,7.45-14.48L67.94,298c.78-2,1.72-4.53,2.29-6.2l.78-.05c1.62,3.8,3.23,7.5,4.9,11.2,3.18,7.13,7.29,16.19,9.63,19.94,1.62,2.61,3.6,4.95,5.89,5.58l-.05.67c-.94,0-5.11-.1-8.23-.1-2.08,0-5.78.1-8.59.1l-.06-.62c1.93-.47,3.86-1.72,4.27-3.49a14.17,14.17,0,0,0-1-4.27c-.62-1.67-1.4-3.39-2.18-5.16-1.93-.05-4.17-.05-6.67-.05s-5.1,0-7,.05a21.43,21.43,0,0,0-1.51,7.09A6,6,0,0,0,62.06,327a6.63,6.63,0,0,0,2.5,1.51l-.06.62c-2.13,0-5.78-.1-8.22-.1-1.77,0-4.48.05-6,.1l-.06-.62A10,10,0,0,0,52.68,326.93ZM74.82,314c-2-4.58-4-8.75-6.15-13.39h-.16L64.3,309.8c-.73,1.56-1.36,3-1.83,4.22,1.62.1,4.27.1,6.41.1S73,314.12,74.82,314Z" transform="translate(0 0)"/><path d="M97.31,326.1c1-1.3,1.51-3.54,1.67-6.15.1-1.35.21-4.27.21-6.19v-4.12c0-7.44-.11-11.56-1.56-13.64a7.06,7.06,0,0,0-4.9-2.76l0-.63c2.09,0,5.94.16,8.91.16s7.29-.1,9.63-.16l.05.63c-3.54.78-5.05,2.39-5.62,4.43-.52,1.82-.57,5.41-.57,10.41v3.8c0,3.13,0,6.67.26,9.69s1,4.27,2.39,5.21a8.51,8.51,0,0,0,4.69,1.14,18.72,18.72,0,0,0,6-3.17,20.33,20.33,0,0,0,5-5.78l.68.1c-.63,3.54-1.1,7.39-1.67,10-.73.05-2.76.1-3.8.1-5.63,0-12.5-.1-16.93-.1-2.91,0-6.87.05-8.75.1l-.05-.62A8,8,0,0,0,97.31,326.1Z" transform="translate(0 0)"/><path d="M130.38,326.1c1-1.3,1.51-3.54,1.67-6.15.1-1.35.21-4.27.21-6.19V311.1c0-3.8,0-7.13-.21-9.63s-.42-4.07-1.2-5.26a6,6,0,0,0-2.6-2.14,14.48,14.48,0,0,0-3-.83l0-.63c1.72.11,7.55.11,8.91.11,7.39,0,12.18-.11,15.2-.11,2.09,0,3.7.06,4.9.16.52,3.13.36,5,.94,9.69l-.68.1a20.85,20.85,0,0,0-4.74-5.52,15.09,15.09,0,0,0-8.23-3.23,14.71,14.71,0,0,0-2.76.26,148.41,148.41,0,0,0-.62,14.84v.84h3.23c1.45,0,2.86,0,3.8-.11a7,7,0,0,0,3.12-1.14,6.1,6.1,0,0,0,2.29-3.18l.68.11c-.1,1.35-.21,3.54-.21,5.26s0,3.59.05,4.73l-.67.06a8.83,8.83,0,0,0-1.88-2.61,6.57,6.57,0,0,0-3.75-1.61,29.46,29.46,0,0,0-3.75-.21,21.69,21.69,0,0,0-2.91.16v.67c0,3.13,0,6.67.26,9.69s1,4.22,2.39,5.21a8,8,0,0,0,4.53,1.14,18.43,18.43,0,0,0,6-3,18.72,18.72,0,0,0,4.95-5.72l.68.1c-.68,3.54-1,7.24-1.62,9.74-.72.05-2.81.1-3.85.1-5.62,0-12.34-.1-16.77-.1-2.92,0-6.87.05-8.75.1l0-.62A8,8,0,0,0,130.38,326.1Z" transform="translate(0 0)"/><path d="M162.52,326.15c1.09-1.3,2.18-3.23,2.55-7.76s.36-9.16.36-14.58c0-4.27-1.41-6.93-3.12-8.38a10.16,10.16,0,0,0-4.43-2.19l.05-.63c1.62.06,3.75.11,5.68.11,1.77,0,3.07-.11,4-.11a4.28,4.28,0,0,1,1.19.16c7.3,9.06,15.52,17.92,23.65,26.87a65.86,65.86,0,0,0,.26-6.72c0-3.38-.11-5.26-.21-7.18a21.35,21.35,0,0,0-2-8.34,8.71,8.71,0,0,0-5.37-4.16l.06-.63c1.87,0,5.62.16,8,.16s5.94-.1,7.45-.16l.05.63a8.1,8.1,0,0,0-3.9,2.91,10.84,10.84,0,0,0-1.62,3.75,30.53,30.53,0,0,0-.67,5.58c-.11,1.46-.11,4.79-.11,8.43v7.66c0,2.86.11,5.78.26,8.28l-1,.16c-8.43-9.95-18.48-21.41-26.14-29.64h-.16c-.15,2.14-.2,4.64-.2,6.31,0,2.49,0,5.41.15,8.64.21,7.19,1.36,9.27,2.81,10.78a9.82,9.82,0,0,0,4.48,2.45l-.05.62c-1,0-5.52-.15-8.28-.15-2.34,0-5.62.15-6.87.15l-.06-.62A7.8,7.8,0,0,0,162.52,326.15Z" transform="translate(0 0)"/><path d="M212.87,326.93a7,7,0,0,0,2.24-4.32c.26-1.41.53-4.53.53-12.39,0-2.45-.06-6.67-.11-8.75-.05-2.92-.1-4.74-.31-7.29-.57-.06-1.67-.11-2.92-.11a10.75,10.75,0,0,0-5.26,3.39,25.07,25.07,0,0,0-3.85,5.2l-.68-.1c.57-4.63.57-6.66,1-9.79,1.15-.1,2.24-.16,3.86-.16,2.13,0,7.76.11,11.19.11s9.43-.11,11.25-.11c1.51,0,2.71.06,3.86.16.47,3.13.47,5.16,1,9.79l-.68.1a27,27,0,0,0-3.85-5.2c-2-2-3.49-3-5.26-3.39-1.1,0-2.5.05-3.08.11-.1,1.77-.15,3.33-.2,6.87-.06,2.76-.06,6.35-.06,9a98,98,0,0,0,.47,12.5,9.24,9.24,0,0,0,1,3.28c.79,1.3,2.3,2.24,4.64,2.76l-.05.62c-2.14-.05-6.57-.15-9.12-.15-2.91,0-7.39.1-9.16.15l-.05-.62A9.4,9.4,0,0,0,212.87,326.93Z" transform="translate(0 0)"/><path d="M51,378.6c1-1.31,1.51-3.54,1.66-6.15.11-1.56.21-4.27.21-6.2V363.6c0-3.8,0-7.14-.21-9.64s-.41-4.06-1.19-5.26a6,6,0,0,0-2.61-2.13,13.17,13.17,0,0,0-3-.83l.05-.63c1.78.1,7.71.1,9.07.1,4.63,0,9.47-.1,15.67-.1,2.14,0,3.75,0,5,.1.52,3.13.42,5,1,9.69L76,355c-3.33-5.2-7.7-8.22-13.22-8.69a19.47,19.47,0,0,0-3.28.26,147.52,147.52,0,0,0-.63,14.94v1.1h3.49c1.46,0,2.86,0,3.8-.11a6.88,6.88,0,0,0,3.13-1.14,6.16,6.16,0,0,0,2.29-3.18l.67.11c-.1,1.35-.2,3.54-.2,5.26s0,3.59,0,4.73l-.68.06a9,9,0,0,0-1.87-2.61,6.63,6.63,0,0,0-3.75-1.61,32.69,32.69,0,0,0-6.93-.05v.41c0,3.13,0,6.56.26,9.59s1.25,4.32,2.81,5.41a9.66,9.66,0,0,0,4.74,1.46l0,.73c-2.14,0-8.23-.16-11.14-.16s-6.88.11-8.75.16l-.06-.63A7.94,7.94,0,0,0,51,378.6Z" transform="translate(0 0)"/><path d="M89,378.91a12.41,12.41,0,0,1-4-9.74c0-1.61.11-4.64.11-7.55a84.85,84.85,0,0,0-.26-8.54c-.26-1.72-.58-3.59-2-4.95a9.77,9.77,0,0,0-4.07-2.39l.06-.63c2.39.05,5.78.16,8.85.16,3.75,0,6.93-.11,9.22-.16l.1.63a9,9,0,0,0-3.7,2.08,8,8,0,0,0-1.92,4.42,68.69,68.69,0,0,0-.32,8v3.7c0,2.08,0,4,.16,5.68a9.76,9.76,0,0,0,3,6.66,10.82,10.82,0,0,0,7.19,2.35,11.29,11.29,0,0,0,7.29-2.5,11.1,11.1,0,0,0,3.33-7,42.28,42.28,0,0,0,.26-5.21c0-2.35-.15-5.11-.36-7.24a16.56,16.56,0,0,0-2.34-7.55,9.22,9.22,0,0,0-4.59-3.33l0-.63c1.36,0,5.16.16,7.76.16s5.68-.11,7-.16l.11.68a7.63,7.63,0,0,0-2.66,1.82,10.6,10.6,0,0,0-2.34,4.79,50.57,50.57,0,0,0-1,11.25V365c0,1.46-.05,3.13-.16,4.43a14.7,14.7,0,0,1-3,8.49c-2.39,2.81-5.94,4.48-11.14,4.48C95.28,382.4,91.59,381.2,89,378.91Z" transform="translate(0 0)"/><path d="M126.53,378.65c1.09-1.3,2.19-3.23,2.55-7.76s.37-9.17.37-14.58c0-4.27-1.41-6.93-3.13-8.39a10.2,10.2,0,0,0-4.42-2.18l0-.63c1.61.05,3.75.1,5.67.1,1.77,0,3.08-.1,4-.1a4,4,0,0,1,1.2.16c7.29,9.06,15.52,17.91,23.64,26.87a66,66,0,0,0,.26-6.72c0-3.38-.1-5.26-.2-7.19a21.23,21.23,0,0,0-2-8.33,8.69,8.69,0,0,0-5.36-4.16l0-.63c1.88,0,5.63.16,8,.16s5.94-.11,7.45-.16l0,.63a8.07,8.07,0,0,0-3.91,2.91,11,11,0,0,0-1.61,3.75,30.56,30.56,0,0,0-.68,5.57c-.1,1.46-.1,4.79-.1,8.44v7.66c0,2.86.1,5.78.26,8.28l-1,.15c-8.44-9.94-18.49-21.4-26.14-29.63h-.16c-.16,2.13-.21,4.63-.21,6.3,0,2.5.05,5.42.16,8.65.21,7.18,1.35,9.27,2.81,10.78a9.61,9.61,0,0,0,4.48,2.44l0,.63c-1.05,0-5.52-.16-8.28-.16-2.35,0-5.63.16-6.88.16l0-.63A7.69,7.69,0,0,0,126.53,378.65Z" transform="translate(0 0)"/><path d="M170.48,379.79c1.15-.83,1.83-1.71,2.4-4s.68-7.5.68-11.36v-1.61a104.08,104.08,0,0,0-.37-10.57c-.21-1.88-.57-3.39-1.82-4.59a9.47,9.47,0,0,0-4.79-2l0-.63c2.66.16,5.31.16,8.54.16,3,0,7.66-.16,10.73-.16,6,0,10.52,1.77,13.64,4.38a16.68,16.68,0,0,1,5.89,12.91c0,7.29-3.23,12.13-6.77,15A18.76,18.76,0,0,1,187,381.72c-3.38,0-6.87-.21-11.09-.21-2.86,0-6.2.11-8.54.16l-.05-.63A8.09,8.09,0,0,0,170.48,379.79Zm9.85-2.76a4.29,4.29,0,0,0,2.5,2.71,7.94,7.94,0,0,0,3.33.68c7.19-1.25,12.34-7.5,12.34-17a16.22,16.22,0,0,0-14.89-17.08,16.52,16.52,0,0,0-3.28.31,33.55,33.55,0,0,0-.58,6.46c-.15,3.28-.2,6.25-.2,9.74v1.71C179.55,368.81,179.65,375.06,180.33,377Z" transform="translate(0 0)"/><rect x="4.82" y="280.54" width="251.16" height="1.25"/><rect x="4.82" y="338.3" width="251.16" height="1.25"/><rect x="4.82" y="388.62" width="251.16" height="1.25"/></g></g></svg>