<?xml version="1.0" encoding="utf-8"?>
<!-- Generator: Adobe Illustrator 24.1.1, SVG Export Plug-In . SVG Version: 6.00 Build 0)  -->
<svg version="1.1" id="Layer_1" xmlns="http://www.w3.org/2000/svg" xmlns:xlink="http://www.w3.org/1999/xlink" x="0px" y="0px"
	 viewBox="0 0 730 421" style="enable-background:new 0 0 730 421;" xml:space="preserve">
<style type="text/css">
	.st0{clip-path:url(#SVGID_2_);}
	.st1{fill:#FFFFFF;}
</style>
<g id="Layer_2_1_">
	<g id="Layer_1-2">
		<g>
			<defs>
				<rect id="SVGID_1_" y="118.1" width="730" height="184.8"/>
			</defs>
			<clipPath id="SVGID_2_">
				<use xlink:href="#SVGID_1_"  style="overflow:visible;"/>
			</clipPath>
			<g class="st0">
				<path class="st1" d="M706.4,238.8L671.8,281l24.2,19.8l5.7-7L686,281l9.3-11.3l14.2,11.6l5.7-7L701,262.8l8.1-9.9l15.1,12.4
					l5.7-7L706.4,238.8z M626.5,248.3l8.2,5.8l25.2-35.6h0.1l-17.2,41.3l7,4.9l33-30l0.1,0.1l-25.1,35.6l8.2,5.8l31.5-44.6
					l-13.3-9.4l-28.7,27l-0.1-0.1l15.9-36l-13.4-9.4L626.5,248.3z M612.4,208.4c7.4-12.6,11.2-16.9,16.8-13.7
					c5.6,3.3,3.7,8.7-3.7,21.3c-7.4,12.6-11.2,16.9-16.8,13.7S604.9,221.1,612.4,208.4 M602.9,202.8c-8.4,14.3-12.6,25.5,1.7,33.9
					c14.3,8.3,22-0.8,30.4-15c8.4-14.3,12.6-25.5-1.7-33.9S611.3,188.6,602.9,202.8 M552.2,208.4l9.9,4.8l10.5-21.8l11.6,5.6
					l-10.5,21.8l9.9,4.8l23.8-49.1l-9.9-4.8l-9.1,18.8l-11.6-5.6l9.1-18.8l-9.9-4.8L552.2,208.4z M492.6,186.1l-0.2,0.9
					c2.6,0.8,8.2,2.6,12.2,3.9c6.2,2.1,15.7,5.4,23.5,8c1.5,0.5,4.3,1.4,5.3,1.6c2-3.3,4.5-8.5,7-13.1l-0.9-0.5
					c-2.8,2.5-6.1,4.5-9.6,5.7c-3.2,1.1-6.5,1.7-9.9,1.6c-2.3-0.7-4.4-2-6-3.8c-1.5-2-1.9-4.1-0.9-8.4s2.7-9.3,4.2-13.6l1.8-5.3
					c2.3-7,4.1-11.9,5.7-14.2c1.7-2.6,4.6-4.1,9.9-3.5l0.2-0.9c-3.3-1-9.5-3-13.5-4.3s-9.3-3.4-12.3-4.4l-0.4,0.9
					c2.6,1.2,4.6,3.4,5.5,6.1c1.1,3.6-0.7,9.4-4.2,19.7l-1.9,5.7c-0.9,2.7-2.4,6.7-3.2,8.5c-1.5,3.6-3.1,6.5-5.2,7.8
					C497.5,185.9,495,186.4,492.6,186.1 M463.2,158c-3-0.6-6.9-1.4-9.2-2.1c1-1.6,2.4-3.5,3.9-5.5l8.8-11.9h0.2
					c1.8,7.3,3.3,13.9,4.9,21c-2.7-0.4-5.6-1-8.6-1.6 M432,173.1l-0.1,0.9c2.3,0.4,6.2,1.1,8.7,1.7c3.5,0.7,8.7,2,11.8,2.6l0.3-0.9
					c-1.3-0.7-2.3-1.7-3.1-2.9c-1.3-2-1.7-4.4-1.1-6.7c0.9-3.5,2.3-6.8,4.3-9.7c2.7,0.5,6.3,1.2,10,2s6.8,1.4,9.6,2.1
					c0.6,2.8,1.2,5.5,1.6,8.1c0.4,2.1,0.5,4.3,0.2,6.4c-1.1,2.4-4.3,3.6-7.2,3.8l-0.1,0.9c4,0.8,9.4,1.8,12.4,2.4
					c4.5,0.9,10.5,2.3,11.8,2.6l0.3-1c-3.1-1.6-5.3-5.5-6.8-9.8c-2.3-6.1-5.5-20.3-7.9-31.5c-1.3-5.8-2.5-11.6-3.7-17.6l-1.1-0.2
					c-1.3,2.2-3.4,5.6-5.2,8.2L456,149.1c-4.6,6.5-9.6,12.7-15,18.6c-1.4,1.5-3.1,2.9-4.9,3.9C434.8,172.3,433.5,172.8,432,173.1
					 M431.4,159.9l-1-0.3c-2.5,3.7-5.7,6.8-9.4,9.2c-2.8,1.9-6.1,3.1-9.5,3.3c-5.2-1.7-9.7-4.9-13.1-9.2c-4.1-5.3-6-11.9-5.4-18.6
					c0.3-5.8,2.4-11.4,6.2-15.9c3.4-3.9,7.8-6.8,12.8-8.2c4.2,1.3,7.9,3.8,10.7,7.3c3.2,3.6,5.8,7.7,7.7,12.2l1-0.1
					c-0.4-7,0-12-0.5-16.5c-5.4-2.7-11.4-4.3-17.4-4.5c-7.5-0.5-15,1.9-20.8,6.7c-5.9,4.9-9.5,12.1-9.9,19.8
					c-0.6,7.4,2,14.7,7.2,20.1c5.1,5.1,12,8.2,19.2,8.5c6.5,0.5,13.1-0.3,19.3-2.5C429.5,168.3,430.6,162.7,431.4,159.9
					 M352.7,171.7l0.1,0.9c2.6-0.2,9.2-0.5,13.5-0.7c3.7-0.1,9.1-0.2,12.2-0.2v-0.9c-2.3-0.5-4.4-1.9-5.8-3.9c-2-3.2-2.5-8.5-3-23.1
					c-0.3-10.1-0.4-15.7,0.2-18.4c0.8-3.3,3.5-5.9,6.9-6.5l-0.1-0.9c-3.4,0.2-8.8,0.5-13,0.6c-4.2,0.1-10,0.1-13.1,0.2v0.9
					c2.9,0.2,5.5,1.6,7.3,3.8c2.3,3,2.6,9.3,3,20.8c0.4,11.5,0.1,16.1-0.2,18.2c-0.2,2.5-1.4,4.8-3.2,6.5
					C356.3,170.4,354.5,171.2,352.7,171.7 M312.4,159.9l-1,0.3c1,5,2.3,9.9,3.9,14.7c5,1.1,10.1,1.3,15.2,0.6
					c6.3-0.7,11.1-3.1,14.1-6.4c2.8-2.9,4.1-7,3.6-11c-0.9-8-7.8-10.8-15-13.5c-3.9-1.4-8.1-2.8-10.8-5c-2.1-1.6-3.4-4.1-3.6-6.8
					c-0.5-4.7,2.4-9.1,6.9-10.6c3.6,0.6,7,2.2,9.8,4.7c3.1,2.4,5.8,5.2,8,8.4l1-0.3c-1.1-5-2.1-11-3-14.1c-4.8-1-9.7-1.2-14.6-0.6
					c-4.7,0.4-9.1,2.3-12.5,5.6c-3.1,3.1-4.5,7.5-3.9,11.9c0.4,3.8,2.4,7.2,5.4,9.6c3,2.6,7.2,4.1,11.5,5.9
					c4.3,1.7,8.5,3.5,10.5,5.6c1.1,1.1,1.8,2.5,1.9,4.1c0.6,5-3.2,8.8-7.7,10.3c-3,0-6.4-1.2-10.8-4.3
					C317.6,166.6,314.6,163.5,312.4,159.9 M283.2,183.8c7.5-1.7,12-5.2,14.5-10c1.9-4.1,2.4-8.7,1.5-13.1c-0.3-1.9-0.8-4.3-1.2-6.4
					l-0.4-1.9c-1.4-5.4-2.1-10.9-2.3-16.4c-0.1-2.7,0.6-5.3,1.8-7.6c0.8-1.4,1.9-2.6,3.2-3.5l-0.4-0.9c-1.8,0.5-6.2,1.7-9.9,2.5
					c-3.7,0.8-9.2,1.9-11.1,2.3l0.1,0.9c2.8,0.3,5.5,1.4,7.7,3.3c2.7,2.8,4.7,6.3,5.8,10c1,3,2.1,6.9,2.9,10.3c0.6,2.5,1,5,1.3,7.5
					c0.5,3.9-0.3,7.9-2.5,11.2c-2.4,3.1-5.8,5.2-9.6,6c-3.7,1-7.6,0.6-11.1-1c-3.2-1.9-5.5-5-6.5-8.6c-0.8-2.4-1.4-5.1-2.1-8.1
					l-1.2-5.3c-0.9-3.8-1.7-7.6-2.1-11.5c-0.3-2.4,0.2-4.8,1.3-7c1.2-1.7,2.8-3.2,4.6-4.2l-0.3-0.9c-3.3,0.8-7.8,2-13.2,3.2
					c-4.4,1-9.3,2-12.7,2.7l0.1,0.9c2.3,0.2,4.6,0.9,6.6,2.1c2.5,1.5,3.5,4.1,4.5,6.4c0.9,2.1,2.4,8.7,3.2,12.1
					c0.9,4.2,1.8,8.5,2.3,10.8c0.9,5.3,4.2,10,8.9,12.6C271.4,184.7,277.1,185.3,283.2,183.8 M186.5,212.7l0.4,0.8
					c1.9-0.7,6-2.5,8.8-3.5c3-1.1,8.7-3,11.4-4l-0.2-0.9c-2.7,0.5-5.4-0.2-7.7-1.7c-2.6-2.3-4.5-5.2-5.8-8.5
					c-0.6-1.3-1.1-2.7-1.6-3.9c-2.3-6.2-4.5-12.9-7.3-21.9l0.3-0.1c4.5,3.9,8.5,8,13,12.5c7.6,7.7,13.7,14,17.7,18.8l1-0.4
					c0.4-4,0.5-8,0.4-12l0.2-17.6c0-4.9,0.3-9.8,0.9-14.7l0.3-0.1c1.5,2.8,2.8,5.7,4,8.6c1.8,4.3,4.5,10.8,6.1,15.3s3,8.7,2.8,11.7
					c-0.1,2.8-1.7,5.4-4.2,6.7l0.4,0.8c2.9-1.1,8.2-3.3,11.8-4.6c3.4-1.3,9.4-3.2,11.4-4l-0.3-1c-3.3,0.2-5.2,0.1-8.1-3
					c-1.9-2-4.7-8-7.4-14.3c-2.4-5.3-4.3-10.3-5.9-14.6l-0.9-2.4c-1-2.4-1.4-5-1.1-7.5c0.8-2.7,2.6-5.1,5-6.6l-0.4-0.8
					c-2,0.9-4.6,1.9-7,2.8c-3.2,1.2-6.8,2.2-8.4,2.8c-0.8,0.3-1,0.5-1,1.2c-0.3,5.6-0.3,13.6-0.4,23.2l-0.2,16.3l-13.8-13.7
					c-6.2-6.1-12-12.2-15.7-15.3c-0.5,0-0.9,0.1-1.4,0.3c-0.9,0.3-2.6,1.1-7.1,2.9c-1.7,0.6-7.8,2.7-9,3.1l0.3,0.9
					c2.6-0.6,5.4-0.4,7.9,0.4c2.3,1,4.3,2.7,5.6,4.9c1.2,2,2.2,4.1,2.9,6.3c1.8,5,3.4,10.2,4.6,14.4c1.9,7,2.9,13,1.6,16.7
					C189.7,209.4,188.4,211.3,186.5,212.7 M136.4,239.9l9.7-5.1l-10.8-20.4l5.2-2.7c3.9-2.1,6.8-0.7,9,3l5.1,9.2
					c0.8,1.8,2.2,3.4,3.9,4.5l10.5-5.6l-0.2-0.4c-2.3,0-4-2.5-6.7-7.5c-5.5-10.2-8.5-13.3-15.6-10.7V204c4.9-4,5.2-9.7,1.8-16.1
					c-4.4-8.3-11.4-9.9-19.4-5.7l-18,9.5L136.4,239.9z M124.5,193.6l4.7-2.4c4.4-2.3,7.9-1.3,10.3,3.1c2.7,5.2,1.2,8.6-3.5,11.1
					l-4.1,2.1L124.5,193.6z M72.1,215.3l20.1,32.4c7.7,12.4,16.5,10.5,24,5.8c7.5-4.7,13-12.3,5.6-24.2l-20.1-32.4l-9.4,5.8l20,32.4
					c2.9,4.6,3.9,8.7-0.5,11.4s-7.6,0-10.5-4.7l-20-32.4L72.1,215.3z M58.9,257.8c-8.5-11.9-10.9-17.1-5.7-20.9
					c5.3-3.8,9.4,0.2,18,12c8.6,11.8,10.9,17.1,5.7,20.9C71.7,273.6,67.5,269.7,58.9,257.8 M49.9,264.2
					c9.7,13.5,18.2,21.8,31.6,12.2c13.4-9.6,8.2-20.4-1.5-33.9C70.3,229,62,220.7,48.5,230.3s-8.2,20.4,1.5,33.9 M0,269.6l31.9,16.7
					l13.6,16.6l8.5-7l-13.6-16.6l-10-34.5l-9.2,7.5l7.5,21.2l-0.1,0.1l-19-11.8L0,269.6z"/>
			</g>
		</g>
	</g>
</g>
</svg>
