<?xml version="1.0" encoding="utf-8"?>
<!-- Generator: Adobe Illustrator 24.1.1, SVG Export Plug-In . SVG Version: 6.00 Build 0)  -->
<svg version="1.1" id="Layer_1" xmlns="http://www.w3.org/2000/svg" xmlns:xlink="http://www.w3.org/1999/xlink" x="0px" y="0px"
	 viewBox="0 0 730 421" style="enable-background:new 0 0 730 421;" xml:space="preserve">
<style type="text/css">
	.st0{fill:#FFFFFF;}
</style>
<g id="Layer_2_1_">
	<g id="Layer_1-2">
		<path class="st0" d="M18.4,91.7h0.1L33.8,77L43.9,82l-25.7,22.2l-8.9,18.2L0,117.9l8.9-18.3l1.7-33.9l10.5,5.1L18.4,91.7z"/>
		<path class="st0" d="M39.7,96.7c1.7-2.4,3.9-4.5,6.4-6.1c2.2-1.4,4.8-2.1,7.4-2.1c3.2,0.2,6.3,1.3,9,3.1c2.8,1.5,5.3,3.7,7,6.4
			c1.3,2.3,1.9,4.8,1.8,7.4c-0.2,2.9-1,5.8-2.3,8.5c-1.5,3.3-3.2,6.5-5,9.6c-1.8,3.1-3.8,6.1-6,9c-1.7,2.4-3.9,4.4-6.3,6.1
			c-2.2,1.4-4.7,2.1-7.3,2c-3.2-0.3-6.3-1.3-9-3.1c-2.8-1.5-5.3-3.7-7.1-6.3c-1.3-2.2-2-4.8-1.8-7.4c0.2-2.9,1-5.8,2.2-8.5
			c1.5-3.3,3.2-6.5,5.1-9.7C35.6,102.6,37.5,99.6,39.7,96.7z M38.4,118.7c-0.9,1.8-1.7,3.7-2.1,5.6c-0.3,1.3-0.3,2.7,0.2,3.9
			c0.6,1.2,1.5,2.2,2.7,2.8c1.1,0.7,2.4,1.1,3.7,1c1.3-0.2,2.6-0.8,3.5-1.8c1.5-1.4,2.8-2.9,3.9-4.6c1.4-2,2.9-4.5,4.7-7.5
			s3.2-5.5,4.3-7.7c1-1.8,1.7-3.7,2.2-5.6c0.4-1.3,0.3-2.7-0.2-4c-0.6-1.2-1.5-2.2-2.7-2.8c-1.1-0.7-2.4-1.1-3.7-1
			c-1.3,0.2-2.6,0.8-3.6,1.8c-1.5,1.4-2.8,2.9-3.9,4.6c-1.4,2-2.9,4.5-4.7,7.4S39.5,116.6,38.4,118.7z"/>
		<path class="st0" d="M73.7,142.3c-0.7,1-1.3,2-1.8,3.1c-0.5,0.9-0.7,1.8-0.8,2.8c-0.1,0.9,0.1,1.8,0.5,2.6
			c0.5,0.9,1.2,1.7,2.1,2.3c0.8,0.6,1.8,1,2.9,1.2c0.9,0.1,1.8-0.1,2.6-0.5c0.9-0.4,1.7-1,2.4-1.8c0.8-0.9,1.6-1.8,2.3-2.8
			l20.7-29.4l8.5,6l-20.7,29.4c-1.5,2.3-3.5,4.3-5.8,5.9c-1.8,1.2-3.8,1.9-5.9,2c-2,0.2-4-0.2-5.8-1c-1.9-0.8-3.7-1.9-5.4-3.1
			c-1.7-1.2-3.3-2.5-4.7-4c-1.4-1.4-2.4-3.1-3-4.9c-0.6-2-0.6-4.1-0.1-6.1c0.7-2.8,2-5.4,3.7-7.7l20.7-29.4l8.5,6L73.7,142.3z"/>
		<path class="st0" d="M136.5,144.5c3,2.1,5.1,5.3,5.8,8.9c0.5,3.2-0.7,6.6-3.5,10c-1.8,2.4-4.2,4.2-7,5.3c-2.6,0.8-5.3,0.5-7.7-0.8
			l-0.1,0.1c1.5,1.5,2.5,3.4,2.8,5.5c0,2.3-0.8,4.5-2.2,6.3c-0.5,0.8-1.1,1.7-1.8,2.6l-2.3,3.1c-1.6,2.2-2.9,3.9-3.6,5.1
			c-0.6,1-0.8,2.3-0.4,3.5l-0.3,0.3l-8.8-7.1c0-0.9,0.3-1.8,0.8-2.6c0.5-0.8,1-1.7,1.5-2.5l6-7.9c1.1-1.3,1.7-2.9,1.8-4.6
			c-0.1-1.8-1-3.4-2.5-4.3l-4.3-3.5l-13.7,16.9l-8.1-6.5l32.4-40.1L136.5,144.5z M118.9,159.2c1.5,1.4,3.5,2.2,5.6,2.3
			c2.2-0.3,4.1-1.5,5.3-3.4c3-3.7,2.6-7.1-1.1-10.1l-3.8-3.1l-9.3,11.6L118.9,159.2z"/>
		<path class="st0" d="M142.9,212c3.7-0.2,8.5-3.4,13.8-7.7c3.3-2.6,7.2-6,10.7-9.4c1.6-1.5,3.1-3.1,4.4-4.9c1.4-2,2.1-4.3,2.1-6.7
			c-0.2-2.5-1.1-4.9-2.6-7l0.7-0.6c0.8,0.9,4.9,5.4,6.1,6.7c3.2,3.2,4.6,4.4,5.2,5.1c0.3,0.3,0.6,0.7,0.7,1.1
			c-1.3,4.4-4.4,11.7-7.3,19.3l-6.6,17.1l14.2-6c8.3-3.5,15.4-6.6,20.2-8.4c0.6-0.2,0.9-0.1,1.4,0.4c1.1,1.2,3.4,3.9,5.6,6.1
			c1.7,1.8,3.6,3.6,5.1,5l-0.6,0.6c-2.2-1.5-4.9-2.2-7.6-1.8c-2.3,0.7-4.5,2-6.1,3.8l-1.8,1.7c-3.1,3-6.7,6.5-10.4,10.6
			c-4.4,4.7-8.5,9.4-9.5,11.7c-1.5,3.7-1,5.4,0.4,8.2l-0.7,0.6c-1.4-1.5-5.3-5.9-7.7-8.4s-6.4-6.4-8.4-8.5l0.6-0.7
			c2.1,1.7,4.9,2.1,7.3,1.1c2.7-1,5.9-3.8,9.1-6.8c3.1-3,7.9-7.8,10.9-11.1c2.1-2.1,4.1-4.4,6-6.7l-0.2-0.2
			c-4.5,1.3-8.8,2.9-13.1,4.8l-15.4,6.5c-3.4,1.6-6.9,3-10.5,4.2l-0.7-0.7c2.7-5.3,5.8-12.8,9.5-22.3c2.2-5.6,4.2-10.5,5.9-16
			l-0.2-0.2c-6.7,5.8-11.6,10.3-16.2,14.6c-0.9,0.8-1.8,1.8-2.8,2.9c-2.3,2.3-4.1,5.1-5.1,8.2c-0.5,2.5,0,5.1,1.4,7.3l-0.7,0.6
			c-1.9-2-5.6-6.1-7.7-8.4c-1.9-2-4.9-4.9-6.3-6.2l0.6-0.6C138.6,211.8,140.8,212.2,142.9,212z"/>
		<path class="st0" d="M199,268.4c-0.9-5,0.5-10.2,3.8-14.1c1.4-1.8,4-5,6.5-8.2c2-2.6,5.9-7.7,6.9-9.6c1.5-2.1,2.2-4.6,2-7.1
			c-0.3-2.2-1.1-4.3-2.4-6.1l0.6-0.6c2.6,2.1,6.1,5.1,9.6,7.7c4.1,3.2,7.7,5.7,10.3,7.7l-0.4,0.8c-1.8-0.7-3.8-1-5.8-0.8
			c-2.2,0.4-4.3,1.6-5.8,3.2c-2.5,2.7-4.9,5.5-7.1,8.5l-3.1,4.1c-1.8,2.3-3.3,4.3-4.6,6.4c-2,2.9-2.8,6.4-2.3,9.9
			c0.9,3.5,3,6.6,5.9,8.6c2.9,2.3,6.4,3.5,10.1,3.4c3.7-0.4,7.1-2.2,9.6-4.9c1.7-1.7,3.2-3.6,4.7-5.5c2-2.6,4.1-5.7,5.7-8.3
			c2.1-3.1,3.4-6.6,3.8-10.3c0.1-2.7-0.7-5.3-2.2-7.5l0.6-0.6c1.5,1.2,5.5,4.5,8.4,6.7c2.9,2.2,6.3,4.6,7.8,5.7l-0.5,0.8
			c-1.5-0.4-3-0.5-4.5-0.2c-2.5,0.5-4.7,1.6-6.6,3.3c-3.9,3.4-7.5,7.3-10.6,11.5l-1.1,1.5c-1.2,1.5-2.7,3.4-3.9,4.7
			c-2.7,3.3-6.4,5.7-10.5,6.8c-5,1.1-10.3-0.1-16-4.5C203.4,278.2,200.2,273.6,199,268.4z"/>
		<path class="st0" d="M247.2,299.3c1.7,4.8,3.7,7.6,6,9.2c4.3,1.3,9.2,0.4,11.5-3.8c0.7-1.3,1-2.8,0.8-4.2
			c-0.4-2.8-2.8-6.5-5.1-10.1c-2.3-3.6-4.7-7.1-5.7-10.7c-2.1-7.3,2-14.9,9.3-17.1c0.4-0.1,0.8-0.2,1.2-0.3
			c4.4-0.6,8.9,0.2,12.7,2.5c4.1,2.2,7.8,5,10.9,8.5c-1,2.9-3.5,8.1-5.3,12.5l-0.9-0.3c0-3.6-0.5-7.3-1.5-10.7
			c-0.8-3.4-2.5-6.5-5-8.9c-4.3-1.3-8.9,0.5-11.1,4.5c-1.3,2.1-1.7,4.8-0.9,7.2c0.9,3.2,3.4,6.6,5.6,9.7c4.1,5.9,7.9,11.9,4.2,18.5
			c-1.8,3.4-5,5.7-8.7,6.5c-4,0.9-9,0.1-14.3-2.7c-4.3-2.2-8.1-5.2-11.4-8.8c1.4-4.6,3.1-9.1,5-13.5l0.9,0.3
			C245.1,291.5,245.7,295.5,247.2,299.3z"/>
		<path class="st0" d="M279.7,319.8c2.2-0.8,4-2.3,5.2-4.3c1.1-1.6,3.1-5.5,7.3-15.5c4.3-10,6.4-15.4,5.7-19
			c-0.7-2.6-2.4-4.8-4.8-6.1l0.4-0.8c2.7,1.1,7.5,3.4,11.3,5s8.4,3.4,11.4,4.6l-0.3,0.8c-3.1-0.8-6.5,0.3-8.5,2.9
			c-1.6,2-3.8,6.9-7.4,15.6c-5.4,12.7-7,17.4-6.6,20.9c0.4,2.2,1.6,4.2,3.4,5.6l-0.4,0.8c-2.7-1.2-7.3-3.3-10.6-4.7
			c-3.7-1.5-9.5-3.8-11.8-4.7l0.3-0.8C276.1,320.3,277.9,320.3,279.7,319.8z"/>
		<path class="st0" d="M345.2,342.8c-6.2,0.7-12.4,0.1-18.3-1.8c-6.6-1.9-12.2-6.1-15.9-11.9c-3.7-6-4.5-13.3-2.4-20
			c2-7,6.8-12.8,13.2-16.1c6.4-3.2,13.7-3.8,20.5-1.8c5.5,1.5,10.6,4.1,15,7.8c-0.5,4.3-1.9,8.8-3.1,15.3l-0.9-0.1
			c-0.8-4.5-2.3-8.8-4.5-12.8c-1.8-3.8-4.7-6.9-8.3-9c-4.9,0.2-9.6,1.9-13.5,4.8c-4.4,3.3-7.5,8-9,13.3c-2,6-1.6,12.5,1,18.2
			c2.2,4.7,5.7,8.6,10.1,11.2c3.2,0.5,6.4,0.2,9.4-1c3.9-1.4,7.5-3.7,10.6-6.5l0.8,0.5C348.8,335.3,346.6,340.3,345.2,342.8z"/>
		<path class="st0" d="M352.9,344.7c1.6-1.1,3.1-2.5,4.3-4c4.7-5.9,9-12.1,12.9-18.5l9-14.4c1.4-2.6,3.2-5.9,4.3-8.1h1.1
			c1.5,5.5,3.1,10.9,4.6,16.3c3.1,10.4,7,23.6,9.6,29.2c1.8,3.9,4,7.5,7.1,8.7l-0.2,0.9c-1.3-0.2-7-1.1-11.3-1.7
			c-2.9-0.4-8-0.9-11.8-1.4v-0.9c2.7-0.3,5.6-1.6,6.5-4c0.1-2-0.1-4.1-0.7-6c-0.6-2.4-1.3-4.9-2-7.5c-2.6-0.4-5.7-0.8-9.2-1.3
			c-3.5-0.5-7-0.9-9.6-1.2c-1.7,2.9-2.8,6.1-3.4,9.4c-0.4,2.2,0.2,4.4,1.5,6.2c0.8,1.1,1.9,1.9,3.1,2.5l-0.2,0.8
			c-2.9-0.4-7.9-1.2-11.3-1.6c-2.4-0.3-6.1-0.8-8.3-1v-0.9C350.4,346,351.7,345.4,352.9,344.7z M385.7,331c-1.9-6.7-3.8-12.7-6-19.5
			h-0.2l-7.5,11.8c-1.3,2-2.4,3.9-3.3,5.5c2.2,0.4,5.8,0.9,8.8,1.3C380.4,330.5,383.2,330.8,385.7,331L385.7,331z"/>
		<path class="st0" d="M416.3,350.8c1.5-1.8,2.1-4.9,2.4-8.5c0.2-1.9,0.3-5.9,0.3-8.6V328c0-10.3,0-16-2.1-18.9
			c-1.6-2.2-4.1-3.6-6.8-3.9l0.1-0.9c2.9,0,8.2,0.3,12.3,0.3s10.1-0.1,13.4-0.2v0.9c-4.9,1-7,3.3-7.8,6.1c-0.7,2.5-0.8,7.5-0.9,14.4
			v5.3c0,4.3,0,9.2,0.3,13.4c0.3,4.2,1.3,5.9,3.3,7.2c2,1.1,4.2,1.7,6.5,1.6c3-0.9,5.9-2.4,8.4-4.3c2.8-2.2,5.1-4.9,6.9-8l0.9,0.2
			c-0.9,4.9-1.5,10.2-2.4,13.8c-1,0-3.8,0.1-5.3,0.1c-7.8,0-17.3-0.2-23.4-0.3c-4,0-9.5,0-12.1,0.1v-0.9
			C412.6,353.8,414.7,352.6,416.3,350.8z"/>
		<path class="st0" d="M503.1,336.3c0.6,5.4-0.3,9.5-2.5,12.1c-2.3,2.6-6,4.2-11.2,4.7c-2.3,0.3-4.6,0.2-6.8-0.4
			c-1.7-0.5-3.3-1.4-4.5-2.7c-1.2-1.3-2.1-2.9-2.6-4.6c-0.6-1.8-1-3.8-1.2-5.7l-0.2-2.2l9.5-1l0.2,1.5c0.1,2.1,0.6,4.1,1.5,6
			c1.6,1.9,4.4,2.1,6.3,0.6c0.4-0.4,0.8-0.8,1.1-1.3c0.5-2,0.6-4.1,0.2-6.1l-3.9-36.4l10.3-1.1L503.1,336.3z"/>
		<path class="st0" d="M506.5,313.7c-0.3-2.9,0-5.9,0.8-8.8c0.7-2.5,2.2-4.7,4.2-6.4c2.6-2,5.6-3.2,8.8-3.6c3.1-0.7,6.4-0.6,9.5,0.3
			c2.4,0.9,4.6,2.4,6.1,4.5c1.8,2.4,3.1,5.1,3.9,7.9c1,3.5,1.8,7,2.5,10.5c0.7,3.6,1.1,7.1,1.4,10.7c0.3,2.9,0,5.9-0.8,8.7
			c-0.7,2.5-2.2,4.7-4.2,6.3c-5.4,3.5-12,4.7-18.2,3.3c-2.4-0.8-4.6-2.3-6.1-4.4c-1.8-2.4-3.1-5-3.9-7.9
			C508.5,328,507.2,320.9,506.5,313.7L506.5,313.7z M520,331.1c0.5,2,1.1,3.8,2.1,5.6c0.6,1.2,1.5,2.2,2.7,2.9
			c2.5,1,5.3,0.4,7.3-1.3c0.9-1,1.4-2.3,1.5-3.7c0.2-2,0.2-4-0.1-6c-0.3-2.4-0.7-5.3-1.3-8.7c-0.6-3.4-1.2-6.3-1.8-8.6
			c-0.5-2-1.2-3.8-2.1-5.6c-0.6-1.2-1.5-2.2-2.7-2.9c-2.5-1-5.3-0.5-7.3,1.3c-0.9,1-1.4,2.3-1.5,3.7c-0.2,2-0.2,4,0.1,6
			c0.3,2.4,0.7,5.3,1.4,8.7C518.8,325.9,519.4,328.8,520,331.1z"/>
		<path class="st0" d="M561.1,324.1c0.3,1.2,0.7,2.3,1.1,3.4c0.4,0.9,0.9,1.8,1.5,2.5c0.6,0.7,1.4,1.1,2.3,1.4c1,0.3,2.1,0.3,3.1,0
			c1-0.2,2-0.7,2.8-1.4c0.6-0.6,1.1-1.4,1.3-2.3c0.3-1,0.3-2,0.2-2.9c-0.1-1.2-0.3-2.4-0.6-3.5l-8.6-34.9l10.1-2.5l8.6,34.9
			c0.8,2.7,1,5.5,0.6,8.2c-0.3,2.1-1.1,4.1-2.3,5.8c-1.2,1.6-2.7,2.8-4.5,3.7c-1.8,0.9-3.8,1.6-5.8,2.1c-2,0.5-4.1,0.8-6.1,0.9
			c-1.9,0.1-3.9-0.2-5.7-1c-1.9-0.9-3.6-2.3-4.8-4c-1.6-2.4-2.8-5-3.3-7.9l-8.6-34.9l10.1-2.5L561.1,324.1z"/>
		<path class="st0" d="M598.3,276.6c3.4-1.3,7.2-1.3,10.6,0.1c2.9,1.4,5.1,4.2,6.4,8.5c1,2.8,1.2,5.8,0.5,8.7
			c-0.7,2.6-2.5,4.8-4.9,6v0.1c2.1-0.5,4.2-0.2,6.1,0.7c1.9,1.3,3.3,3.2,4,5.3c0.4,0.9,0.8,1.9,1.1,2.9c0.4,1.1,0.8,2.3,1.3,3.6
			c0.9,2.6,1.7,4.6,2.3,5.9c0.5,1.1,1.5,2,2.7,2.3l0.1,0.4l-10.7,3.4c-0.7-0.5-1.3-1.3-1.7-2.1c-0.4-0.9-0.8-1.8-1.1-2.7l-3.2-9.4
			c-0.5-1.6-1.5-3.1-2.9-4.1c-1.5-0.9-3.3-1-4.9-0.3l-5.2,1.7l6.5,20.8l-9.9,3.1L580,282.3L598.3,276.6z M600.7,299.4
			c2-0.5,3.8-1.7,5-3.4c1-2,1-4.3,0.2-6.3c-1.4-4.6-4.4-6.1-9-4.6l-4.7,1.5l4.4,14.2L600.7,299.4z"/>
		<path class="st0" d="M653,295h0.1L641,261.9l9-3.3l17.8,48.3l-11.1,4.1l-24.4-29.5h-0.1l12.5,33.8l-8.9,3.4l-17.8-48.3l11.3-4.1
			L653,295z"/>
		<path class="st0" d="M686.3,252.7l-16.9,7.1l4.7,11.2l16-6.7l3.3,7.8l-16,6.7l5.4,12.8l17.6-7.4l3.3,7.8l-27.2,11.4l-20-47.5
			l26.5-11.1L686.3,252.7z"/>
		<path class="st0" d="M712,253.5h0.1l-1.8-21.2l10.2-4.7l1,33.9L730,280l-9.4,4.4l-8.5-18.4l-25.2-22.8l10.6-4.9L712,253.5z"/>
	</g>
</g>
</svg>
